<?xml version="1.0" encoding="UTF-8" standalone="no"?>
<svg
   xmlns:dc="http://purl.org/dc/elements/1.1/"
   xmlns:cc="http://creativecommons.org/ns#"
   xmlns:rdf="http://www.w3.org/1999/02/22-rdf-syntax-ns#"
   xmlns:svg="http://www.w3.org/2000/svg"
   xmlns="http://www.w3.org/2000/svg"
   viewBox="0 0 13.808562 25.408701"
   x="0px"
   y="0px"
   version="1.1"
   width="13.808863"
   height="25.409"
   xml:space="preserve"
   id="svg23711"><defs
     id="defs18715" /><metadata
     id="metadata33873"><rdf:RDF><cc:Work
         rdf:about=""><dc:format>image/svg+xml</dc:format><dc:type
           rdf:resource="http://purl.org/dc/dcmitype/StillImage" /><dc:title></dc:title></cc:Work></rdf:RDF></metadata><style
     type="text/css"
     id="style23713">
	.st0{fill:#231F20;}
	.st1{fill:none;stroke:#000000;stroke-width:2;stroke-miterlimit:10;}
	.st2{fill:none;stroke:#000000;stroke-miterlimit:10;}
	.st3{fill:#FFFFFF;stroke:#231F20;stroke-miterlimit:10;}
	.st4{fill:none;stroke:#231F20;stroke-width:0.5;stroke-miterlimit:10;}
	.st5{fill:#FFFFFF;}
	.st6{fill:#FFFFFF;stroke:#231F20;stroke-width:0.5;stroke-miterlimit:10;}
	.st7{fill:none;stroke:#231F20;stroke-width:0.25;stroke-miterlimit:10;}
	.st8{fill:#52B965;}
	.st9{fill:#8D68AC;}
	.st10{fill:#BE1E2D;}
	.st11{fill:#F6EB0F;}
	.st12{fill:#00ADEE;}
	.st13{fill:#D24899;stroke:#6D6E70;stroke-width:0.25;stroke-miterlimit:10;}
	.st14{fill:#D3D3D3;stroke:#000000;stroke-width:0.7087;stroke-linecap:round;stroke-linejoin:round;stroke-miterlimit:10;}
	.st15{fill:#999999;}
	.st16{fill:#E6E7E8;}
	.st17{fill:#333333;}
	.st18{fill:#BBBDBF;}
	.st19{fill:none;stroke:#FF3691;stroke-width:0.9983;stroke-miterlimit:10;}
	.st20{fill:none;stroke:#FF3691;stroke-width:0.9481;stroke-miterlimit:10;}
	.st21{fill:none;stroke:#FF3691;stroke-width:0.98;stroke-miterlimit:10;}
	.st22{fill:none;stroke:#FF3691;stroke-width:0.7637;stroke-miterlimit:10;}
	.st23{fill:none;stroke:#FF3691;stroke-width:0.9781;stroke-miterlimit:10;}
	.st24{fill:none;stroke:#FF3691;stroke-width:0.9067;stroke-miterlimit:10;}
	.st25{fill:none;stroke:#FF3691;stroke-width:0.9028;stroke-miterlimit:10;}
	.st26{fill:none;stroke:#FF3691;stroke-width:0.8385;stroke-miterlimit:10;}
	.st27{fill:none;stroke:#FF3691;stroke-width:0.9046;stroke-miterlimit:10;}
	.st28{fill:none;stroke:#FF3691;stroke-width:1.1178;stroke-miterlimit:10;}
	.st29{fill:none;stroke:#FF3691;stroke-width:1.0975;stroke-miterlimit:10;}
	.st30{fill:none;stroke:#FF3691;stroke-width:1.1075;stroke-miterlimit:10;}
	.st31{fill:#098453;stroke:#231F20;stroke-width:0.25;stroke-miterlimit:10;}
	.st32{fill:#DF2742;stroke:#231F20;stroke-width:0.25;stroke-miterlimit:10;}
	.st33{fill:#EE823C;stroke:#231F20;stroke-width:0.25;stroke-miterlimit:10;}
	.st34{fill:#FCFDFF;}
	.st35{fill:#098453;stroke:#231F20;stroke-width:0.1674;stroke-miterlimit:10;}
</style><g
     transform="translate(-94.945719,-355.94565)"
     id="Appliances"><g
       id="Dehum"><g
         id="g33019"><path
           style="fill:#d3d3d3;stroke:#000000;stroke-width:0.7087;stroke-linecap:round;stroke-linejoin:round;stroke-miterlimit:10"
           stroke-miterlimit="10"
           class="st14"
           d="m 108.4,359.6 0,18.1 c 0,1.8 -1.5,3.3 -3.3,3.3 l -6.5,0 c -1.8,0 -3.3,-1.5 -3.3,-3.3 l 0,-18.1 c 0,-1.8 1.5,-3.3 3.3,-3.3 l 6.5,0 c 1.8,0 3.3,1.5 3.3,3.3 z"
           id="path33021" /><g
           style="fill:#333333"
           id="g33023"><path
             style="fill:#333333"
             d="m 105.2,369.6 c -0.1,-0.3 -0.3,-0.6 -0.4,-0.9 -0.3,-0.6 -0.7,-1.1 -1.1,-1.6 -0.3,-0.3 -0.6,-0.6 -0.9,-1 0,0 0,0.1 -0.1,0.1 -0.4,0.4 -0.7,0.8 -1.1,1.3 0,0 0,0.1 -0.1,0.1 l 0,-0.1 c -0.1,-0.2 -0.2,-0.5 -0.3,-0.7 -0.3,-0.4 -0.5,-0.8 -0.9,-1.2 -0.2,-0.2 -0.4,-0.5 -0.6,-0.7 l 0,0.1 c -0.3,0.3 -0.6,0.6 -0.8,0.9 -0.3,0.4 -0.6,0.8 -0.8,1.2 -0.2,0.4 -0.3,0.8 -0.2,1.2 0.2,1 1.2,1.7 2.2,1.5 0.1,0 0.2,0 0.3,-0.1 -0.1,0.3 -0.1,0.6 0,0.9 0.3,1.3 1.6,2.2 2.9,2 1,-0.2 1.6,-0.7 2,-1.7 0,-0.4 0,-0.8 -0.1,-1.3 z m -5.2,-0.2 c -0.5,0.1 -1,0 -1.4,-0.4 -0.2,-0.2 -0.3,-0.4 -0.4,-0.6 -0.1,-0.3 -0.1,-0.5 0.1,-0.8 0.2,-0.4 0.4,-0.8 0.7,-1.2 0.2,-0.2 0.4,-0.5 0.6,-0.7 l 0.1,-0.1 c 0.1,0.2 0.3,0.3 0.4,0.5 0.2,0.3 0.5,0.6 0.7,0.9 0.1,0.2 0.2,0.4 0.3,0.7 0.1,0.1 0.1,0.3 0.1,0.4 -0.2,0.3 -0.5,0.7 -0.7,1.1 l 0,0.1 c -0.2,0 -0.3,0.1 -0.5,0.1 z m 4.7,0.9 c 0,0.4 -0.2,0.7 -0.4,1 -0.3,0.4 -0.7,0.6 -1.1,0.7 -0.7,0.2 -1.4,0 -1.9,-0.6 -0.2,-0.2 -0.4,-0.5 -0.5,-0.9 -0.1,-0.4 -0.1,-0.7 0.1,-1.1 0.1,-0.1 0.1,-0.2 0.2,-0.3 0.2,-0.2 0.3,-0.4 0.4,-0.6 0.1,-0.2 0.3,-0.4 0.4,-0.6 0.3,-0.3 0.5,-0.6 0.8,-0.9 l 0.1,-0.1 c 0.2,0.2 0.4,0.4 0.5,0.6 0.3,0.4 0.6,0.8 0.9,1.2 0.2,0.3 0.3,0.6 0.5,0.9 l 0,0.7 z"
             class="st17"
             id="path33025" /><path
             style="fill:#333333"
             d="m 101.8,362.6 c -3.6,0 -6.6,3 -6.6,6.6 0,3.6 3,6.6 6.6,6.6 3.6,0 6.6,-3 6.6,-6.6 0,-3.6 -3,-6.6 -6.6,-6.6 z m -5.6,6.6 c 0,-3.1 2.5,-5.6 5.6,-5.6 1.4,0 2.8,0.6 3.7,1.5 l -7.9,7.9 c -0.8,-1 -1.4,-2.3 -1.4,-3.8 z m 5.6,5.6 c -1.3,0 -2.4,-0.4 -3.3,-1.1 l 7.8,-7.8 c 0.7,0.9 1.1,2.1 1.1,3.3 0,3.1 -2.5,5.6 -5.6,5.6 z"
             class="st17"
             id="path33027" /></g></g></g></g></svg>