<?xml version="1.0" encoding="UTF-8" standalone="no"?>
<svg
   xmlns:dc="http://purl.org/dc/elements/1.1/"
   xmlns:cc="http://creativecommons.org/ns#"
   xmlns:rdf="http://www.w3.org/1999/02/22-rdf-syntax-ns#"
   xmlns:svg="http://www.w3.org/2000/svg"
   xmlns="http://www.w3.org/2000/svg"
   viewBox="0 0 310.40869 126.60848"
   x="0px"
   y="0px"
   version="1.1"
   width="310.4151"
   height="126.61131"
   xml:space="preserve"
   id="svg23711"><defs
     id="defs8442" /><metadata
     id="metadata33873"><rdf:RDF><cc:Work
         rdf:about=""><dc:format>image/svg+xml</dc:format><dc:type
           rdf:resource="http://purl.org/dc/dcmitype/StillImage" /><dc:title></dc:title></cc:Work></rdf:RDF></metadata><style
     type="text/css"
     id="style23713">
	.st0{fill:#231F20;}
	.st1{fill:none;stroke:#000000;stroke-width:2;stroke-miterlimit:10;}
	.st2{fill:none;stroke:#000000;stroke-miterlimit:10;}
	.st3{fill:#FFFFFF;stroke:#231F20;stroke-miterlimit:10;}
	.st4{fill:none;stroke:#231F20;stroke-width:0.5;stroke-miterlimit:10;}
	.st5{fill:#FFFFFF;}
	.st6{fill:#FFFFFF;stroke:#231F20;stroke-width:0.5;stroke-miterlimit:10;}
	.st7{fill:none;stroke:#231F20;stroke-width:0.25;stroke-miterlimit:10;}
	.st8{fill:#52B965;}
	.st9{fill:#8D68AC;}
	.st10{fill:#BE1E2D;}
	.st11{fill:#F6EB0F;}
	.st12{fill:#00ADEE;}
	.st13{fill:#D24899;stroke:#6D6E70;stroke-width:0.25;stroke-miterlimit:10;}
	.st14{fill:#D3D3D3;stroke:#000000;stroke-width:0.7087;stroke-linecap:round;stroke-linejoin:round;stroke-miterlimit:10;}
	.st15{fill:#999999;}
	.st16{fill:#E6E7E8;}
	.st17{fill:#333333;}
	.st18{fill:#BBBDBF;}
	.st19{fill:none;stroke:#FF3691;stroke-width:0.9983;stroke-miterlimit:10;}
	.st20{fill:none;stroke:#FF3691;stroke-width:0.9481;stroke-miterlimit:10;}
	.st21{fill:none;stroke:#FF3691;stroke-width:0.98;stroke-miterlimit:10;}
	.st22{fill:none;stroke:#FF3691;stroke-width:0.7637;stroke-miterlimit:10;}
	.st23{fill:none;stroke:#FF3691;stroke-width:0.9781;stroke-miterlimit:10;}
	.st24{fill:none;stroke:#FF3691;stroke-width:0.9067;stroke-miterlimit:10;}
	.st25{fill:none;stroke:#FF3691;stroke-width:0.9028;stroke-miterlimit:10;}
	.st26{fill:none;stroke:#FF3691;stroke-width:0.8385;stroke-miterlimit:10;}
	.st27{fill:none;stroke:#FF3691;stroke-width:0.9046;stroke-miterlimit:10;}
	.st28{fill:none;stroke:#FF3691;stroke-width:1.1178;stroke-miterlimit:10;}
	.st29{fill:none;stroke:#FF3691;stroke-width:1.0975;stroke-miterlimit:10;}
	.st30{fill:none;stroke:#FF3691;stroke-width:1.1075;stroke-miterlimit:10;}
	.st31{fill:#098453;stroke:#231F20;stroke-width:0.25;stroke-miterlimit:10;}
	.st32{fill:#DF2742;stroke:#231F20;stroke-width:0.25;stroke-miterlimit:10;}
	.st33{fill:#EE823C;stroke:#231F20;stroke-width:0.25;stroke-miterlimit:10;}
	.st34{fill:#FCFDFF;}
	.st35{fill:#098453;stroke:#231F20;stroke-width:0.1674;stroke-miterlimit:10;}
</style><g
     transform="translate(-54.14565,-432.34566)"
     id="Appliances"><g
       id="Fans"><g
         id="g30904"><g
           style="image-rendering:auto"
           id="g30968"><path
             style="fill:#d3d3d3;stroke:#000000;stroke-width:0.7087;stroke-linecap:round;stroke-linejoin:round;stroke-miterlimit:10"
             stroke-miterlimit="10"
             class="st14"
             d="m 207.8,445.4 7.8,0 c 1.7,0 3,-1.4 3,-3 l 0,-6.7 c 0,-1.6 -1.3,-3 -3,-3 l -7.8,0 c -1.6,0 -3,1.4 -3,3 l 0,6.7 c 0,1.7 1.4,3 3,3 z"
             id="path30970" /><g
             id="g30972"><circle
               style="fill:#ffffff;stroke:#231f20;stroke-width:0.5;stroke-miterlimit:10"
               class="st6"
               r="6.3000002"
               stroke-miterlimit="10"
               cx="211.7"
               cy="439.10001"
               id="circle30974" /><circle
               style="fill:#999999"
               class="st15"
               r="5.5999999"
               cx="211.7"
               cy="439.10001"
               id="circle30976" /><g
               id="g30978"><path
                 style="fill:#e6e7e8"
                 d="m 211.7,434 c 1.4,0 2.5,0.3 2.5,1.5 0,1.2 -1.4,2.4 -2.4,2.4 -0.9,0 -1.1,-1 -1.8,-1.4 -1,-0.5 -1.6,-2.5 1.7,-2.5 z"
                 class="st16"
                 id="path30980" /><rect
                 style="fill:#333333"
                 x="211.39999"
                 y="435.60001"
                 width="0.5"
                 height="3.4000001"
                 class="st17"
                 id="rect30982" /><g
                 style="fill:#bbbdbf"
                 id="g30984"><circle
                   style="fill:#bbbdbf"
                   class="st18"
                   r="0.1"
                   cx="211.7"
                   cy="436"
                   id="circle30986" /><circle
                   style="fill:#bbbdbf"
                   class="st18"
                   r="0.1"
                   cx="211.7"
                   cy="436.39999"
                   id="circle30988" /><circle
                   style="fill:#bbbdbf"
                   class="st18"
                   r="0.1"
                   cx="211.7"
                   cy="436.70001"
                   id="circle30990" /></g><path
                 style="fill:#e6e7e8"
                 d="m 206.6,439 c 0,-1.4 0.3,-2.5 1.5,-2.5 1.2,0 2.4,1.4 2.4,2.4 0,0.9 -1,1.1 -1.4,1.8 -0.5,1.1 -2.5,1.7 -2.5,-1.7 z"
                 class="st16"
                 id="path30992" /><rect
                 style="fill:#333333"
                 x="208.2"
                 y="438.79999"
                 width="3.4000001"
                 height="0.5"
                 class="st17"
                 id="rect30994" /><g
                 style="fill:#bbbdbf"
                 id="g30996"><circle
                   style="fill:#bbbdbf"
                   class="st18"
                   r="0.1"
                   cx="208.60001"
                   cy="439.10001"
                   id="circle30998" /><circle
                   style="fill:#bbbdbf"
                   class="st18"
                   r="0.1"
                   cx="209"
                   cy="439.10001"
                   id="circle31000" /><circle
                   style="fill:#bbbdbf"
                   class="st18"
                   r="0.1"
                   cx="209.39999"
                   cy="439.10001"
                   id="circle31002" /></g><path
                 style="fill:#e6e7e8"
                 d="m 211.7,444.1 c -1.4,0 -2.5,-0.3 -2.5,-1.5 0,-1.2 1.4,-2.4 2.4,-2.4 0.9,0 1.1,1 1.8,1.4 1,0.6 1.6,2.5 -1.7,2.5 z"
                 class="st16"
                 id="path31004" /><rect
                 style="fill:#333333"
                 x="211.39999"
                 y="439.10001"
                 width="0.5"
                 height="3.4000001"
                 class="st17"
                 id="rect31006" /><g
                 style="fill:#bbbdbf"
                 id="g31008"><circle
                   style="fill:#bbbdbf"
                   class="st18"
                   r="0.1"
                   cx="211.7"
                   cy="442.20001"
                   id="circle31010" /><circle
                   style="fill:#bbbdbf"
                   class="st18"
                   r="0.1"
                   cx="211.7"
                   cy="441.79999"
                   id="circle31012" /><circle
                   style="fill:#bbbdbf"
                   class="st18"
                   r="0.1"
                   cx="211.7"
                   cy="441.39999"
                   id="circle31014" /></g><path
                 style="fill:#e6e7e8"
                 d="m 216.8,439.1 c 0,1.4 -0.3,2.5 -1.5,2.5 -1.2,0 -2.4,-1.4 -2.4,-2.4 0,-0.9 1,-1.1 1.4,-1.8 0.5,-1.1 2.5,-1.6 2.5,1.7 z"
                 class="st16"
                 id="path31016" /><rect
                 style="fill:#333333"
                 x="211.8"
                 y="438.79999"
                 width="3.4000001"
                 height="0.5"
                 class="st17"
                 id="rect31018" /><g
                 style="fill:#bbbdbf"
                 id="g31020"><circle
                   style="fill:#bbbdbf"
                   class="st18"
                   r="0.1"
                   cx="214.8"
                   cy="439.10001"
                   id="circle31022" /><circle
                   style="fill:#bbbdbf"
                   class="st18"
                   r="0.1"
                   cx="214.39999"
                   cy="439.10001"
                   id="circle31024" /><circle
                   style="fill:#bbbdbf"
                   class="st18"
                   r="0.1"
                   cx="214"
                   cy="439.10001"
                   id="circle31026" /></g><circle
                 style="fill:#333333"
                 class="st17"
                 r="0.69999999"
                 cx="211.7"
                 cy="439.10001"
                 id="circle31028" /></g></g></g><g
           id="g30906"><path
             style="fill:#d3d3d3;stroke:#000000;stroke-width:0.7087;stroke-linecap:round;stroke-linejoin:round;stroke-miterlimit:10"
             stroke-miterlimit="10"
             class="st14"
             d="m 57.5,445.4 7.8,0 c 1.7,0 3,-1.4 3,-3 l 0,-6.7 c 0,-1.6 -1.3,-3 -3,-3 l -7.8,0 c -1.7,0 -3,1.4 -3,3 l 0,6.7 c 0,1.7 1.3,3 3,3 z"
             id="path30908" /><g
             id="g30910"><circle
               style="fill:#ffffff;stroke:#231f20;stroke-width:0.5;stroke-miterlimit:10"
               class="st6"
               r="6.3000002"
               stroke-miterlimit="10"
               cx="61.400002"
               cy="439.10001"
               id="circle30912" /><circle
               style="fill:#999999"
               class="st15"
               r="5.5999999"
               cx="61.400002"
               cy="439.10001"
               id="circle30914" /><g
               id="g30916"><path
                 style="fill:#e6e7e8"
                 d="m 61.4,434 c 1.4,0 2.5,0.3 2.5,1.5 0,1.2 -1.4,2.4 -2.4,2.4 -0.9,0 -1.1,-1 -1.8,-1.4 -1.1,-0.5 -1.6,-2.5 1.7,-2.5 z"
                 class="st16"
                 id="path30918" /><rect
                 style="fill:#333333"
                 x="61.099998"
                 y="435.60001"
                 width="0.5"
                 height="3.4000001"
                 class="st17"
                 id="rect30920" /><g
                 style="fill:#bbbdbf"
                 id="g30922"><circle
                   style="fill:#bbbdbf"
                   class="st18"
                   r="0.1"
                   cx="61.400002"
                   cy="436"
                   id="circle30924" /><circle
                   style="fill:#bbbdbf"
                   class="st18"
                   r="0.1"
                   cx="61.400002"
                   cy="436.39999"
                   id="circle30926" /><circle
                   style="fill:#bbbdbf"
                   class="st18"
                   r="0.1"
                   cx="61.400002"
                   cy="436.70001"
                   id="circle30928" /></g><path
                 style="fill:#e6e7e8"
                 d="m 56.3,439 c 0,-1.4 0.3,-2.5 1.5,-2.5 1.2,0 2.4,1.4 2.4,2.4 0,0.9 -1,1.1 -1.4,1.8 -0.6,1.1 -2.5,1.7 -2.5,-1.7 z"
                 class="st16"
                 id="path30930" /><rect
                 style="fill:#333333"
                 x="57.900002"
                 y="438.79999"
                 width="3.4000001"
                 height="0.5"
                 class="st17"
                 id="rect30932" /><g
                 style="fill:#bbbdbf"
                 id="g30934"><circle
                   style="fill:#bbbdbf"
                   class="st18"
                   r="0.1"
                   cx="58.299999"
                   cy="439.10001"
                   id="circle30936" /><circle
                   style="fill:#bbbdbf"
                   class="st18"
                   r="0.1"
                   cx="58.700001"
                   cy="439.10001"
                   id="circle30938" /><circle
                   style="fill:#bbbdbf"
                   class="st18"
                   r="0.1"
                   cx="59"
                   cy="439.10001"
                   id="circle30940" /></g><path
                 style="fill:#e6e7e8"
                 d="m 61.3,444.1 c -1.4,0 -2.5,-0.3 -2.5,-1.5 0,-1.2 1.4,-2.4 2.4,-2.4 0.9,0 1.1,1 1.8,1.4 1.1,0.6 1.7,2.5 -1.7,2.5 z"
                 class="st16"
                 id="path30942" /><rect
                 style="fill:#333333"
                 x="61.099998"
                 y="439.10001"
                 width="0.5"
                 height="3.4000001"
                 class="st17"
                 id="rect30944" /><g
                 style="fill:#bbbdbf"
                 id="g30946"><circle
                   style="fill:#bbbdbf"
                   class="st18"
                   r="0.1"
                   cx="61.400002"
                   cy="442.20001"
                   id="circle30948" /><circle
                   style="fill:#bbbdbf"
                   class="st18"
                   r="0.1"
                   cx="61.400002"
                   cy="441.79999"
                   id="circle30950" /><circle
                   style="fill:#bbbdbf"
                   class="st18"
                   r="0.1"
                   cx="61.400002"
                   cy="441.39999"
                   id="circle30952" /></g><path
                 style="fill:#e6e7e8"
                 d="m 66.4,439.1 c 0,1.4 -0.3,2.5 -1.5,2.5 -1.2,0 -2.4,-1.4 -2.4,-2.4 0,-0.9 1,-1.1 1.4,-1.8 0.6,-1.1 2.5,-1.6 2.5,1.7 z"
                 class="st16"
                 id="path30954" /><rect
                 style="fill:#333333"
                 x="61.400002"
                 y="438.79999"
                 width="3.4000001"
                 height="0.5"
                 class="st17"
                 id="rect30956" /><g
                 style="fill:#bbbdbf"
                 id="g30958"><circle
                   style="fill:#bbbdbf"
                   class="st18"
                   r="0.1"
                   cx="64.400002"
                   cy="439.10001"
                   id="circle30960" /><circle
                   style="fill:#bbbdbf"
                   class="st18"
                   r="0.1"
                   cx="64.099998"
                   cy="439.10001"
                   id="circle30962" /><circle
                   style="fill:#bbbdbf"
                   class="st18"
                   r="0.1"
                   cx="63.700001"
                   cy="439.10001"
                   id="circle30964" /></g><circle
                 style="fill:#333333"
                 class="st17"
                 r="0.69999999"
                 cx="61.400002"
                 cy="439.10001"
                 id="circle30966" /></g></g></g><g
           id="g31030"><path
             style="fill:#d3d3d3;stroke:#000000;stroke-width:0.7087;stroke-linecap:round;stroke-linejoin:round;stroke-miterlimit:10"
             stroke-miterlimit="10"
             class="st14"
             d="m 353.4,445.4 7.8,0 c 1.6,0 3,-1.4 3,-3 l 0,-6.7 c 0,-1.6 -1.4,-3 -3,-3 l -7.8,0 c -1.6,0 -3,1.4 -3,3 l 0,6.7 c 0,1.7 1.4,3 3,3 z"
             id="path31032" /><g
             id="g31034"><circle
               style="fill:#ffffff;stroke:#231f20;stroke-width:0.5;stroke-miterlimit:10"
               class="st6"
               r="6.3000002"
               stroke-miterlimit="10"
               cx="357.29999"
               cy="439.10001"
               id="circle31036" /><circle
               style="fill:#999999"
               class="st15"
               r="5.5999999"
               cx="357.29999"
               cy="439.10001"
               id="circle31038" /><g
               id="g31040"><path
                 style="fill:#e6e7e8"
                 d="m 357.3,434 c 1.4,0 2.5,0.3 2.5,1.5 0,1.2 -1.4,2.4 -2.4,2.4 -0.9,0 -1.1,-1 -1.8,-1.4 -1,-0.5 -1.6,-2.5 1.7,-2.5 z"
                 class="st16"
                 id="path31042" /><rect
                 style="fill:#333333"
                 x="357"
                 y="435.60001"
                 width="0.5"
                 height="3.4000001"
                 class="st17"
                 id="rect31044" /><g
                 style="fill:#bbbdbf"
                 id="g31046"><circle
                   style="fill:#bbbdbf"
                   class="st18"
                   r="0.1"
                   cx="357.29999"
                   cy="436"
                   id="circle31048" /><circle
                   style="fill:#bbbdbf"
                   class="st18"
                   r="0.1"
                   cx="357.29999"
                   cy="436.39999"
                   id="circle31050" /><circle
                   style="fill:#bbbdbf"
                   class="st18"
                   r="0.1"
                   cx="357.29999"
                   cy="436.70001"
                   id="circle31052" /></g><path
                 style="fill:#e6e7e8"
                 d="m 352.2,439 c 0,-1.4 0.3,-2.5 1.5,-2.5 1.2,0 2.4,1.4 2.4,2.4 0,0.9 -1,1.1 -1.4,1.8 -0.5,1.1 -2.5,1.7 -2.5,-1.7 z"
                 class="st16"
                 id="path31054" /><rect
                 style="fill:#333333"
                 x="353.79999"
                 y="438.79999"
                 width="3.4000001"
                 height="0.5"
                 class="st17"
                 id="rect31056" /><g
                 style="fill:#bbbdbf"
                 id="g31058"><circle
                   style="fill:#bbbdbf"
                   class="st18"
                   r="0.1"
                   cx="354.20001"
                   cy="439.10001"
                   id="circle31060" /><circle
                   style="fill:#bbbdbf"
                   class="st18"
                   r="0.1"
                   cx="354.60001"
                   cy="439.10001"
                   id="circle31062" /><circle
                   style="fill:#bbbdbf"
                   class="st18"
                   r="0.1"
                   cx="355"
                   cy="439.10001"
                   id="circle31064" /></g><path
                 style="fill:#e6e7e8"
                 d="m 357.2,444.1 c -1.4,0 -2.5,-0.3 -2.5,-1.5 0,-1.2 1.4,-2.4 2.4,-2.4 0.9,0 1.1,1 1.8,1.4 1.1,0.6 1.7,2.5 -1.7,2.5 z"
                 class="st16"
                 id="path31066" /><rect
                 style="fill:#333333"
                 x="357"
                 y="439.10001"
                 width="0.5"
                 height="3.4000001"
                 class="st17"
                 id="rect31068" /><g
                 style="fill:#bbbdbf"
                 id="g31070"><circle
                   style="fill:#bbbdbf"
                   class="st18"
                   r="0.1"
                   cx="357.29999"
                   cy="442.20001"
                   id="circle31072" /><circle
                   style="fill:#bbbdbf"
                   class="st18"
                   r="0.1"
                   cx="357.29999"
                   cy="441.79999"
                   id="circle31074" /><circle
                   style="fill:#bbbdbf"
                   class="st18"
                   r="0.1"
                   cx="357.29999"
                   cy="441.39999"
                   id="circle31076" /></g><path
                 style="fill:#e6e7e8"
                 d="m 362.3,439.1 c 0,1.4 -0.3,2.5 -1.5,2.5 -1.2,0 -2.4,-1.4 -2.4,-2.4 0,-0.9 1,-1.1 1.4,-1.8 0.6,-1.1 2.5,-1.6 2.5,1.7 z"
                 class="st16"
                 id="path31078" /><rect
                 style="fill:#333333"
                 x="357.29999"
                 y="438.79999"
                 width="3.4000001"
                 height="0.5"
                 class="st17"
                 id="rect31080" /><g
                 style="fill:#bbbdbf"
                 id="g31082"><circle
                   style="fill:#bbbdbf"
                   class="st18"
                   r="0.1"
                   cx="360.39999"
                   cy="439.10001"
                   id="circle31084" /><circle
                   style="fill:#bbbdbf"
                   class="st18"
                   r="0.1"
                   cx="360"
                   cy="439.10001"
                   id="circle31086" /><circle
                   style="fill:#bbbdbf"
                   class="st18"
                   r="0.1"
                   cx="359.60001"
                   cy="439.10001"
                   id="circle31088" /></g><circle
                 style="fill:#333333"
                 class="st17"
                 r="0.69999999"
                 cx="357.29999"
                 cy="439.10001"
                 id="circle31090" /></g></g></g><g
           id="g31092"><path
             style="fill:#d3d3d3;stroke:#000000;stroke-width:0.7087;stroke-linecap:round;stroke-linejoin:round;stroke-miterlimit:10"
             stroke-miterlimit="10"
             class="st14"
             d="m 57.5,558.6 7.8,0 c 1.7,0 3,-1.3 3,-3 l 0,-6.7 c 0,-1.6 -1.3,-3 -3,-3 l -7.8,0 c -1.7,0 -3,1.4 -3,3 l 0,6.7 c 0,1.7 1.3,3 3,3 z"
             id="path31094" /><g
             id="g31096"><circle
               style="fill:#ffffff;stroke:#231f20;stroke-width:0.5;stroke-miterlimit:10"
               class="st6"
               r="6.3000002"
               stroke-miterlimit="10"
               cx="61.400002"
               cy="552.29999"
               id="circle31098" /><circle
               style="fill:#999999"
               class="st15"
               r="5.5999999"
               cx="61.400002"
               cy="552.29999"
               id="circle31100" /><g
               id="g31102"><path
                 style="fill:#e6e7e8"
                 d="m 61.4,547.2 c 1.4,0 2.5,0.3 2.5,1.5 0,1.2 -1.4,2.4 -2.4,2.4 -0.9,0 -1.1,-1 -1.8,-1.4 -1.1,-0.5 -1.6,-2.5 1.7,-2.5 z"
                 class="st16"
                 id="path31104" /><rect
                 style="fill:#333333"
                 x="61.099998"
                 y="548.79999"
                 width="0.5"
                 height="3.4000001"
                 class="st17"
                 id="rect31106" /><g
                 style="fill:#bbbdbf"
                 id="g31108"><circle
                   style="fill:#bbbdbf"
                   class="st18"
                   r="0.1"
                   cx="61.400002"
                   cy="549.20001"
                   id="circle31110" /><circle
                   style="fill:#bbbdbf"
                   class="st18"
                   r="0.1"
                   cx="61.400002"
                   cy="549.59998"
                   id="circle31112" /><circle
                   style="fill:#bbbdbf"
                   class="st18"
                   r="0.1"
                   cx="61.400002"
                   cy="550"
                   id="circle31114" /></g><path
                 style="fill:#e6e7e8"
                 d="m 56.3,552.2 c 0,-1.4 0.3,-2.5 1.5,-2.5 1.2,0 2.4,1.4 2.4,2.4 0,1 -1,1.1 -1.4,1.8 -0.6,1.1 -2.5,1.7 -2.5,-1.7 z"
                 class="st16"
                 id="path31116" /><rect
                 style="fill:#333333"
                 x="57.900002"
                 y="552"
                 width="3.4000001"
                 height="0.5"
                 class="st17"
                 id="rect31118" /><g
                 style="fill:#bbbdbf"
                 id="g31120"><circle
                   style="fill:#bbbdbf"
                   class="st18"
                   r="0.1"
                   cx="58.299999"
                   cy="552.29999"
                   id="circle31122" /><circle
                   style="fill:#bbbdbf"
                   class="st18"
                   r="0.1"
                   cx="58.700001"
                   cy="552.29999"
                   id="circle31124" /><circle
                   style="fill:#bbbdbf"
                   class="st18"
                   r="0.1"
                   cx="59"
                   cy="552.29999"
                   id="circle31126" /></g><path
                 style="fill:#e6e7e8"
                 d="m 61.3,557.3 c -1.4,0 -2.5,-0.3 -2.5,-1.5 0,-1.2 1.4,-2.4 2.4,-2.4 0.9,0 1.1,1 1.8,1.4 1.1,0.6 1.7,2.5 -1.7,2.5 z"
                 class="st16"
                 id="path31128" /><rect
                 style="fill:#333333"
                 x="61.099998"
                 y="552.29999"
                 width="0.5"
                 height="3.4000001"
                 class="st17"
                 id="rect31130" /><g
                 style="fill:#bbbdbf"
                 id="g31132"><circle
                   style="fill:#bbbdbf"
                   class="st18"
                   r="0.1"
                   cx="61.400002"
                   cy="555.40002"
                   id="circle31134" /><circle
                   style="fill:#bbbdbf"
                   class="st18"
                   r="0.1"
                   cx="61.400002"
                   cy="555"
                   id="circle31136" /><circle
                   style="fill:#bbbdbf"
                   class="st18"
                   r="0.1"
                   cx="61.400002"
                   cy="554.59998"
                   id="circle31138" /></g><path
                 style="fill:#e6e7e8"
                 d="m 66.4,552.3 c 0,1.4 -0.3,2.5 -1.5,2.5 -1.2,0 -2.4,-1.4 -2.4,-2.4 0,-0.9 1,-1.1 1.4,-1.8 0.6,-1 2.5,-1.6 2.5,1.7 z"
                 class="st16"
                 id="path31140" /><rect
                 style="fill:#333333"
                 x="61.400002"
                 y="552"
                 width="3.4000001"
                 height="0.5"
                 class="st17"
                 id="rect31142" /><g
                 style="fill:#bbbdbf"
                 id="g31144"><circle
                   style="fill:#bbbdbf"
                   class="st18"
                   r="0.1"
                   cx="64.400002"
                   cy="552.29999"
                   id="circle31146" /><circle
                   style="fill:#bbbdbf"
                   class="st18"
                   r="0.1"
                   cx="64.099998"
                   cy="552.29999"
                   id="circle31148" /><circle
                   style="fill:#bbbdbf"
                   class="st18"
                   r="0.1"
                   cx="63.700001"
                   cy="552.29999"
                   id="circle31150" /></g><circle
                 style="fill:#333333"
                 class="st17"
                 r="0.69999999"
                 cx="61.400002"
                 cy="552.29999"
                 id="circle31152" /></g></g></g><g
           id="g31154"><path
             style="fill:#d3d3d3;stroke:#000000;stroke-width:0.7087;stroke-linecap:round;stroke-linejoin:round;stroke-miterlimit:10"
             stroke-miterlimit="10"
             class="st14"
             d="m 207.8,558.6 7.8,0 c 1.7,0 3,-1.3 3,-3 l 0,-6.7 c 0,-1.6 -1.3,-3 -3,-3 l -7.8,0 c -1.6,0 -3,1.4 -3,3 l 0,6.7 c 0,1.7 1.4,3 3,3 z"
             id="path31156" /><g
             id="g31158"><circle
               style="fill:#ffffff;stroke:#231f20;stroke-width:0.5;stroke-miterlimit:10"
               class="st6"
               r="6.3000002"
               stroke-miterlimit="10"
               cx="211.7"
               cy="552.29999"
               id="circle31160" /><circle
               style="fill:#999999"
               class="st15"
               r="5.5999999"
               cx="211.7"
               cy="552.29999"
               id="circle31162" /><g
               id="g31164"><path
                 style="fill:#e6e7e8"
                 d="m 211.7,547.2 c 1.4,0 2.5,0.3 2.5,1.5 0,1.2 -1.4,2.4 -2.4,2.4 -0.9,0 -1.1,-1 -1.8,-1.4 -1,-0.5 -1.6,-2.5 1.7,-2.5 z"
                 class="st16"
                 id="path31166" /><rect
                 style="fill:#333333"
                 x="211.39999"
                 y="548.79999"
                 width="0.5"
                 height="3.4000001"
                 class="st17"
                 id="rect31168" /><g
                 style="fill:#bbbdbf"
                 id="g31170"><circle
                   style="fill:#bbbdbf"
                   class="st18"
                   r="0.1"
                   cx="211.7"
                   cy="549.20001"
                   id="circle31172" /><circle
                   style="fill:#bbbdbf"
                   class="st18"
                   r="0.1"
                   cx="211.7"
                   cy="549.59998"
                   id="circle31174" /><circle
                   style="fill:#bbbdbf"
                   class="st18"
                   r="0.1"
                   cx="211.7"
                   cy="550"
                   id="circle31176" /></g><path
                 style="fill:#e6e7e8"
                 d="m 206.6,552.2 c 0,-1.4 0.3,-2.5 1.5,-2.5 1.2,0 2.4,1.4 2.4,2.4 0,1 -1,1.1 -1.4,1.8 -0.5,1.1 -2.5,1.7 -2.5,-1.7 z"
                 class="st16"
                 id="path31178" /><rect
                 style="fill:#333333"
                 x="208.2"
                 y="552"
                 width="3.4000001"
                 height="0.5"
                 class="st17"
                 id="rect31180" /><g
                 style="fill:#bbbdbf"
                 id="g31182"><circle
                   style="fill:#bbbdbf"
                   class="st18"
                   r="0.1"
                   cx="208.60001"
                   cy="552.29999"
                   id="circle31184" /><circle
                   style="fill:#bbbdbf"
                   class="st18"
                   r="0.1"
                   cx="209"
                   cy="552.29999"
                   id="circle31186" /><circle
                   style="fill:#bbbdbf"
                   class="st18"
                   r="0.1"
                   cx="209.39999"
                   cy="552.29999"
                   id="circle31188" /></g><path
                 style="fill:#e6e7e8"
                 d="m 211.7,557.3 c -1.4,0 -2.5,-0.3 -2.5,-1.5 0,-1.2 1.4,-2.4 2.4,-2.4 0.9,0 1.1,1 1.8,1.4 1,0.6 1.6,2.5 -1.7,2.5 z"
                 class="st16"
                 id="path31190" /><rect
                 style="fill:#333333"
                 x="211.39999"
                 y="552.29999"
                 width="0.5"
                 height="3.4000001"
                 class="st17"
                 id="rect31192" /><g
                 style="fill:#bbbdbf"
                 id="g31194"><circle
                   style="fill:#bbbdbf"
                   class="st18"
                   r="0.1"
                   cx="211.7"
                   cy="555.40002"
                   id="circle31196" /><circle
                   style="fill:#bbbdbf"
                   class="st18"
                   r="0.1"
                   cx="211.7"
                   cy="555"
                   id="circle31198" /><circle
                   style="fill:#bbbdbf"
                   class="st18"
                   r="0.1"
                   cx="211.7"
                   cy="554.59998"
                   id="circle31200" /></g><path
                 style="fill:#e6e7e8"
                 d="m 216.8,552.3 c 0,1.4 -0.3,2.5 -1.5,2.5 -1.2,0 -2.4,-1.4 -2.4,-2.4 0,-0.9 1,-1.1 1.4,-1.8 0.5,-1 2.5,-1.6 2.5,1.7 z"
                 class="st16"
                 id="path31202" /><rect
                 style="fill:#333333"
                 x="211.8"
                 y="552"
                 width="3.4000001"
                 height="0.5"
                 class="st17"
                 id="rect31204" /><g
                 style="fill:#bbbdbf"
                 id="g31206"><circle
                   style="fill:#bbbdbf"
                   class="st18"
                   r="0.1"
                   cx="214.8"
                   cy="552.29999"
                   id="circle31208" /><circle
                   style="fill:#bbbdbf"
                   class="st18"
                   r="0.1"
                   cx="214.39999"
                   cy="552.29999"
                   id="circle31210" /><circle
                   style="fill:#bbbdbf"
                   class="st18"
                   r="0.1"
                   cx="214"
                   cy="552.29999"
                   id="circle31212" /></g><circle
                 style="fill:#333333"
                 class="st17"
                 r="0.69999999"
                 cx="211.7"
                 cy="552.29999"
                 id="circle31214" /></g></g></g><g
           id="g31216"><path
             style="fill:#d3d3d3;stroke:#000000;stroke-width:0.7087;stroke-linecap:round;stroke-linejoin:round;stroke-miterlimit:10"
             stroke-miterlimit="10"
             class="st14"
             d="m 353.4,558.6 7.8,0 c 1.6,0 3,-1.3 3,-3 l 0,-6.7 c 0,-1.6 -1.4,-3 -3,-3 l -7.8,0 c -1.6,0 -3,1.4 -3,3 l 0,6.7 c 0,1.7 1.4,3 3,3 z"
             id="path31218" /><g
             id="g31220"><circle
               style="fill:#ffffff;stroke:#231f20;stroke-width:0.5;stroke-miterlimit:10"
               class="st6"
               r="6.3000002"
               stroke-miterlimit="10"
               cx="357.29999"
               cy="552.29999"
               id="circle31222" /><circle
               style="fill:#999999"
               class="st15"
               r="5.5999999"
               cx="357.29999"
               cy="552.29999"
               id="circle31224" /><g
               id="g31226"><path
                 style="fill:#e6e7e8"
                 d="m 357.3,547.2 c 1.4,0 2.5,0.3 2.5,1.5 0,1.2 -1.4,2.4 -2.4,2.4 -0.9,0 -1.1,-1 -1.8,-1.4 -1,-0.5 -1.6,-2.5 1.7,-2.5 z"
                 class="st16"
                 id="path31228" /><rect
                 style="fill:#333333"
                 x="357"
                 y="548.79999"
                 width="0.5"
                 height="3.4000001"
                 class="st17"
                 id="rect31230" /><g
                 style="fill:#bbbdbf"
                 id="g31232"><circle
                   style="fill:#bbbdbf"
                   class="st18"
                   r="0.1"
                   cx="357.29999"
                   cy="549.20001"
                   id="circle31234" /><circle
                   style="fill:#bbbdbf"
                   class="st18"
                   r="0.1"
                   cx="357.29999"
                   cy="549.59998"
                   id="circle31236" /><circle
                   style="fill:#bbbdbf"
                   class="st18"
                   r="0.1"
                   cx="357.29999"
                   cy="550"
                   id="circle31238" /></g><path
                 style="fill:#e6e7e8"
                 d="m 352.2,552.2 c 0,-1.4 0.3,-2.5 1.5,-2.5 1.2,0 2.4,1.4 2.4,2.4 0,1 -1,1.1 -1.4,1.8 -0.5,1.1 -2.5,1.7 -2.5,-1.7 z"
                 class="st16"
                 id="path31240" /><rect
                 style="fill:#333333"
                 x="353.79999"
                 y="552"
                 width="3.4000001"
                 height="0.5"
                 class="st17"
                 id="rect31242" /><g
                 style="fill:#bbbdbf"
                 id="g31244"><circle
                   style="fill:#bbbdbf"
                   class="st18"
                   r="0.1"
                   cx="354.20001"
                   cy="552.29999"
                   id="circle31246" /><circle
                   style="fill:#bbbdbf"
                   class="st18"
                   r="0.1"
                   cx="354.60001"
                   cy="552.29999"
                   id="circle31248" /><circle
                   style="fill:#bbbdbf"
                   class="st18"
                   r="0.1"
                   cx="355"
                   cy="552.29999"
                   id="circle31250" /></g><path
                 style="fill:#e6e7e8"
                 d="m 357.2,557.3 c -1.4,0 -2.5,-0.3 -2.5,-1.5 0,-1.2 1.4,-2.4 2.4,-2.4 0.9,0 1.1,1 1.8,1.4 1.1,0.6 1.7,2.5 -1.7,2.5 z"
                 class="st16"
                 id="path31252" /><rect
                 style="fill:#333333"
                 x="357"
                 y="552.29999"
                 width="0.5"
                 height="3.4000001"
                 class="st17"
                 id="rect31254" /><g
                 style="fill:#bbbdbf"
                 id="g31256"><circle
                   style="fill:#bbbdbf"
                   class="st18"
                   r="0.1"
                   cx="357.29999"
                   cy="555.40002"
                   id="circle31258" /><circle
                   style="fill:#bbbdbf"
                   class="st18"
                   r="0.1"
                   cx="357.29999"
                   cy="555"
                   id="circle31260" /><circle
                   style="fill:#bbbdbf"
                   class="st18"
                   r="0.1"
                   cx="357.29999"
                   cy="554.59998"
                   id="circle31262" /></g><path
                 style="fill:#e6e7e8"
                 d="m 362.3,552.3 c 0,1.4 -0.3,2.5 -1.5,2.5 -1.2,0 -2.4,-1.4 -2.4,-2.4 0,-0.9 1,-1.1 1.4,-1.8 0.6,-1 2.5,-1.6 2.5,1.7 z"
                 class="st16"
                 id="path31264" /><rect
                 style="fill:#333333"
                 x="357.29999"
                 y="552"
                 width="3.4000001"
                 height="0.5"
                 class="st17"
                 id="rect31266" /><g
                 style="fill:#bbbdbf"
                 id="g31268"><circle
                   style="fill:#bbbdbf"
                   class="st18"
                   r="0.1"
                   cx="360.39999"
                   cy="552.29999"
                   id="circle31270" /><circle
                   style="fill:#bbbdbf"
                   class="st18"
                   r="0.1"
                   cx="360"
                   cy="552.29999"
                   id="circle31272" /><circle
                   style="fill:#bbbdbf"
                   class="st18"
                   r="0.1"
                   cx="359.60001"
                   cy="552.29999"
                   id="circle31274" /></g><circle
                 style="fill:#333333"
                 class="st17"
                 r="0.69999999"
                 cx="357.29999"
                 cy="552.29999"
                 id="circle31276" /></g></g></g></g></g></g></svg>