%
M48
M72
T01C0.01969
T02C0.02362
T03C0.03937
T04C0.04000
T05C0.04724
T06C0.12598
%
T01
X107250Y203024
X117250Y203024
T02
X18750Y72524
X30750Y92524
X53750Y112024
X66250Y127524
X77750Y157024
X77750Y172024
X76250Y207524
X56250Y207524
X41750Y192024
X42250Y131524
X106250Y122524
X145750Y178524
X127750Y184024
X151250Y207524
X178250Y177524
X178250Y145024
X185250Y113524
X213750Y72524
X151250Y117524
X186250Y227524
X191250Y237524
X196250Y247524
X215750Y293524
X20750Y292524
T03
X63750Y227524
X58750Y217524
X68750Y217524
X73750Y227524
X78750Y217524
X83750Y227524
X88750Y217524
X93750Y227524
X133750Y217524
X138750Y227524
X143750Y217524
X148750Y227524
X153750Y217524
X158750Y227524
X163750Y217524
X168750Y227524
T04
X211250Y227524
X211250Y237524
X211250Y247524
X211250Y257524
X211250Y267524
X211250Y277524
X211250Y207524
X211250Y197524
X211250Y187524
X211250Y177524
X211250Y167524
X211250Y157524
X211250Y147524
X211250Y137524
X21250Y142524
X21250Y152524
X21250Y162524
X21250Y172524
X21250Y182524
X21250Y192524
X21250Y207524
X21250Y217524
X21250Y227524
X21250Y237524
X21250Y247524
X21250Y257524
X21250Y267524
X21250Y277524
X21250Y132524
X21250Y122524
X21250Y112524
X21250Y102524
T05
X66250Y102524
X80030Y102524
X93809Y102524
X107589Y102524
X121368Y102524
X135148Y102524
X148927Y102524
X162707Y102524
T06
X173750Y252524
X128750Y252524
X98750Y252524
X53750Y252524
M30
