G75*
%MOIN*%
%OFA0B0*%
%FSLAX25Y25*%
%IPPOS*%
%LPD*%
%AMOC8*
5,1,8,0,0,1.08239X$1,22.5*
%
%ADD10C,0.00000*%
%ADD11R,0.05118X0.04724*%
%ADD12C,0.07400*%
%ADD13R,0.07400X0.07400*%
%ADD14R,0.01370X0.05500*%
%ADD15R,0.08000X0.08000*%
%ADD16C,0.08000*%
%ADD17R,0.05500X0.04000*%
%ADD18R,0.03962X0.03962*%
%ADD19C,0.00500*%
%ADD20C,0.01000*%
%ADD21C,0.01200*%
%ADD22OC8,0.03569*%
%ADD23R,0.03569X0.03569*%
%ADD24C,0.01600*%
%ADD25OC8,0.03962*%
D10*
X0006250Y0062524D02*
X0006250Y0302484D01*
X0224951Y0302484D01*
X0224951Y0062524D01*
X0006250Y0062524D01*
X0047451Y0252524D02*
X0047453Y0252682D01*
X0047459Y0252840D01*
X0047469Y0252998D01*
X0047483Y0253156D01*
X0047501Y0253313D01*
X0047522Y0253470D01*
X0047548Y0253626D01*
X0047578Y0253782D01*
X0047611Y0253937D01*
X0047649Y0254090D01*
X0047690Y0254243D01*
X0047735Y0254395D01*
X0047784Y0254546D01*
X0047837Y0254695D01*
X0047893Y0254843D01*
X0047953Y0254989D01*
X0048017Y0255134D01*
X0048085Y0255277D01*
X0048156Y0255419D01*
X0048230Y0255559D01*
X0048308Y0255696D01*
X0048390Y0255832D01*
X0048474Y0255966D01*
X0048563Y0256097D01*
X0048654Y0256226D01*
X0048749Y0256353D01*
X0048846Y0256478D01*
X0048947Y0256600D01*
X0049051Y0256719D01*
X0049158Y0256836D01*
X0049268Y0256950D01*
X0049381Y0257061D01*
X0049496Y0257170D01*
X0049614Y0257275D01*
X0049735Y0257377D01*
X0049858Y0257477D01*
X0049984Y0257573D01*
X0050112Y0257666D01*
X0050242Y0257756D01*
X0050375Y0257842D01*
X0050510Y0257926D01*
X0050646Y0258005D01*
X0050785Y0258082D01*
X0050926Y0258154D01*
X0051068Y0258224D01*
X0051212Y0258289D01*
X0051358Y0258351D01*
X0051505Y0258409D01*
X0051654Y0258464D01*
X0051804Y0258515D01*
X0051955Y0258562D01*
X0052107Y0258605D01*
X0052260Y0258644D01*
X0052415Y0258680D01*
X0052570Y0258711D01*
X0052726Y0258739D01*
X0052882Y0258763D01*
X0053039Y0258783D01*
X0053197Y0258799D01*
X0053354Y0258811D01*
X0053513Y0258819D01*
X0053671Y0258823D01*
X0053829Y0258823D01*
X0053987Y0258819D01*
X0054146Y0258811D01*
X0054303Y0258799D01*
X0054461Y0258783D01*
X0054618Y0258763D01*
X0054774Y0258739D01*
X0054930Y0258711D01*
X0055085Y0258680D01*
X0055240Y0258644D01*
X0055393Y0258605D01*
X0055545Y0258562D01*
X0055696Y0258515D01*
X0055846Y0258464D01*
X0055995Y0258409D01*
X0056142Y0258351D01*
X0056288Y0258289D01*
X0056432Y0258224D01*
X0056574Y0258154D01*
X0056715Y0258082D01*
X0056854Y0258005D01*
X0056990Y0257926D01*
X0057125Y0257842D01*
X0057258Y0257756D01*
X0057388Y0257666D01*
X0057516Y0257573D01*
X0057642Y0257477D01*
X0057765Y0257377D01*
X0057886Y0257275D01*
X0058004Y0257170D01*
X0058119Y0257061D01*
X0058232Y0256950D01*
X0058342Y0256836D01*
X0058449Y0256719D01*
X0058553Y0256600D01*
X0058654Y0256478D01*
X0058751Y0256353D01*
X0058846Y0256226D01*
X0058937Y0256097D01*
X0059026Y0255966D01*
X0059110Y0255832D01*
X0059192Y0255696D01*
X0059270Y0255559D01*
X0059344Y0255419D01*
X0059415Y0255277D01*
X0059483Y0255134D01*
X0059547Y0254989D01*
X0059607Y0254843D01*
X0059663Y0254695D01*
X0059716Y0254546D01*
X0059765Y0254395D01*
X0059810Y0254243D01*
X0059851Y0254090D01*
X0059889Y0253937D01*
X0059922Y0253782D01*
X0059952Y0253626D01*
X0059978Y0253470D01*
X0059999Y0253313D01*
X0060017Y0253156D01*
X0060031Y0252998D01*
X0060041Y0252840D01*
X0060047Y0252682D01*
X0060049Y0252524D01*
X0060047Y0252366D01*
X0060041Y0252208D01*
X0060031Y0252050D01*
X0060017Y0251892D01*
X0059999Y0251735D01*
X0059978Y0251578D01*
X0059952Y0251422D01*
X0059922Y0251266D01*
X0059889Y0251111D01*
X0059851Y0250958D01*
X0059810Y0250805D01*
X0059765Y0250653D01*
X0059716Y0250502D01*
X0059663Y0250353D01*
X0059607Y0250205D01*
X0059547Y0250059D01*
X0059483Y0249914D01*
X0059415Y0249771D01*
X0059344Y0249629D01*
X0059270Y0249489D01*
X0059192Y0249352D01*
X0059110Y0249216D01*
X0059026Y0249082D01*
X0058937Y0248951D01*
X0058846Y0248822D01*
X0058751Y0248695D01*
X0058654Y0248570D01*
X0058553Y0248448D01*
X0058449Y0248329D01*
X0058342Y0248212D01*
X0058232Y0248098D01*
X0058119Y0247987D01*
X0058004Y0247878D01*
X0057886Y0247773D01*
X0057765Y0247671D01*
X0057642Y0247571D01*
X0057516Y0247475D01*
X0057388Y0247382D01*
X0057258Y0247292D01*
X0057125Y0247206D01*
X0056990Y0247122D01*
X0056854Y0247043D01*
X0056715Y0246966D01*
X0056574Y0246894D01*
X0056432Y0246824D01*
X0056288Y0246759D01*
X0056142Y0246697D01*
X0055995Y0246639D01*
X0055846Y0246584D01*
X0055696Y0246533D01*
X0055545Y0246486D01*
X0055393Y0246443D01*
X0055240Y0246404D01*
X0055085Y0246368D01*
X0054930Y0246337D01*
X0054774Y0246309D01*
X0054618Y0246285D01*
X0054461Y0246265D01*
X0054303Y0246249D01*
X0054146Y0246237D01*
X0053987Y0246229D01*
X0053829Y0246225D01*
X0053671Y0246225D01*
X0053513Y0246229D01*
X0053354Y0246237D01*
X0053197Y0246249D01*
X0053039Y0246265D01*
X0052882Y0246285D01*
X0052726Y0246309D01*
X0052570Y0246337D01*
X0052415Y0246368D01*
X0052260Y0246404D01*
X0052107Y0246443D01*
X0051955Y0246486D01*
X0051804Y0246533D01*
X0051654Y0246584D01*
X0051505Y0246639D01*
X0051358Y0246697D01*
X0051212Y0246759D01*
X0051068Y0246824D01*
X0050926Y0246894D01*
X0050785Y0246966D01*
X0050646Y0247043D01*
X0050510Y0247122D01*
X0050375Y0247206D01*
X0050242Y0247292D01*
X0050112Y0247382D01*
X0049984Y0247475D01*
X0049858Y0247571D01*
X0049735Y0247671D01*
X0049614Y0247773D01*
X0049496Y0247878D01*
X0049381Y0247987D01*
X0049268Y0248098D01*
X0049158Y0248212D01*
X0049051Y0248329D01*
X0048947Y0248448D01*
X0048846Y0248570D01*
X0048749Y0248695D01*
X0048654Y0248822D01*
X0048563Y0248951D01*
X0048474Y0249082D01*
X0048390Y0249216D01*
X0048308Y0249352D01*
X0048230Y0249489D01*
X0048156Y0249629D01*
X0048085Y0249771D01*
X0048017Y0249914D01*
X0047953Y0250059D01*
X0047893Y0250205D01*
X0047837Y0250353D01*
X0047784Y0250502D01*
X0047735Y0250653D01*
X0047690Y0250805D01*
X0047649Y0250958D01*
X0047611Y0251111D01*
X0047578Y0251266D01*
X0047548Y0251422D01*
X0047522Y0251578D01*
X0047501Y0251735D01*
X0047483Y0251892D01*
X0047469Y0252050D01*
X0047459Y0252208D01*
X0047453Y0252366D01*
X0047451Y0252524D01*
X0092451Y0252524D02*
X0092453Y0252682D01*
X0092459Y0252840D01*
X0092469Y0252998D01*
X0092483Y0253156D01*
X0092501Y0253313D01*
X0092522Y0253470D01*
X0092548Y0253626D01*
X0092578Y0253782D01*
X0092611Y0253937D01*
X0092649Y0254090D01*
X0092690Y0254243D01*
X0092735Y0254395D01*
X0092784Y0254546D01*
X0092837Y0254695D01*
X0092893Y0254843D01*
X0092953Y0254989D01*
X0093017Y0255134D01*
X0093085Y0255277D01*
X0093156Y0255419D01*
X0093230Y0255559D01*
X0093308Y0255696D01*
X0093390Y0255832D01*
X0093474Y0255966D01*
X0093563Y0256097D01*
X0093654Y0256226D01*
X0093749Y0256353D01*
X0093846Y0256478D01*
X0093947Y0256600D01*
X0094051Y0256719D01*
X0094158Y0256836D01*
X0094268Y0256950D01*
X0094381Y0257061D01*
X0094496Y0257170D01*
X0094614Y0257275D01*
X0094735Y0257377D01*
X0094858Y0257477D01*
X0094984Y0257573D01*
X0095112Y0257666D01*
X0095242Y0257756D01*
X0095375Y0257842D01*
X0095510Y0257926D01*
X0095646Y0258005D01*
X0095785Y0258082D01*
X0095926Y0258154D01*
X0096068Y0258224D01*
X0096212Y0258289D01*
X0096358Y0258351D01*
X0096505Y0258409D01*
X0096654Y0258464D01*
X0096804Y0258515D01*
X0096955Y0258562D01*
X0097107Y0258605D01*
X0097260Y0258644D01*
X0097415Y0258680D01*
X0097570Y0258711D01*
X0097726Y0258739D01*
X0097882Y0258763D01*
X0098039Y0258783D01*
X0098197Y0258799D01*
X0098354Y0258811D01*
X0098513Y0258819D01*
X0098671Y0258823D01*
X0098829Y0258823D01*
X0098987Y0258819D01*
X0099146Y0258811D01*
X0099303Y0258799D01*
X0099461Y0258783D01*
X0099618Y0258763D01*
X0099774Y0258739D01*
X0099930Y0258711D01*
X0100085Y0258680D01*
X0100240Y0258644D01*
X0100393Y0258605D01*
X0100545Y0258562D01*
X0100696Y0258515D01*
X0100846Y0258464D01*
X0100995Y0258409D01*
X0101142Y0258351D01*
X0101288Y0258289D01*
X0101432Y0258224D01*
X0101574Y0258154D01*
X0101715Y0258082D01*
X0101854Y0258005D01*
X0101990Y0257926D01*
X0102125Y0257842D01*
X0102258Y0257756D01*
X0102388Y0257666D01*
X0102516Y0257573D01*
X0102642Y0257477D01*
X0102765Y0257377D01*
X0102886Y0257275D01*
X0103004Y0257170D01*
X0103119Y0257061D01*
X0103232Y0256950D01*
X0103342Y0256836D01*
X0103449Y0256719D01*
X0103553Y0256600D01*
X0103654Y0256478D01*
X0103751Y0256353D01*
X0103846Y0256226D01*
X0103937Y0256097D01*
X0104026Y0255966D01*
X0104110Y0255832D01*
X0104192Y0255696D01*
X0104270Y0255559D01*
X0104344Y0255419D01*
X0104415Y0255277D01*
X0104483Y0255134D01*
X0104547Y0254989D01*
X0104607Y0254843D01*
X0104663Y0254695D01*
X0104716Y0254546D01*
X0104765Y0254395D01*
X0104810Y0254243D01*
X0104851Y0254090D01*
X0104889Y0253937D01*
X0104922Y0253782D01*
X0104952Y0253626D01*
X0104978Y0253470D01*
X0104999Y0253313D01*
X0105017Y0253156D01*
X0105031Y0252998D01*
X0105041Y0252840D01*
X0105047Y0252682D01*
X0105049Y0252524D01*
X0105047Y0252366D01*
X0105041Y0252208D01*
X0105031Y0252050D01*
X0105017Y0251892D01*
X0104999Y0251735D01*
X0104978Y0251578D01*
X0104952Y0251422D01*
X0104922Y0251266D01*
X0104889Y0251111D01*
X0104851Y0250958D01*
X0104810Y0250805D01*
X0104765Y0250653D01*
X0104716Y0250502D01*
X0104663Y0250353D01*
X0104607Y0250205D01*
X0104547Y0250059D01*
X0104483Y0249914D01*
X0104415Y0249771D01*
X0104344Y0249629D01*
X0104270Y0249489D01*
X0104192Y0249352D01*
X0104110Y0249216D01*
X0104026Y0249082D01*
X0103937Y0248951D01*
X0103846Y0248822D01*
X0103751Y0248695D01*
X0103654Y0248570D01*
X0103553Y0248448D01*
X0103449Y0248329D01*
X0103342Y0248212D01*
X0103232Y0248098D01*
X0103119Y0247987D01*
X0103004Y0247878D01*
X0102886Y0247773D01*
X0102765Y0247671D01*
X0102642Y0247571D01*
X0102516Y0247475D01*
X0102388Y0247382D01*
X0102258Y0247292D01*
X0102125Y0247206D01*
X0101990Y0247122D01*
X0101854Y0247043D01*
X0101715Y0246966D01*
X0101574Y0246894D01*
X0101432Y0246824D01*
X0101288Y0246759D01*
X0101142Y0246697D01*
X0100995Y0246639D01*
X0100846Y0246584D01*
X0100696Y0246533D01*
X0100545Y0246486D01*
X0100393Y0246443D01*
X0100240Y0246404D01*
X0100085Y0246368D01*
X0099930Y0246337D01*
X0099774Y0246309D01*
X0099618Y0246285D01*
X0099461Y0246265D01*
X0099303Y0246249D01*
X0099146Y0246237D01*
X0098987Y0246229D01*
X0098829Y0246225D01*
X0098671Y0246225D01*
X0098513Y0246229D01*
X0098354Y0246237D01*
X0098197Y0246249D01*
X0098039Y0246265D01*
X0097882Y0246285D01*
X0097726Y0246309D01*
X0097570Y0246337D01*
X0097415Y0246368D01*
X0097260Y0246404D01*
X0097107Y0246443D01*
X0096955Y0246486D01*
X0096804Y0246533D01*
X0096654Y0246584D01*
X0096505Y0246639D01*
X0096358Y0246697D01*
X0096212Y0246759D01*
X0096068Y0246824D01*
X0095926Y0246894D01*
X0095785Y0246966D01*
X0095646Y0247043D01*
X0095510Y0247122D01*
X0095375Y0247206D01*
X0095242Y0247292D01*
X0095112Y0247382D01*
X0094984Y0247475D01*
X0094858Y0247571D01*
X0094735Y0247671D01*
X0094614Y0247773D01*
X0094496Y0247878D01*
X0094381Y0247987D01*
X0094268Y0248098D01*
X0094158Y0248212D01*
X0094051Y0248329D01*
X0093947Y0248448D01*
X0093846Y0248570D01*
X0093749Y0248695D01*
X0093654Y0248822D01*
X0093563Y0248951D01*
X0093474Y0249082D01*
X0093390Y0249216D01*
X0093308Y0249352D01*
X0093230Y0249489D01*
X0093156Y0249629D01*
X0093085Y0249771D01*
X0093017Y0249914D01*
X0092953Y0250059D01*
X0092893Y0250205D01*
X0092837Y0250353D01*
X0092784Y0250502D01*
X0092735Y0250653D01*
X0092690Y0250805D01*
X0092649Y0250958D01*
X0092611Y0251111D01*
X0092578Y0251266D01*
X0092548Y0251422D01*
X0092522Y0251578D01*
X0092501Y0251735D01*
X0092483Y0251892D01*
X0092469Y0252050D01*
X0092459Y0252208D01*
X0092453Y0252366D01*
X0092451Y0252524D01*
X0122451Y0252524D02*
X0122453Y0252682D01*
X0122459Y0252840D01*
X0122469Y0252998D01*
X0122483Y0253156D01*
X0122501Y0253313D01*
X0122522Y0253470D01*
X0122548Y0253626D01*
X0122578Y0253782D01*
X0122611Y0253937D01*
X0122649Y0254090D01*
X0122690Y0254243D01*
X0122735Y0254395D01*
X0122784Y0254546D01*
X0122837Y0254695D01*
X0122893Y0254843D01*
X0122953Y0254989D01*
X0123017Y0255134D01*
X0123085Y0255277D01*
X0123156Y0255419D01*
X0123230Y0255559D01*
X0123308Y0255696D01*
X0123390Y0255832D01*
X0123474Y0255966D01*
X0123563Y0256097D01*
X0123654Y0256226D01*
X0123749Y0256353D01*
X0123846Y0256478D01*
X0123947Y0256600D01*
X0124051Y0256719D01*
X0124158Y0256836D01*
X0124268Y0256950D01*
X0124381Y0257061D01*
X0124496Y0257170D01*
X0124614Y0257275D01*
X0124735Y0257377D01*
X0124858Y0257477D01*
X0124984Y0257573D01*
X0125112Y0257666D01*
X0125242Y0257756D01*
X0125375Y0257842D01*
X0125510Y0257926D01*
X0125646Y0258005D01*
X0125785Y0258082D01*
X0125926Y0258154D01*
X0126068Y0258224D01*
X0126212Y0258289D01*
X0126358Y0258351D01*
X0126505Y0258409D01*
X0126654Y0258464D01*
X0126804Y0258515D01*
X0126955Y0258562D01*
X0127107Y0258605D01*
X0127260Y0258644D01*
X0127415Y0258680D01*
X0127570Y0258711D01*
X0127726Y0258739D01*
X0127882Y0258763D01*
X0128039Y0258783D01*
X0128197Y0258799D01*
X0128354Y0258811D01*
X0128513Y0258819D01*
X0128671Y0258823D01*
X0128829Y0258823D01*
X0128987Y0258819D01*
X0129146Y0258811D01*
X0129303Y0258799D01*
X0129461Y0258783D01*
X0129618Y0258763D01*
X0129774Y0258739D01*
X0129930Y0258711D01*
X0130085Y0258680D01*
X0130240Y0258644D01*
X0130393Y0258605D01*
X0130545Y0258562D01*
X0130696Y0258515D01*
X0130846Y0258464D01*
X0130995Y0258409D01*
X0131142Y0258351D01*
X0131288Y0258289D01*
X0131432Y0258224D01*
X0131574Y0258154D01*
X0131715Y0258082D01*
X0131854Y0258005D01*
X0131990Y0257926D01*
X0132125Y0257842D01*
X0132258Y0257756D01*
X0132388Y0257666D01*
X0132516Y0257573D01*
X0132642Y0257477D01*
X0132765Y0257377D01*
X0132886Y0257275D01*
X0133004Y0257170D01*
X0133119Y0257061D01*
X0133232Y0256950D01*
X0133342Y0256836D01*
X0133449Y0256719D01*
X0133553Y0256600D01*
X0133654Y0256478D01*
X0133751Y0256353D01*
X0133846Y0256226D01*
X0133937Y0256097D01*
X0134026Y0255966D01*
X0134110Y0255832D01*
X0134192Y0255696D01*
X0134270Y0255559D01*
X0134344Y0255419D01*
X0134415Y0255277D01*
X0134483Y0255134D01*
X0134547Y0254989D01*
X0134607Y0254843D01*
X0134663Y0254695D01*
X0134716Y0254546D01*
X0134765Y0254395D01*
X0134810Y0254243D01*
X0134851Y0254090D01*
X0134889Y0253937D01*
X0134922Y0253782D01*
X0134952Y0253626D01*
X0134978Y0253470D01*
X0134999Y0253313D01*
X0135017Y0253156D01*
X0135031Y0252998D01*
X0135041Y0252840D01*
X0135047Y0252682D01*
X0135049Y0252524D01*
X0135047Y0252366D01*
X0135041Y0252208D01*
X0135031Y0252050D01*
X0135017Y0251892D01*
X0134999Y0251735D01*
X0134978Y0251578D01*
X0134952Y0251422D01*
X0134922Y0251266D01*
X0134889Y0251111D01*
X0134851Y0250958D01*
X0134810Y0250805D01*
X0134765Y0250653D01*
X0134716Y0250502D01*
X0134663Y0250353D01*
X0134607Y0250205D01*
X0134547Y0250059D01*
X0134483Y0249914D01*
X0134415Y0249771D01*
X0134344Y0249629D01*
X0134270Y0249489D01*
X0134192Y0249352D01*
X0134110Y0249216D01*
X0134026Y0249082D01*
X0133937Y0248951D01*
X0133846Y0248822D01*
X0133751Y0248695D01*
X0133654Y0248570D01*
X0133553Y0248448D01*
X0133449Y0248329D01*
X0133342Y0248212D01*
X0133232Y0248098D01*
X0133119Y0247987D01*
X0133004Y0247878D01*
X0132886Y0247773D01*
X0132765Y0247671D01*
X0132642Y0247571D01*
X0132516Y0247475D01*
X0132388Y0247382D01*
X0132258Y0247292D01*
X0132125Y0247206D01*
X0131990Y0247122D01*
X0131854Y0247043D01*
X0131715Y0246966D01*
X0131574Y0246894D01*
X0131432Y0246824D01*
X0131288Y0246759D01*
X0131142Y0246697D01*
X0130995Y0246639D01*
X0130846Y0246584D01*
X0130696Y0246533D01*
X0130545Y0246486D01*
X0130393Y0246443D01*
X0130240Y0246404D01*
X0130085Y0246368D01*
X0129930Y0246337D01*
X0129774Y0246309D01*
X0129618Y0246285D01*
X0129461Y0246265D01*
X0129303Y0246249D01*
X0129146Y0246237D01*
X0128987Y0246229D01*
X0128829Y0246225D01*
X0128671Y0246225D01*
X0128513Y0246229D01*
X0128354Y0246237D01*
X0128197Y0246249D01*
X0128039Y0246265D01*
X0127882Y0246285D01*
X0127726Y0246309D01*
X0127570Y0246337D01*
X0127415Y0246368D01*
X0127260Y0246404D01*
X0127107Y0246443D01*
X0126955Y0246486D01*
X0126804Y0246533D01*
X0126654Y0246584D01*
X0126505Y0246639D01*
X0126358Y0246697D01*
X0126212Y0246759D01*
X0126068Y0246824D01*
X0125926Y0246894D01*
X0125785Y0246966D01*
X0125646Y0247043D01*
X0125510Y0247122D01*
X0125375Y0247206D01*
X0125242Y0247292D01*
X0125112Y0247382D01*
X0124984Y0247475D01*
X0124858Y0247571D01*
X0124735Y0247671D01*
X0124614Y0247773D01*
X0124496Y0247878D01*
X0124381Y0247987D01*
X0124268Y0248098D01*
X0124158Y0248212D01*
X0124051Y0248329D01*
X0123947Y0248448D01*
X0123846Y0248570D01*
X0123749Y0248695D01*
X0123654Y0248822D01*
X0123563Y0248951D01*
X0123474Y0249082D01*
X0123390Y0249216D01*
X0123308Y0249352D01*
X0123230Y0249489D01*
X0123156Y0249629D01*
X0123085Y0249771D01*
X0123017Y0249914D01*
X0122953Y0250059D01*
X0122893Y0250205D01*
X0122837Y0250353D01*
X0122784Y0250502D01*
X0122735Y0250653D01*
X0122690Y0250805D01*
X0122649Y0250958D01*
X0122611Y0251111D01*
X0122578Y0251266D01*
X0122548Y0251422D01*
X0122522Y0251578D01*
X0122501Y0251735D01*
X0122483Y0251892D01*
X0122469Y0252050D01*
X0122459Y0252208D01*
X0122453Y0252366D01*
X0122451Y0252524D01*
X0167451Y0252524D02*
X0167453Y0252682D01*
X0167459Y0252840D01*
X0167469Y0252998D01*
X0167483Y0253156D01*
X0167501Y0253313D01*
X0167522Y0253470D01*
X0167548Y0253626D01*
X0167578Y0253782D01*
X0167611Y0253937D01*
X0167649Y0254090D01*
X0167690Y0254243D01*
X0167735Y0254395D01*
X0167784Y0254546D01*
X0167837Y0254695D01*
X0167893Y0254843D01*
X0167953Y0254989D01*
X0168017Y0255134D01*
X0168085Y0255277D01*
X0168156Y0255419D01*
X0168230Y0255559D01*
X0168308Y0255696D01*
X0168390Y0255832D01*
X0168474Y0255966D01*
X0168563Y0256097D01*
X0168654Y0256226D01*
X0168749Y0256353D01*
X0168846Y0256478D01*
X0168947Y0256600D01*
X0169051Y0256719D01*
X0169158Y0256836D01*
X0169268Y0256950D01*
X0169381Y0257061D01*
X0169496Y0257170D01*
X0169614Y0257275D01*
X0169735Y0257377D01*
X0169858Y0257477D01*
X0169984Y0257573D01*
X0170112Y0257666D01*
X0170242Y0257756D01*
X0170375Y0257842D01*
X0170510Y0257926D01*
X0170646Y0258005D01*
X0170785Y0258082D01*
X0170926Y0258154D01*
X0171068Y0258224D01*
X0171212Y0258289D01*
X0171358Y0258351D01*
X0171505Y0258409D01*
X0171654Y0258464D01*
X0171804Y0258515D01*
X0171955Y0258562D01*
X0172107Y0258605D01*
X0172260Y0258644D01*
X0172415Y0258680D01*
X0172570Y0258711D01*
X0172726Y0258739D01*
X0172882Y0258763D01*
X0173039Y0258783D01*
X0173197Y0258799D01*
X0173354Y0258811D01*
X0173513Y0258819D01*
X0173671Y0258823D01*
X0173829Y0258823D01*
X0173987Y0258819D01*
X0174146Y0258811D01*
X0174303Y0258799D01*
X0174461Y0258783D01*
X0174618Y0258763D01*
X0174774Y0258739D01*
X0174930Y0258711D01*
X0175085Y0258680D01*
X0175240Y0258644D01*
X0175393Y0258605D01*
X0175545Y0258562D01*
X0175696Y0258515D01*
X0175846Y0258464D01*
X0175995Y0258409D01*
X0176142Y0258351D01*
X0176288Y0258289D01*
X0176432Y0258224D01*
X0176574Y0258154D01*
X0176715Y0258082D01*
X0176854Y0258005D01*
X0176990Y0257926D01*
X0177125Y0257842D01*
X0177258Y0257756D01*
X0177388Y0257666D01*
X0177516Y0257573D01*
X0177642Y0257477D01*
X0177765Y0257377D01*
X0177886Y0257275D01*
X0178004Y0257170D01*
X0178119Y0257061D01*
X0178232Y0256950D01*
X0178342Y0256836D01*
X0178449Y0256719D01*
X0178553Y0256600D01*
X0178654Y0256478D01*
X0178751Y0256353D01*
X0178846Y0256226D01*
X0178937Y0256097D01*
X0179026Y0255966D01*
X0179110Y0255832D01*
X0179192Y0255696D01*
X0179270Y0255559D01*
X0179344Y0255419D01*
X0179415Y0255277D01*
X0179483Y0255134D01*
X0179547Y0254989D01*
X0179607Y0254843D01*
X0179663Y0254695D01*
X0179716Y0254546D01*
X0179765Y0254395D01*
X0179810Y0254243D01*
X0179851Y0254090D01*
X0179889Y0253937D01*
X0179922Y0253782D01*
X0179952Y0253626D01*
X0179978Y0253470D01*
X0179999Y0253313D01*
X0180017Y0253156D01*
X0180031Y0252998D01*
X0180041Y0252840D01*
X0180047Y0252682D01*
X0180049Y0252524D01*
X0180047Y0252366D01*
X0180041Y0252208D01*
X0180031Y0252050D01*
X0180017Y0251892D01*
X0179999Y0251735D01*
X0179978Y0251578D01*
X0179952Y0251422D01*
X0179922Y0251266D01*
X0179889Y0251111D01*
X0179851Y0250958D01*
X0179810Y0250805D01*
X0179765Y0250653D01*
X0179716Y0250502D01*
X0179663Y0250353D01*
X0179607Y0250205D01*
X0179547Y0250059D01*
X0179483Y0249914D01*
X0179415Y0249771D01*
X0179344Y0249629D01*
X0179270Y0249489D01*
X0179192Y0249352D01*
X0179110Y0249216D01*
X0179026Y0249082D01*
X0178937Y0248951D01*
X0178846Y0248822D01*
X0178751Y0248695D01*
X0178654Y0248570D01*
X0178553Y0248448D01*
X0178449Y0248329D01*
X0178342Y0248212D01*
X0178232Y0248098D01*
X0178119Y0247987D01*
X0178004Y0247878D01*
X0177886Y0247773D01*
X0177765Y0247671D01*
X0177642Y0247571D01*
X0177516Y0247475D01*
X0177388Y0247382D01*
X0177258Y0247292D01*
X0177125Y0247206D01*
X0176990Y0247122D01*
X0176854Y0247043D01*
X0176715Y0246966D01*
X0176574Y0246894D01*
X0176432Y0246824D01*
X0176288Y0246759D01*
X0176142Y0246697D01*
X0175995Y0246639D01*
X0175846Y0246584D01*
X0175696Y0246533D01*
X0175545Y0246486D01*
X0175393Y0246443D01*
X0175240Y0246404D01*
X0175085Y0246368D01*
X0174930Y0246337D01*
X0174774Y0246309D01*
X0174618Y0246285D01*
X0174461Y0246265D01*
X0174303Y0246249D01*
X0174146Y0246237D01*
X0173987Y0246229D01*
X0173829Y0246225D01*
X0173671Y0246225D01*
X0173513Y0246229D01*
X0173354Y0246237D01*
X0173197Y0246249D01*
X0173039Y0246265D01*
X0172882Y0246285D01*
X0172726Y0246309D01*
X0172570Y0246337D01*
X0172415Y0246368D01*
X0172260Y0246404D01*
X0172107Y0246443D01*
X0171955Y0246486D01*
X0171804Y0246533D01*
X0171654Y0246584D01*
X0171505Y0246639D01*
X0171358Y0246697D01*
X0171212Y0246759D01*
X0171068Y0246824D01*
X0170926Y0246894D01*
X0170785Y0246966D01*
X0170646Y0247043D01*
X0170510Y0247122D01*
X0170375Y0247206D01*
X0170242Y0247292D01*
X0170112Y0247382D01*
X0169984Y0247475D01*
X0169858Y0247571D01*
X0169735Y0247671D01*
X0169614Y0247773D01*
X0169496Y0247878D01*
X0169381Y0247987D01*
X0169268Y0248098D01*
X0169158Y0248212D01*
X0169051Y0248329D01*
X0168947Y0248448D01*
X0168846Y0248570D01*
X0168749Y0248695D01*
X0168654Y0248822D01*
X0168563Y0248951D01*
X0168474Y0249082D01*
X0168390Y0249216D01*
X0168308Y0249352D01*
X0168230Y0249489D01*
X0168156Y0249629D01*
X0168085Y0249771D01*
X0168017Y0249914D01*
X0167953Y0250059D01*
X0167893Y0250205D01*
X0167837Y0250353D01*
X0167784Y0250502D01*
X0167735Y0250653D01*
X0167690Y0250805D01*
X0167649Y0250958D01*
X0167611Y0251111D01*
X0167578Y0251266D01*
X0167548Y0251422D01*
X0167522Y0251578D01*
X0167501Y0251735D01*
X0167483Y0251892D01*
X0167469Y0252050D01*
X0167459Y0252208D01*
X0167453Y0252366D01*
X0167451Y0252524D01*
D11*
X0145750Y0162024D03*
X0145750Y0154024D03*
D12*
X0143750Y0217524D03*
X0138750Y0227524D03*
X0133750Y0217524D03*
X0148750Y0227524D03*
X0153750Y0217524D03*
X0158750Y0227524D03*
X0163750Y0217524D03*
X0211250Y0227524D03*
X0211250Y0237524D03*
X0211250Y0247524D03*
X0211250Y0257524D03*
X0211250Y0267524D03*
X0211250Y0277524D03*
X0211250Y0207524D03*
X0211250Y0197524D03*
X0211250Y0187524D03*
X0211250Y0177524D03*
X0211250Y0167524D03*
X0211250Y0157524D03*
X0211250Y0147524D03*
X0211250Y0137524D03*
X0088750Y0217524D03*
X0083750Y0227524D03*
X0078750Y0217524D03*
X0073750Y0227524D03*
X0068750Y0217524D03*
X0063750Y0227524D03*
X0058750Y0217524D03*
X0021250Y0217524D03*
X0021250Y0227524D03*
X0021250Y0237524D03*
X0021250Y0247524D03*
X0021250Y0257524D03*
X0021250Y0267524D03*
X0021250Y0277524D03*
X0021250Y0207524D03*
X0021250Y0192524D03*
X0021250Y0182524D03*
X0021250Y0172524D03*
X0021250Y0162524D03*
X0021250Y0152524D03*
X0021250Y0142524D03*
X0021250Y0132524D03*
X0021250Y0122524D03*
X0021250Y0112524D03*
X0021250Y0102524D03*
D13*
X0093750Y0227524D03*
X0168750Y0227524D03*
D14*
X0127825Y0171917D03*
X0125266Y0171917D03*
X0122707Y0171917D03*
X0120148Y0171917D03*
X0117589Y0171917D03*
X0115030Y0171917D03*
X0112470Y0171917D03*
X0109911Y0171917D03*
X0107352Y0171917D03*
X0104793Y0171917D03*
X0102234Y0171917D03*
X0099675Y0171917D03*
X0099675Y0143130D03*
X0102234Y0143130D03*
X0104793Y0143130D03*
X0107352Y0143130D03*
X0109911Y0143130D03*
X0112470Y0143130D03*
X0115030Y0143130D03*
X0117589Y0143130D03*
X0120148Y0143130D03*
X0122707Y0143130D03*
X0125266Y0143130D03*
X0127825Y0143130D03*
D15*
X0066250Y0102524D03*
D16*
X0080030Y0102524D03*
X0093809Y0102524D03*
X0107589Y0102524D03*
X0121368Y0102524D03*
X0135148Y0102524D03*
X0148927Y0102524D03*
X0162707Y0102524D03*
D17*
X0167750Y0154824D03*
X0167750Y0162224D03*
D18*
X0178250Y0177524D03*
X0151250Y0207524D03*
X0145750Y0178524D03*
X0127750Y0184024D03*
X0106250Y0122524D03*
X0077750Y0172024D03*
X0076250Y0207524D03*
X0056250Y0207524D03*
X0041750Y0192024D03*
X0042250Y0131524D03*
X0053750Y0112024D03*
X0066250Y0127524D03*
X0030750Y0092524D03*
X0151250Y0117524D03*
X0186250Y0227524D03*
X0191250Y0237524D03*
X0196250Y0247524D03*
D19*
X0148750Y0235024D02*
X0148750Y0227524D01*
X0148750Y0235024D02*
X0148250Y0235524D01*
X0116250Y0235524D01*
X0116250Y0204024D01*
X0117250Y0203024D01*
X0107250Y0203024D02*
X0107250Y0172020D01*
X0107352Y0171917D01*
X0104793Y0171917D02*
X0104793Y0198980D01*
X0104750Y0199024D01*
X0036250Y0199024D01*
X0036250Y0216024D01*
X0034750Y0217524D01*
X0021250Y0217524D01*
X0021250Y0207524D02*
X0033750Y0207524D01*
X0033750Y0196524D01*
X0101750Y0196524D01*
X0102234Y0196039D01*
X0102234Y0177008D01*
X0102250Y0177024D01*
X0102234Y0177008D02*
X0102234Y0171917D01*
X0099675Y0171917D02*
X0099569Y0172024D01*
X0077750Y0172024D01*
X0099675Y0143130D02*
X0099750Y0143055D01*
X0099750Y0136024D01*
X0099250Y0135524D01*
X0048750Y0135524D01*
X0048750Y0182024D01*
X0048250Y0182524D01*
X0021250Y0182524D01*
X0021250Y0192524D02*
X0041250Y0192524D01*
X0041750Y0192024D01*
X0048750Y0182524D02*
X0048750Y0182024D01*
X0063750Y0227524D02*
X0063750Y0239524D01*
X0112750Y0239524D01*
X0112750Y0172197D01*
X0112470Y0171917D01*
X0110250Y0172079D02*
X0109911Y0171917D01*
X0110250Y0172079D02*
X0110250Y0235524D01*
X0074250Y0235524D01*
X0073750Y0235024D01*
X0073750Y0227524D01*
X0127750Y0184024D02*
X0127750Y0171992D01*
X0127825Y0171917D01*
X0145750Y0178524D02*
X0145750Y0162024D01*
X0145750Y0154024D02*
X0145750Y0144024D01*
X0144856Y0143130D01*
X0127825Y0143130D01*
X0127825Y0134449D01*
X0128250Y0134024D01*
X0160250Y0134024D01*
X0160250Y0169524D01*
X0160750Y0170024D01*
X0177250Y0170024D01*
X0178250Y0171024D01*
X0178250Y0177524D01*
X0200750Y0177524D01*
X0202250Y0176024D01*
X0202250Y0102524D01*
X0162707Y0102524D01*
X0162707Y0084567D01*
X0162750Y0084524D01*
X0122250Y0084524D01*
X0121368Y0084906D01*
X0121368Y0102524D01*
X0122250Y0084524D02*
X0080250Y0084524D01*
X0080250Y0102303D01*
X0080030Y0102524D01*
X0101750Y0131524D02*
X0102250Y0132024D01*
X0102250Y0141524D01*
X0102234Y0141539D01*
X0102234Y0143130D01*
X0104793Y0143130D02*
X0104793Y0141067D01*
X0104750Y0130524D01*
X0163250Y0130524D01*
X0163250Y0162524D01*
X0167450Y0162524D01*
X0167750Y0162224D01*
X0101750Y0131524D02*
X0042250Y0131524D01*
X0053250Y0112524D02*
X0053750Y0112024D01*
X0053250Y0112524D02*
X0021250Y0112524D01*
D20*
X0021250Y0102524D02*
X0030750Y0092524D01*
X0066250Y0102524D02*
X0066250Y0127524D01*
X0106250Y0122524D02*
X0107589Y0121185D01*
X0107589Y0102524D01*
X0148927Y0102524D02*
X0148927Y0115201D01*
X0151250Y0117524D01*
X0151250Y0207524D02*
X0153750Y0207524D01*
X0153750Y0217524D01*
X0186250Y0227524D02*
X0211250Y0227524D01*
X0211250Y0237524D02*
X0191250Y0237524D01*
X0196250Y0247524D02*
X0211250Y0247524D01*
X0076250Y0215024D02*
X0076250Y0214324D01*
X0076250Y0207524D01*
X0058750Y0210024D02*
X0058750Y0217524D01*
X0058750Y0210024D02*
X0056250Y0207524D01*
D21*
X0076150Y0214324D02*
X0076250Y0214324D01*
X0076150Y0214324D02*
X0078350Y0216524D01*
X0078750Y0217524D01*
D22*
X0117250Y0203024D03*
D23*
X0107250Y0203024D03*
D24*
X0108200Y0206608D02*
X0104720Y0206608D01*
X0103666Y0205553D01*
X0103666Y0201074D01*
X0038300Y0201074D01*
X0038300Y0216873D01*
X0035599Y0219574D01*
X0026354Y0219574D01*
X0025913Y0220639D01*
X0024365Y0222186D01*
X0023551Y0222524D01*
X0024365Y0222861D01*
X0025913Y0224408D01*
X0026750Y0226430D01*
X0026750Y0228618D01*
X0025913Y0230639D01*
X0024365Y0232186D01*
X0023551Y0232524D01*
X0024365Y0232861D01*
X0025913Y0234408D01*
X0026750Y0236430D01*
X0026750Y0238618D01*
X0025913Y0240639D01*
X0024365Y0242186D01*
X0023551Y0242524D01*
X0024365Y0242861D01*
X0025913Y0244408D01*
X0026750Y0246430D01*
X0026750Y0248618D01*
X0025913Y0250639D01*
X0024365Y0252186D01*
X0023551Y0252524D01*
X0024365Y0252861D01*
X0025913Y0254408D01*
X0026750Y0256430D01*
X0026750Y0258618D01*
X0025913Y0260639D01*
X0024365Y0262186D01*
X0023551Y0262524D01*
X0024365Y0262861D01*
X0025913Y0264408D01*
X0026750Y0266430D01*
X0026750Y0268618D01*
X0025913Y0270639D01*
X0024365Y0272186D01*
X0023551Y0272524D01*
X0024365Y0272861D01*
X0025913Y0274408D01*
X0026750Y0276430D01*
X0026750Y0278618D01*
X0025913Y0280639D01*
X0024365Y0282186D01*
X0022344Y0283024D01*
X0020156Y0283024D01*
X0018134Y0282186D01*
X0016587Y0280639D01*
X0015750Y0278618D01*
X0015750Y0276430D01*
X0016587Y0274408D01*
X0018134Y0272861D01*
X0018949Y0272524D01*
X0018134Y0272186D01*
X0016587Y0270639D01*
X0015750Y0268618D01*
X0015750Y0266430D01*
X0016587Y0264408D01*
X0018134Y0262861D01*
X0018949Y0262524D01*
X0018134Y0262186D01*
X0016587Y0260639D01*
X0015750Y0258618D01*
X0015750Y0256430D01*
X0016587Y0254408D01*
X0018134Y0252861D01*
X0018949Y0252524D01*
X0018134Y0252186D01*
X0016587Y0250639D01*
X0015750Y0248618D01*
X0015750Y0246430D01*
X0016587Y0244408D01*
X0018134Y0242861D01*
X0018949Y0242524D01*
X0018134Y0242186D01*
X0016587Y0240639D01*
X0015750Y0238618D01*
X0015750Y0236430D01*
X0016587Y0234408D01*
X0018134Y0232861D01*
X0018949Y0232524D01*
X0018134Y0232186D01*
X0016587Y0230639D01*
X0015750Y0228618D01*
X0015750Y0226430D01*
X0016587Y0224408D01*
X0018134Y0222861D01*
X0018949Y0222524D01*
X0018134Y0222186D01*
X0016587Y0220639D01*
X0015750Y0218618D01*
X0015750Y0216430D01*
X0016587Y0214408D01*
X0018134Y0212861D01*
X0018949Y0212524D01*
X0018134Y0212186D01*
X0016587Y0210639D01*
X0015750Y0208618D01*
X0015750Y0206430D01*
X0016587Y0204408D01*
X0018134Y0202861D01*
X0020156Y0202024D01*
X0022344Y0202024D01*
X0024365Y0202861D01*
X0025913Y0204408D01*
X0026354Y0205474D01*
X0031700Y0205474D01*
X0031700Y0195674D01*
X0032801Y0194574D01*
X0026354Y0194574D01*
X0025913Y0195639D01*
X0024365Y0197186D01*
X0022344Y0198024D01*
X0020156Y0198024D01*
X0018134Y0197186D01*
X0016587Y0195639D01*
X0015750Y0193618D01*
X0015750Y0191430D01*
X0016587Y0189408D01*
X0018134Y0187861D01*
X0018949Y0187524D01*
X0018134Y0187186D01*
X0016587Y0185639D01*
X0015750Y0183618D01*
X0015750Y0181430D01*
X0016587Y0179408D01*
X0018134Y0177861D01*
X0018949Y0177524D01*
X0018134Y0177186D01*
X0016587Y0175639D01*
X0015750Y0173618D01*
X0015750Y0171430D01*
X0016587Y0169408D01*
X0018134Y0167861D01*
X0018949Y0167524D01*
X0018134Y0167186D01*
X0016587Y0165639D01*
X0015750Y0163618D01*
X0015750Y0161430D01*
X0016587Y0159408D01*
X0018134Y0157861D01*
X0018949Y0157524D01*
X0018134Y0157186D01*
X0016587Y0155639D01*
X0015750Y0153618D01*
X0015750Y0151430D01*
X0016587Y0149408D01*
X0018134Y0147861D01*
X0018949Y0147524D01*
X0018134Y0147186D01*
X0016587Y0145639D01*
X0015750Y0143618D01*
X0015750Y0141430D01*
X0016587Y0139408D01*
X0018134Y0137861D01*
X0018949Y0137524D01*
X0018134Y0137186D01*
X0016587Y0135639D01*
X0015750Y0133618D01*
X0015750Y0131430D01*
X0016587Y0129408D01*
X0018134Y0127861D01*
X0018949Y0127524D01*
X0018134Y0127186D01*
X0016587Y0125639D01*
X0015750Y0123618D01*
X0015750Y0121430D01*
X0016587Y0119408D01*
X0018134Y0117861D01*
X0018949Y0117524D01*
X0018134Y0117186D01*
X0016587Y0115639D01*
X0015750Y0113618D01*
X0015750Y0111430D01*
X0016587Y0109408D01*
X0018134Y0107861D01*
X0018949Y0107524D01*
X0018134Y0107186D01*
X0016587Y0105639D01*
X0015750Y0103618D01*
X0015750Y0101430D01*
X0016587Y0099408D01*
X0018134Y0097861D01*
X0020156Y0097024D01*
X0022344Y0097024D01*
X0023032Y0097309D01*
X0026969Y0093164D01*
X0026969Y0089797D01*
X0028023Y0088743D01*
X0033477Y0088743D01*
X0034531Y0089797D01*
X0034531Y0095250D01*
X0033477Y0096305D01*
X0030330Y0096305D01*
X0026359Y0100485D01*
X0026750Y0101430D01*
X0026750Y0103618D01*
X0025913Y0105639D01*
X0024365Y0107186D01*
X0023551Y0107524D01*
X0024365Y0107861D01*
X0025913Y0109408D01*
X0026354Y0110474D01*
X0049969Y0110474D01*
X0049969Y0109297D01*
X0051023Y0108243D01*
X0056477Y0108243D01*
X0057531Y0109297D01*
X0057531Y0114750D01*
X0056477Y0115805D01*
X0051023Y0115805D01*
X0049969Y0114750D01*
X0049969Y0114574D01*
X0026354Y0114574D01*
X0025913Y0115639D01*
X0024365Y0117186D01*
X0023551Y0117524D01*
X0024365Y0117861D01*
X0025913Y0119408D01*
X0026750Y0121430D01*
X0026750Y0123618D01*
X0025913Y0125639D01*
X0024365Y0127186D01*
X0023551Y0127524D01*
X0024365Y0127861D01*
X0025913Y0129408D01*
X0026750Y0131430D01*
X0026750Y0133618D01*
X0025913Y0135639D01*
X0024365Y0137186D01*
X0023551Y0137524D01*
X0024365Y0137861D01*
X0025913Y0139408D01*
X0026750Y0141430D01*
X0026750Y0143618D01*
X0025913Y0145639D01*
X0024365Y0147186D01*
X0023551Y0147524D01*
X0024365Y0147861D01*
X0025913Y0149408D01*
X0026750Y0151430D01*
X0026750Y0153618D01*
X0025913Y0155639D01*
X0024365Y0157186D01*
X0023551Y0157524D01*
X0024365Y0157861D01*
X0025913Y0159408D01*
X0026750Y0161430D01*
X0026750Y0163618D01*
X0025913Y0165639D01*
X0024365Y0167186D01*
X0023551Y0167524D01*
X0024365Y0167861D01*
X0025913Y0169408D01*
X0026750Y0171430D01*
X0026750Y0173618D01*
X0025913Y0175639D01*
X0024365Y0177186D01*
X0023551Y0177524D01*
X0024365Y0177861D01*
X0025913Y0179408D01*
X0026354Y0180474D01*
X0046700Y0180474D01*
X0046700Y0134674D01*
X0047801Y0133574D01*
X0046031Y0133574D01*
X0046031Y0134250D01*
X0044977Y0135305D01*
X0039523Y0135305D01*
X0038469Y0134250D01*
X0038469Y0128797D01*
X0039523Y0127743D01*
X0044977Y0127743D01*
X0046031Y0128797D01*
X0046031Y0129474D01*
X0062469Y0129474D01*
X0062469Y0124797D01*
X0063523Y0123743D01*
X0063950Y0123743D01*
X0063950Y0108324D01*
X0061504Y0108324D01*
X0060450Y0107269D01*
X0060450Y0097778D01*
X0061504Y0096724D01*
X0070996Y0096724D01*
X0072050Y0097778D01*
X0072050Y0107269D01*
X0070996Y0108324D01*
X0068550Y0108324D01*
X0068550Y0123743D01*
X0068977Y0123743D01*
X0070031Y0124797D01*
X0070031Y0129474D01*
X0102599Y0129474D01*
X0102750Y0129624D01*
X0103298Y0129076D01*
X0103892Y0128477D01*
X0103897Y0128477D01*
X0103901Y0128474D01*
X0104746Y0128474D01*
X0105591Y0128470D01*
X0105594Y0128474D01*
X0164099Y0128474D01*
X0165300Y0129674D01*
X0165300Y0151024D01*
X0171246Y0151024D01*
X0172300Y0152078D01*
X0172300Y0157569D01*
X0171346Y0158524D01*
X0172300Y0159478D01*
X0172300Y0164969D01*
X0171246Y0166024D01*
X0164254Y0166024D01*
X0163200Y0164969D01*
X0163200Y0164574D01*
X0162401Y0164574D01*
X0162300Y0164473D01*
X0162300Y0167974D01*
X0178099Y0167974D01*
X0179099Y0168974D01*
X0180300Y0170174D01*
X0180300Y0173743D01*
X0180977Y0173743D01*
X0182031Y0174797D01*
X0182031Y0175474D01*
X0199901Y0175474D01*
X0200200Y0175174D01*
X0200200Y0104574D01*
X0168135Y0104574D01*
X0167624Y0105809D01*
X0165992Y0107441D01*
X0163860Y0108324D01*
X0161553Y0108324D01*
X0159421Y0107441D01*
X0157790Y0105809D01*
X0156907Y0103677D01*
X0156907Y0101370D01*
X0157790Y0099238D01*
X0159421Y0097607D01*
X0160657Y0097095D01*
X0160657Y0086574D01*
X0123418Y0086574D01*
X0123418Y0097095D01*
X0124654Y0097607D01*
X0126285Y0099238D01*
X0127168Y0101370D01*
X0127168Y0103677D01*
X0126285Y0105809D01*
X0124654Y0107441D01*
X0122522Y0108324D01*
X0120214Y0108324D01*
X0118083Y0107441D01*
X0116451Y0105809D01*
X0115568Y0103677D01*
X0115568Y0101370D01*
X0116451Y0099238D01*
X0118083Y0097607D01*
X0119318Y0097095D01*
X0119318Y0086574D01*
X0082300Y0086574D01*
X0082300Y0097186D01*
X0083315Y0097607D01*
X0084947Y0099238D01*
X0085830Y0101370D01*
X0085830Y0103677D01*
X0084947Y0105809D01*
X0083315Y0107441D01*
X0081183Y0108324D01*
X0078876Y0108324D01*
X0076744Y0107441D01*
X0075113Y0105809D01*
X0074230Y0103677D01*
X0074230Y0101370D01*
X0075113Y0099238D01*
X0076744Y0097607D01*
X0078200Y0097004D01*
X0078200Y0083674D01*
X0079401Y0082474D01*
X0121825Y0082474D01*
X0122215Y0082305D01*
X0122641Y0082474D01*
X0163599Y0082474D01*
X0164800Y0083674D01*
X0164800Y0085373D01*
X0164757Y0085416D01*
X0164757Y0097095D01*
X0165992Y0097607D01*
X0167624Y0099238D01*
X0168135Y0100474D01*
X0203099Y0100474D01*
X0204300Y0101674D01*
X0204300Y0176873D01*
X0201599Y0179574D01*
X0182031Y0179574D01*
X0182031Y0180250D01*
X0180977Y0181305D01*
X0175523Y0181305D01*
X0174469Y0180250D01*
X0174469Y0174797D01*
X0175523Y0173743D01*
X0176200Y0173743D01*
X0176200Y0172074D01*
X0159901Y0172074D01*
X0158700Y0170873D01*
X0158200Y0170373D01*
X0158200Y0136074D01*
X0129875Y0136074D01*
X0129875Y0139199D01*
X0130310Y0139634D01*
X0130310Y0141080D01*
X0145705Y0141080D01*
X0146906Y0142281D01*
X0147800Y0143174D01*
X0147800Y0149861D01*
X0149055Y0149861D01*
X0150109Y0150916D01*
X0150109Y0157131D01*
X0149164Y0158077D01*
X0149414Y0158221D01*
X0149749Y0158556D01*
X0149986Y0158967D01*
X0150109Y0159424D01*
X0150109Y0161642D01*
X0146131Y0161642D01*
X0146131Y0162405D01*
X0145369Y0162405D01*
X0145369Y0166186D01*
X0142954Y0166186D01*
X0142496Y0166063D01*
X0142086Y0165826D01*
X0141751Y0165491D01*
X0141514Y0165081D01*
X0141391Y0164623D01*
X0141391Y0162405D01*
X0145369Y0162405D01*
X0145369Y0161642D01*
X0141391Y0161642D01*
X0141391Y0159424D01*
X0141514Y0158967D01*
X0141751Y0158556D01*
X0142086Y0158221D01*
X0142336Y0158077D01*
X0141391Y0157131D01*
X0141391Y0150916D01*
X0142445Y0149861D01*
X0143700Y0149861D01*
X0143700Y0145180D01*
X0130310Y0145180D01*
X0130310Y0146626D01*
X0129255Y0147680D01*
X0098245Y0147680D01*
X0097190Y0146626D01*
X0097190Y0139634D01*
X0097700Y0139124D01*
X0097700Y0137574D01*
X0050800Y0137574D01*
X0050800Y0183373D01*
X0049599Y0184574D01*
X0026354Y0184574D01*
X0025913Y0185639D01*
X0024365Y0187186D01*
X0023551Y0187524D01*
X0024365Y0187861D01*
X0025913Y0189408D01*
X0026354Y0190474D01*
X0037969Y0190474D01*
X0037969Y0189297D01*
X0039023Y0188243D01*
X0044477Y0188243D01*
X0045531Y0189297D01*
X0045531Y0194474D01*
X0100184Y0194474D01*
X0100184Y0176467D01*
X0099675Y0176467D01*
X0098753Y0176467D01*
X0098295Y0176345D01*
X0097885Y0176108D01*
X0097550Y0175773D01*
X0097313Y0175362D01*
X0097190Y0174904D01*
X0097190Y0171917D01*
X0097190Y0168930D01*
X0097313Y0168473D01*
X0097550Y0168062D01*
X0097885Y0167727D01*
X0098295Y0167490D01*
X0098753Y0167367D01*
X0099675Y0167367D01*
X0099675Y0171917D01*
X0099675Y0171917D01*
X0097190Y0171917D01*
X0099675Y0171917D01*
X0099675Y0171917D01*
X0099675Y0167367D01*
X0100597Y0167367D01*
X0100760Y0167411D01*
X0100804Y0167367D01*
X0129255Y0167367D01*
X0130310Y0168422D01*
X0130310Y0175413D01*
X0129800Y0175923D01*
X0129800Y0180243D01*
X0130477Y0180243D01*
X0131531Y0181297D01*
X0131531Y0186750D01*
X0130477Y0187805D01*
X0125023Y0187805D01*
X0123969Y0186750D01*
X0123969Y0181297D01*
X0125023Y0180243D01*
X0125700Y0180243D01*
X0125700Y0176467D01*
X0114800Y0176467D01*
X0114800Y0200405D01*
X0115765Y0199439D01*
X0118735Y0199439D01*
X0120834Y0201539D01*
X0120834Y0204508D01*
X0118735Y0206608D01*
X0118300Y0206608D01*
X0118300Y0233474D01*
X0146700Y0233474D01*
X0146700Y0232628D01*
X0145634Y0232186D01*
X0144087Y0230639D01*
X0143750Y0229825D01*
X0143413Y0230639D01*
X0141865Y0232186D01*
X0139844Y0233024D01*
X0137656Y0233024D01*
X0135634Y0232186D01*
X0134087Y0230639D01*
X0133250Y0228618D01*
X0133250Y0226430D01*
X0134087Y0224408D01*
X0135634Y0222861D01*
X0137656Y0222024D01*
X0139844Y0222024D01*
X0141865Y0222861D01*
X0143413Y0224408D01*
X0143750Y0225223D01*
X0144087Y0224408D01*
X0145634Y0222861D01*
X0147656Y0222024D01*
X0149844Y0222024D01*
X0151865Y0222861D01*
X0153413Y0224408D01*
X0153750Y0225223D01*
X0154087Y0224408D01*
X0155634Y0222861D01*
X0157656Y0222024D01*
X0159844Y0222024D01*
X0161865Y0222861D01*
X0163250Y0224245D01*
X0163250Y0223078D01*
X0163306Y0223022D01*
X0162462Y0222888D01*
X0161639Y0222621D01*
X0160867Y0222228D01*
X0160167Y0221719D01*
X0159555Y0221107D01*
X0159046Y0220406D01*
X0158750Y0219825D01*
X0158413Y0220639D01*
X0156865Y0222186D01*
X0154844Y0223024D01*
X0152656Y0223024D01*
X0150634Y0222186D01*
X0149087Y0220639D01*
X0148750Y0219825D01*
X0148413Y0220639D01*
X0146865Y0222186D01*
X0144844Y0223024D01*
X0142656Y0223024D01*
X0140634Y0222186D01*
X0139087Y0220639D01*
X0138750Y0219825D01*
X0138413Y0220639D01*
X0136865Y0222186D01*
X0134844Y0223024D01*
X0132656Y0223024D01*
X0130634Y0222186D01*
X0129087Y0220639D01*
X0128250Y0218618D01*
X0128250Y0216430D01*
X0129087Y0214408D01*
X0130634Y0212861D01*
X0132656Y0212024D01*
X0134844Y0212024D01*
X0136865Y0212861D01*
X0138413Y0214408D01*
X0138750Y0215223D01*
X0139087Y0214408D01*
X0140634Y0212861D01*
X0142656Y0212024D01*
X0144844Y0212024D01*
X0146865Y0212861D01*
X0148413Y0214408D01*
X0148750Y0215223D01*
X0149087Y0214408D01*
X0150634Y0212861D01*
X0151450Y0212523D01*
X0151450Y0211305D01*
X0148523Y0211305D01*
X0147469Y0210250D01*
X0147469Y0204797D01*
X0148523Y0203743D01*
X0153977Y0203743D01*
X0155031Y0204797D01*
X0155031Y0205552D01*
X0156050Y0206571D01*
X0156050Y0212523D01*
X0156865Y0212861D01*
X0158413Y0214408D01*
X0158750Y0215222D01*
X0159046Y0214641D01*
X0159555Y0213941D01*
X0160167Y0213328D01*
X0160867Y0212820D01*
X0161639Y0212427D01*
X0162462Y0212159D01*
X0163317Y0212024D01*
X0163566Y0212024D01*
X0163566Y0217339D01*
X0163934Y0217339D01*
X0163934Y0212024D01*
X0164183Y0212024D01*
X0165038Y0212159D01*
X0165861Y0212427D01*
X0166633Y0212820D01*
X0167333Y0213328D01*
X0167945Y0213941D01*
X0168454Y0214641D01*
X0168847Y0215412D01*
X0169115Y0216236D01*
X0169250Y0217091D01*
X0169250Y0217339D01*
X0163934Y0217339D01*
X0163934Y0217708D01*
X0169250Y0217708D01*
X0169250Y0217956D01*
X0169115Y0218812D01*
X0168847Y0219635D01*
X0168454Y0220406D01*
X0167945Y0221107D01*
X0167333Y0221719D01*
X0166913Y0222024D01*
X0173196Y0222024D01*
X0174250Y0223078D01*
X0174250Y0231969D01*
X0173196Y0233024D01*
X0164304Y0233024D01*
X0163250Y0231969D01*
X0163250Y0230802D01*
X0161865Y0232186D01*
X0159844Y0233024D01*
X0157656Y0233024D01*
X0155634Y0232186D01*
X0154087Y0230639D01*
X0153750Y0229825D01*
X0153413Y0230639D01*
X0151865Y0232186D01*
X0150800Y0232628D01*
X0150800Y0235873D01*
X0150300Y0236373D01*
X0149099Y0237574D01*
X0115401Y0237574D01*
X0114800Y0236973D01*
X0114800Y0240373D01*
X0113599Y0241574D01*
X0100768Y0241574D01*
X0103034Y0242181D01*
X0105565Y0243642D01*
X0107632Y0245709D01*
X0109093Y0248239D01*
X0109849Y0251062D01*
X0109849Y0253985D01*
X0109093Y0256808D01*
X0107632Y0259339D01*
X0105565Y0261405D01*
X0103034Y0262866D01*
X0100211Y0263623D01*
X0097289Y0263623D01*
X0094466Y0262866D01*
X0091935Y0261405D01*
X0089868Y0259339D01*
X0088407Y0256808D01*
X0087651Y0253985D01*
X0087651Y0251062D01*
X0088407Y0248239D01*
X0089868Y0245709D01*
X0091935Y0243642D01*
X0094466Y0242181D01*
X0096732Y0241574D01*
X0062901Y0241574D01*
X0061700Y0240373D01*
X0061700Y0232628D01*
X0060634Y0232186D01*
X0059087Y0230639D01*
X0058250Y0228618D01*
X0058250Y0226430D01*
X0059087Y0224408D01*
X0060634Y0222861D01*
X0062656Y0222024D01*
X0064844Y0222024D01*
X0066865Y0222861D01*
X0068413Y0224408D01*
X0068750Y0225223D01*
X0069087Y0224408D01*
X0070634Y0222861D01*
X0072656Y0222024D01*
X0074844Y0222024D01*
X0076865Y0222861D01*
X0078413Y0224408D01*
X0078750Y0225223D01*
X0079087Y0224408D01*
X0080634Y0222861D01*
X0082656Y0222024D01*
X0084844Y0222024D01*
X0086865Y0222861D01*
X0088250Y0224245D01*
X0088250Y0223078D01*
X0088306Y0223022D01*
X0087462Y0222888D01*
X0086639Y0222621D01*
X0085867Y0222228D01*
X0085167Y0221719D01*
X0084555Y0221107D01*
X0084046Y0220406D01*
X0083750Y0219825D01*
X0083413Y0220639D01*
X0081865Y0222186D01*
X0079844Y0223024D01*
X0077656Y0223024D01*
X0075634Y0222186D01*
X0074087Y0220639D01*
X0073750Y0219825D01*
X0073454Y0220406D01*
X0072945Y0221107D01*
X0072333Y0221719D01*
X0071633Y0222228D01*
X0070861Y0222621D01*
X0070038Y0222888D01*
X0069183Y0223024D01*
X0068934Y0223024D01*
X0068934Y0217708D01*
X0068566Y0217708D01*
X0068566Y0223024D01*
X0068317Y0223024D01*
X0067462Y0222888D01*
X0066639Y0222621D01*
X0065867Y0222228D01*
X0065167Y0221719D01*
X0064555Y0221107D01*
X0064046Y0220406D01*
X0063750Y0219825D01*
X0063413Y0220639D01*
X0061865Y0222186D01*
X0059844Y0223024D01*
X0057656Y0223024D01*
X0055634Y0222186D01*
X0054087Y0220639D01*
X0053250Y0218618D01*
X0053250Y0216430D01*
X0054087Y0214408D01*
X0055634Y0212861D01*
X0056450Y0212523D01*
X0056450Y0211305D01*
X0053523Y0211305D01*
X0052469Y0210250D01*
X0052469Y0204797D01*
X0053523Y0203743D01*
X0058977Y0203743D01*
X0060031Y0204797D01*
X0060031Y0208052D01*
X0061050Y0209071D01*
X0061050Y0212523D01*
X0061865Y0212861D01*
X0063413Y0214408D01*
X0063750Y0215222D01*
X0064046Y0214641D01*
X0064555Y0213941D01*
X0065167Y0213328D01*
X0065867Y0212820D01*
X0066639Y0212427D01*
X0067462Y0212159D01*
X0068317Y0212024D01*
X0068566Y0212024D01*
X0068566Y0217339D01*
X0068934Y0217339D01*
X0068934Y0212024D01*
X0069183Y0212024D01*
X0070038Y0212159D01*
X0070861Y0212427D01*
X0071633Y0212820D01*
X0072333Y0213328D01*
X0072945Y0213941D01*
X0073454Y0214641D01*
X0073750Y0215222D01*
X0073837Y0215012D01*
X0073750Y0214801D01*
X0073750Y0213846D01*
X0073950Y0213363D01*
X0073950Y0211305D01*
X0073523Y0211305D01*
X0072469Y0210250D01*
X0072469Y0204797D01*
X0073523Y0203743D01*
X0078977Y0203743D01*
X0080031Y0204797D01*
X0080031Y0210250D01*
X0078977Y0211305D01*
X0078550Y0211305D01*
X0078550Y0212024D01*
X0079844Y0212024D01*
X0081865Y0212861D01*
X0083413Y0214408D01*
X0083750Y0215222D01*
X0084046Y0214641D01*
X0084555Y0213941D01*
X0085167Y0213328D01*
X0085867Y0212820D01*
X0086639Y0212427D01*
X0087462Y0212159D01*
X0088317Y0212024D01*
X0088566Y0212024D01*
X0088566Y0217339D01*
X0088934Y0217339D01*
X0088934Y0212024D01*
X0089183Y0212024D01*
X0090038Y0212159D01*
X0090861Y0212427D01*
X0091633Y0212820D01*
X0092333Y0213328D01*
X0092945Y0213941D01*
X0093454Y0214641D01*
X0093847Y0215412D01*
X0094115Y0216236D01*
X0094250Y0217091D01*
X0094250Y0217339D01*
X0088934Y0217339D01*
X0088934Y0217708D01*
X0094250Y0217708D01*
X0094250Y0217956D01*
X0094115Y0218812D01*
X0093847Y0219635D01*
X0093454Y0220406D01*
X0092945Y0221107D01*
X0092333Y0221719D01*
X0091913Y0222024D01*
X0098196Y0222024D01*
X0099250Y0223078D01*
X0099250Y0231969D01*
X0098196Y0233024D01*
X0089304Y0233024D01*
X0088250Y0231969D01*
X0088250Y0230802D01*
X0086865Y0232186D01*
X0084844Y0233024D01*
X0082656Y0233024D01*
X0080634Y0232186D01*
X0079087Y0230639D01*
X0078750Y0229825D01*
X0078413Y0230639D01*
X0076865Y0232186D01*
X0075800Y0232628D01*
X0075800Y0233474D01*
X0108200Y0233474D01*
X0108200Y0206608D01*
X0108200Y0207988D02*
X0080031Y0207988D01*
X0080031Y0206390D02*
X0104502Y0206390D01*
X0103666Y0204791D02*
X0080025Y0204791D01*
X0080031Y0209587D02*
X0108200Y0209587D01*
X0108200Y0211185D02*
X0079096Y0211185D01*
X0081679Y0212784D02*
X0085938Y0212784D01*
X0084234Y0214382D02*
X0083387Y0214382D01*
X0083276Y0220776D02*
X0084315Y0220776D01*
X0085692Y0222375D02*
X0086156Y0222375D01*
X0087978Y0223973D02*
X0088250Y0223973D01*
X0088934Y0217579D02*
X0108200Y0217579D01*
X0108200Y0215981D02*
X0094032Y0215981D01*
X0093266Y0214382D02*
X0108200Y0214382D01*
X0108200Y0212784D02*
X0091562Y0212784D01*
X0088934Y0212784D02*
X0088566Y0212784D01*
X0088566Y0214382D02*
X0088934Y0214382D01*
X0088934Y0215981D02*
X0088566Y0215981D01*
X0093996Y0219178D02*
X0108200Y0219178D01*
X0108200Y0220776D02*
X0093185Y0220776D01*
X0098547Y0222375D02*
X0108200Y0222375D01*
X0108200Y0223973D02*
X0099250Y0223973D01*
X0099250Y0225572D02*
X0108200Y0225572D01*
X0108200Y0227170D02*
X0099250Y0227170D01*
X0099250Y0228769D02*
X0108200Y0228769D01*
X0108200Y0230367D02*
X0099250Y0230367D01*
X0099250Y0231966D02*
X0108200Y0231966D01*
X0114800Y0238360D02*
X0187469Y0238360D01*
X0187469Y0239958D02*
X0114800Y0239958D01*
X0113616Y0241557D02*
X0126794Y0241557D01*
X0127289Y0241424D02*
X0130211Y0241424D01*
X0133034Y0242181D01*
X0135565Y0243642D01*
X0137632Y0245709D01*
X0139093Y0248239D01*
X0139849Y0251062D01*
X0139849Y0253985D01*
X0139093Y0256808D01*
X0137632Y0259339D01*
X0135565Y0261405D01*
X0133034Y0262866D01*
X0130211Y0263623D01*
X0127289Y0263623D01*
X0124466Y0262866D01*
X0121935Y0261405D01*
X0119868Y0259339D01*
X0118407Y0256808D01*
X0117651Y0253985D01*
X0117651Y0251062D01*
X0118407Y0248239D01*
X0119868Y0245709D01*
X0121935Y0243642D01*
X0124466Y0242181D01*
X0127289Y0241424D01*
X0130706Y0241557D02*
X0171794Y0241557D01*
X0172289Y0241424D02*
X0169466Y0242181D01*
X0166935Y0243642D01*
X0164868Y0245709D01*
X0163407Y0248239D01*
X0162651Y0251062D01*
X0162651Y0253985D01*
X0163407Y0256808D01*
X0164868Y0259339D01*
X0166935Y0261405D01*
X0169466Y0262866D01*
X0172289Y0263623D01*
X0175211Y0263623D01*
X0178034Y0262866D01*
X0180565Y0261405D01*
X0182632Y0259339D01*
X0184093Y0256808D01*
X0184849Y0253985D01*
X0184849Y0251062D01*
X0184093Y0248239D01*
X0182632Y0245709D01*
X0180565Y0243642D01*
X0178034Y0242181D01*
X0175211Y0241424D01*
X0172289Y0241424D01*
X0175706Y0241557D02*
X0207505Y0241557D01*
X0208134Y0242186D02*
X0206587Y0240639D01*
X0206250Y0239824D01*
X0195031Y0239824D01*
X0195031Y0240250D01*
X0193977Y0241305D01*
X0188523Y0241305D01*
X0187469Y0240250D01*
X0187469Y0234797D01*
X0188523Y0233743D01*
X0193977Y0233743D01*
X0195031Y0234797D01*
X0195031Y0235224D01*
X0206250Y0235224D01*
X0206587Y0234408D01*
X0208134Y0232861D01*
X0208949Y0232524D01*
X0208134Y0232186D01*
X0206587Y0230639D01*
X0206250Y0229824D01*
X0190031Y0229824D01*
X0190031Y0230250D01*
X0188977Y0231305D01*
X0183523Y0231305D01*
X0182469Y0230250D01*
X0182469Y0224797D01*
X0183523Y0223743D01*
X0188977Y0223743D01*
X0190031Y0224797D01*
X0190031Y0225224D01*
X0206250Y0225224D01*
X0206587Y0224408D01*
X0208134Y0222861D01*
X0210156Y0222024D01*
X0212344Y0222024D01*
X0214365Y0222861D01*
X0215913Y0224408D01*
X0216750Y0226430D01*
X0216750Y0228618D01*
X0215913Y0230639D01*
X0214365Y0232186D01*
X0213551Y0232524D01*
X0214365Y0232861D01*
X0215913Y0234408D01*
X0216750Y0236430D01*
X0216750Y0238618D01*
X0215913Y0240639D01*
X0214365Y0242186D01*
X0213551Y0242524D01*
X0214365Y0242861D01*
X0215913Y0244408D01*
X0216750Y0246430D01*
X0216750Y0248618D01*
X0215913Y0250639D01*
X0214365Y0252186D01*
X0213551Y0252524D01*
X0214365Y0252861D01*
X0215913Y0254408D01*
X0216750Y0256430D01*
X0216750Y0258618D01*
X0215913Y0260639D01*
X0214365Y0262186D01*
X0213551Y0262524D01*
X0214365Y0262861D01*
X0215913Y0264408D01*
X0216750Y0266430D01*
X0216750Y0268618D01*
X0215913Y0270639D01*
X0214365Y0272186D01*
X0213551Y0272524D01*
X0214365Y0272861D01*
X0215913Y0274408D01*
X0216750Y0276430D01*
X0216750Y0278618D01*
X0215913Y0280639D01*
X0214365Y0282186D01*
X0212344Y0283024D01*
X0210156Y0283024D01*
X0208134Y0282186D01*
X0206587Y0280639D01*
X0205750Y0278618D01*
X0205750Y0276430D01*
X0206587Y0274408D01*
X0208134Y0272861D01*
X0208949Y0272524D01*
X0208134Y0272186D01*
X0206587Y0270639D01*
X0205750Y0268618D01*
X0205750Y0266430D01*
X0206587Y0264408D01*
X0208134Y0262861D01*
X0208949Y0262524D01*
X0208134Y0262186D01*
X0206587Y0260639D01*
X0205750Y0258618D01*
X0205750Y0256430D01*
X0206587Y0254408D01*
X0208134Y0252861D01*
X0208949Y0252524D01*
X0208134Y0252186D01*
X0206587Y0250639D01*
X0206250Y0249824D01*
X0200031Y0249824D01*
X0200031Y0250250D01*
X0198977Y0251305D01*
X0193523Y0251305D01*
X0192469Y0250250D01*
X0192469Y0244797D01*
X0193523Y0243743D01*
X0198977Y0243743D01*
X0200031Y0244797D01*
X0200031Y0245224D01*
X0206250Y0245224D01*
X0206587Y0244408D01*
X0208134Y0242861D01*
X0208949Y0242524D01*
X0208134Y0242186D01*
X0207840Y0243155D02*
X0179722Y0243155D01*
X0181677Y0244754D02*
X0192512Y0244754D01*
X0192469Y0246352D02*
X0183003Y0246352D01*
X0183926Y0247951D02*
X0192469Y0247951D01*
X0192469Y0249549D02*
X0184444Y0249549D01*
X0184849Y0251148D02*
X0193367Y0251148D01*
X0199133Y0251148D02*
X0207096Y0251148D01*
X0208411Y0252746D02*
X0184849Y0252746D01*
X0184753Y0254345D02*
X0206650Y0254345D01*
X0205951Y0255943D02*
X0184324Y0255943D01*
X0183669Y0257542D02*
X0205750Y0257542D01*
X0205967Y0259141D02*
X0182746Y0259141D01*
X0181231Y0260739D02*
X0206687Y0260739D01*
X0208500Y0262338D02*
X0178950Y0262338D01*
X0168550Y0262338D02*
X0133950Y0262338D01*
X0136231Y0260739D02*
X0166269Y0260739D01*
X0164754Y0259141D02*
X0137746Y0259141D01*
X0138669Y0257542D02*
X0163831Y0257542D01*
X0163176Y0255943D02*
X0139324Y0255943D01*
X0139753Y0254345D02*
X0162747Y0254345D01*
X0162651Y0252746D02*
X0139849Y0252746D01*
X0139849Y0251148D02*
X0162651Y0251148D01*
X0163056Y0249549D02*
X0139444Y0249549D01*
X0138926Y0247951D02*
X0163574Y0247951D01*
X0164497Y0246352D02*
X0138003Y0246352D01*
X0136677Y0244754D02*
X0165823Y0244754D01*
X0167778Y0243155D02*
X0134722Y0243155D01*
X0135414Y0231966D02*
X0118300Y0231966D01*
X0118300Y0230367D02*
X0133975Y0230367D01*
X0133313Y0228769D02*
X0118300Y0228769D01*
X0118300Y0227170D02*
X0133250Y0227170D01*
X0133605Y0225572D02*
X0118300Y0225572D01*
X0118300Y0223973D02*
X0134522Y0223973D01*
X0136410Y0222375D02*
X0136808Y0222375D01*
X0138276Y0220776D02*
X0139224Y0220776D01*
X0140692Y0222375D02*
X0141090Y0222375D01*
X0142978Y0223973D02*
X0144522Y0223973D01*
X0146410Y0222375D02*
X0146808Y0222375D01*
X0148276Y0220776D02*
X0149224Y0220776D01*
X0150692Y0222375D02*
X0151090Y0222375D01*
X0152978Y0223973D02*
X0154522Y0223973D01*
X0156410Y0222375D02*
X0156808Y0222375D01*
X0158276Y0220776D02*
X0159315Y0220776D01*
X0160692Y0222375D02*
X0161156Y0222375D01*
X0162978Y0223973D02*
X0163250Y0223973D01*
X0168185Y0220776D02*
X0220151Y0220776D01*
X0220151Y0219178D02*
X0168996Y0219178D01*
X0169032Y0215981D02*
X0220151Y0215981D01*
X0220151Y0217579D02*
X0163934Y0217579D01*
X0163934Y0215981D02*
X0163566Y0215981D01*
X0163566Y0214382D02*
X0163934Y0214382D01*
X0163934Y0212784D02*
X0163566Y0212784D01*
X0160938Y0212784D02*
X0156679Y0212784D01*
X0156050Y0211185D02*
X0207133Y0211185D01*
X0206587Y0210639D02*
X0208134Y0212186D01*
X0210156Y0213024D01*
X0212344Y0213024D01*
X0214365Y0212186D01*
X0215913Y0210639D01*
X0216750Y0208618D01*
X0216750Y0206430D01*
X0215913Y0204408D01*
X0214365Y0202861D01*
X0213551Y0202524D01*
X0214365Y0202186D01*
X0215913Y0200639D01*
X0216750Y0198618D01*
X0216750Y0196430D01*
X0215913Y0194408D01*
X0214365Y0192861D01*
X0213551Y0192524D01*
X0214365Y0192186D01*
X0215913Y0190639D01*
X0216750Y0188618D01*
X0216750Y0186430D01*
X0215913Y0184408D01*
X0214365Y0182861D01*
X0213551Y0182524D01*
X0214365Y0182186D01*
X0215913Y0180639D01*
X0216750Y0178618D01*
X0216750Y0176430D01*
X0215913Y0174408D01*
X0214365Y0172861D01*
X0213551Y0172524D01*
X0214365Y0172186D01*
X0215913Y0170639D01*
X0216750Y0168618D01*
X0216750Y0166430D01*
X0215913Y0164408D01*
X0214365Y0162861D01*
X0213551Y0162524D01*
X0214365Y0162186D01*
X0215913Y0160639D01*
X0216750Y0158618D01*
X0216750Y0156430D01*
X0215913Y0154408D01*
X0214365Y0152861D01*
X0213551Y0152524D01*
X0214365Y0152186D01*
X0215913Y0150639D01*
X0216750Y0148618D01*
X0216750Y0146430D01*
X0215913Y0144408D01*
X0214365Y0142861D01*
X0213551Y0142524D01*
X0214365Y0142186D01*
X0215913Y0140639D01*
X0216750Y0138618D01*
X0216750Y0136430D01*
X0215913Y0134408D01*
X0214365Y0132861D01*
X0212344Y0132024D01*
X0210156Y0132024D01*
X0208134Y0132861D01*
X0206587Y0134408D01*
X0205750Y0136430D01*
X0205750Y0138618D01*
X0206587Y0140639D01*
X0208134Y0142186D01*
X0208949Y0142524D01*
X0208134Y0142861D01*
X0206587Y0144408D01*
X0205750Y0146430D01*
X0205750Y0148618D01*
X0206587Y0150639D01*
X0208134Y0152186D01*
X0208949Y0152524D01*
X0208134Y0152861D01*
X0206587Y0154408D01*
X0205750Y0156430D01*
X0205750Y0158618D01*
X0206587Y0160639D01*
X0208134Y0162186D01*
X0208949Y0162524D01*
X0208134Y0162861D01*
X0206587Y0164408D01*
X0205750Y0166430D01*
X0205750Y0168618D01*
X0206587Y0170639D01*
X0208134Y0172186D01*
X0208949Y0172524D01*
X0208134Y0172861D01*
X0206587Y0174408D01*
X0205750Y0176430D01*
X0205750Y0178618D01*
X0206587Y0180639D01*
X0208134Y0182186D01*
X0208949Y0182524D01*
X0208134Y0182861D01*
X0206587Y0184408D01*
X0205750Y0186430D01*
X0205750Y0188618D01*
X0206587Y0190639D01*
X0208134Y0192186D01*
X0208949Y0192524D01*
X0208134Y0192861D01*
X0206587Y0194408D01*
X0205750Y0196430D01*
X0205750Y0198618D01*
X0206587Y0200639D01*
X0208134Y0202186D01*
X0208949Y0202524D01*
X0208134Y0202861D01*
X0206587Y0204408D01*
X0205750Y0206430D01*
X0205750Y0208618D01*
X0206587Y0210639D01*
X0206151Y0209587D02*
X0156050Y0209587D01*
X0156050Y0207988D02*
X0205750Y0207988D01*
X0205767Y0206390D02*
X0155869Y0206390D01*
X0155025Y0204791D02*
X0206429Y0204791D01*
X0207803Y0203193D02*
X0120834Y0203193D01*
X0120834Y0201594D02*
X0207542Y0201594D01*
X0206321Y0199996D02*
X0119291Y0199996D01*
X0115209Y0199996D02*
X0114800Y0199996D01*
X0114800Y0198397D02*
X0205750Y0198397D01*
X0205750Y0196799D02*
X0114800Y0196799D01*
X0114800Y0195200D02*
X0206259Y0195200D01*
X0207394Y0193602D02*
X0114800Y0193602D01*
X0114800Y0192003D02*
X0207951Y0192003D01*
X0206490Y0190405D02*
X0114800Y0190405D01*
X0114800Y0188806D02*
X0205828Y0188806D01*
X0205750Y0187208D02*
X0131074Y0187208D01*
X0131531Y0185609D02*
X0206090Y0185609D01*
X0206985Y0184010D02*
X0131531Y0184010D01*
X0131531Y0182412D02*
X0208679Y0182412D01*
X0206762Y0180813D02*
X0181468Y0180813D01*
X0181654Y0174419D02*
X0200200Y0174419D01*
X0200200Y0172821D02*
X0180300Y0172821D01*
X0180300Y0171222D02*
X0200200Y0171222D01*
X0200200Y0169624D02*
X0179749Y0169624D01*
X0178151Y0168025D02*
X0200200Y0168025D01*
X0200200Y0166427D02*
X0162300Y0166427D01*
X0162300Y0164828D02*
X0163200Y0164828D01*
X0158200Y0164828D02*
X0150054Y0164828D01*
X0150109Y0164623D02*
X0149986Y0165081D01*
X0149749Y0165491D01*
X0149414Y0165826D01*
X0149004Y0166063D01*
X0148546Y0166186D01*
X0146131Y0166186D01*
X0146131Y0162405D01*
X0150109Y0162405D01*
X0150109Y0164623D01*
X0150109Y0163230D02*
X0158200Y0163230D01*
X0158200Y0161631D02*
X0150109Y0161631D01*
X0150109Y0160033D02*
X0158200Y0160033D01*
X0158200Y0158434D02*
X0149628Y0158434D01*
X0150109Y0156836D02*
X0158200Y0156836D01*
X0158200Y0155237D02*
X0150109Y0155237D01*
X0150109Y0153639D02*
X0158200Y0153639D01*
X0158200Y0152040D02*
X0150109Y0152040D01*
X0149635Y0150442D02*
X0158200Y0150442D01*
X0158200Y0148843D02*
X0147800Y0148843D01*
X0147800Y0147245D02*
X0158200Y0147245D01*
X0158200Y0145646D02*
X0147800Y0145646D01*
X0147800Y0144048D02*
X0158200Y0144048D01*
X0158200Y0142449D02*
X0147075Y0142449D01*
X0143700Y0145646D02*
X0130310Y0145646D01*
X0129691Y0147245D02*
X0143700Y0147245D01*
X0143700Y0148843D02*
X0050800Y0148843D01*
X0050800Y0147245D02*
X0097809Y0147245D01*
X0097190Y0145646D02*
X0050800Y0145646D01*
X0050800Y0144048D02*
X0097190Y0144048D01*
X0097190Y0142449D02*
X0050800Y0142449D01*
X0050800Y0140851D02*
X0097190Y0140851D01*
X0097572Y0139252D02*
X0050800Y0139252D01*
X0050800Y0137654D02*
X0097700Y0137654D01*
X0103523Y0126305D02*
X0102469Y0125250D01*
X0102469Y0119797D01*
X0103523Y0118743D01*
X0105289Y0118743D01*
X0105289Y0107849D01*
X0104303Y0107441D01*
X0102672Y0105809D01*
X0101789Y0103677D01*
X0101789Y0101370D01*
X0102672Y0099238D01*
X0104303Y0097607D01*
X0106435Y0096724D01*
X0108742Y0096724D01*
X0110874Y0097607D01*
X0112506Y0099238D01*
X0113389Y0101370D01*
X0113389Y0103677D01*
X0112506Y0105809D01*
X0110874Y0107441D01*
X0109889Y0107849D01*
X0109889Y0119654D01*
X0110031Y0119797D01*
X0110031Y0125250D01*
X0108977Y0126305D01*
X0103523Y0126305D01*
X0102469Y0124866D02*
X0070031Y0124866D01*
X0070031Y0126464D02*
X0200200Y0126464D01*
X0200200Y0124866D02*
X0110031Y0124866D01*
X0110031Y0123267D02*
X0200200Y0123267D01*
X0200200Y0121669D02*
X0110031Y0121669D01*
X0110031Y0120070D02*
X0147469Y0120070D01*
X0147469Y0120250D02*
X0147469Y0116995D01*
X0146627Y0116153D01*
X0146627Y0107849D01*
X0145642Y0107441D01*
X0144010Y0105809D01*
X0143127Y0103677D01*
X0143127Y0101370D01*
X0144010Y0099238D01*
X0145642Y0097607D01*
X0147773Y0096724D01*
X0150081Y0096724D01*
X0152213Y0097607D01*
X0153844Y0099238D01*
X0154727Y0101370D01*
X0154727Y0103677D01*
X0153844Y0105809D01*
X0152213Y0107441D01*
X0151227Y0107849D01*
X0151227Y0113743D01*
X0153977Y0113743D01*
X0155031Y0114797D01*
X0155031Y0120250D01*
X0153977Y0121305D01*
X0148523Y0121305D01*
X0147469Y0120250D01*
X0147469Y0118472D02*
X0109889Y0118472D01*
X0109889Y0116873D02*
X0147347Y0116873D01*
X0146627Y0115274D02*
X0109889Y0115274D01*
X0109889Y0113676D02*
X0146627Y0113676D01*
X0146627Y0112077D02*
X0109889Y0112077D01*
X0109889Y0110479D02*
X0146627Y0110479D01*
X0146627Y0108880D02*
X0109889Y0108880D01*
X0111033Y0107282D02*
X0117924Y0107282D01*
X0116399Y0105683D02*
X0112558Y0105683D01*
X0113220Y0104085D02*
X0115737Y0104085D01*
X0115568Y0102486D02*
X0113389Y0102486D01*
X0113189Y0100888D02*
X0115768Y0100888D01*
X0116430Y0099289D02*
X0112527Y0099289D01*
X0110958Y0097691D02*
X0117998Y0097691D01*
X0119318Y0096092D02*
X0082300Y0096092D01*
X0082300Y0094494D02*
X0119318Y0094494D01*
X0119318Y0092895D02*
X0082300Y0092895D01*
X0082300Y0091297D02*
X0119318Y0091297D01*
X0119318Y0089698D02*
X0082300Y0089698D01*
X0082300Y0088100D02*
X0119318Y0088100D01*
X0123418Y0088100D02*
X0160657Y0088100D01*
X0160657Y0089698D02*
X0123418Y0089698D01*
X0123418Y0091297D02*
X0160657Y0091297D01*
X0160657Y0092895D02*
X0123418Y0092895D01*
X0123418Y0094494D02*
X0160657Y0094494D01*
X0160657Y0096092D02*
X0123418Y0096092D01*
X0124738Y0097691D02*
X0131932Y0097691D01*
X0132108Y0097563D02*
X0132921Y0097149D01*
X0133789Y0096866D01*
X0134691Y0096724D01*
X0134767Y0096724D01*
X0134767Y0102142D01*
X0135529Y0102142D01*
X0135529Y0096724D01*
X0135604Y0096724D01*
X0136506Y0096866D01*
X0137374Y0097149D01*
X0138188Y0097563D01*
X0138926Y0098100D01*
X0139572Y0098745D01*
X0140108Y0099484D01*
X0140523Y0100297D01*
X0140805Y0101165D01*
X0140948Y0102067D01*
X0140948Y0102142D01*
X0135529Y0102142D01*
X0135529Y0102905D01*
X0140948Y0102905D01*
X0140948Y0102980D01*
X0140805Y0103882D01*
X0140523Y0104750D01*
X0140108Y0105563D01*
X0139572Y0106302D01*
X0138926Y0106948D01*
X0138188Y0107484D01*
X0137374Y0107899D01*
X0136506Y0108181D01*
X0135604Y0108324D01*
X0135529Y0108324D01*
X0135529Y0102905D01*
X0134767Y0102905D01*
X0134767Y0108324D01*
X0134691Y0108324D01*
X0133789Y0108181D01*
X0132921Y0107899D01*
X0132108Y0107484D01*
X0131369Y0106948D01*
X0130724Y0106302D01*
X0130187Y0105563D01*
X0129773Y0104750D01*
X0129490Y0103882D01*
X0129348Y0102980D01*
X0129348Y0102905D01*
X0134766Y0102905D01*
X0134766Y0102142D01*
X0129348Y0102142D01*
X0129348Y0102067D01*
X0129490Y0101165D01*
X0129773Y0100297D01*
X0130187Y0099484D01*
X0130724Y0098745D01*
X0131369Y0098100D01*
X0132108Y0097563D01*
X0130328Y0099289D02*
X0126306Y0099289D01*
X0126968Y0100888D02*
X0129581Y0100888D01*
X0127168Y0102486D02*
X0134766Y0102486D01*
X0135529Y0102486D02*
X0143127Y0102486D01*
X0143296Y0104085D02*
X0140739Y0104085D01*
X0140021Y0105683D02*
X0143958Y0105683D01*
X0145483Y0107282D02*
X0138466Y0107282D01*
X0135529Y0107282D02*
X0134767Y0107282D01*
X0134767Y0105683D02*
X0135529Y0105683D01*
X0135529Y0104085D02*
X0134767Y0104085D01*
X0134767Y0100888D02*
X0135529Y0100888D01*
X0135529Y0099289D02*
X0134767Y0099289D01*
X0134767Y0097691D02*
X0135529Y0097691D01*
X0138363Y0097691D02*
X0145557Y0097691D01*
X0143989Y0099289D02*
X0139967Y0099289D01*
X0140715Y0100888D02*
X0143327Y0100888D01*
X0152297Y0097691D02*
X0159337Y0097691D01*
X0157768Y0099289D02*
X0153865Y0099289D01*
X0154527Y0100888D02*
X0157106Y0100888D01*
X0156907Y0102486D02*
X0154727Y0102486D01*
X0154558Y0104085D02*
X0157076Y0104085D01*
X0157738Y0105683D02*
X0153896Y0105683D01*
X0152371Y0107282D02*
X0159263Y0107282D01*
X0166151Y0107282D02*
X0200200Y0107282D01*
X0200200Y0108880D02*
X0151227Y0108880D01*
X0151227Y0110479D02*
X0200200Y0110479D01*
X0200200Y0112077D02*
X0151227Y0112077D01*
X0151227Y0113676D02*
X0200200Y0113676D01*
X0200200Y0115274D02*
X0155031Y0115274D01*
X0155031Y0116873D02*
X0200200Y0116873D01*
X0200200Y0118472D02*
X0155031Y0118472D01*
X0155031Y0120070D02*
X0200200Y0120070D01*
X0204300Y0120070D02*
X0220151Y0120070D01*
X0220151Y0118472D02*
X0204300Y0118472D01*
X0204300Y0116873D02*
X0220151Y0116873D01*
X0220151Y0115274D02*
X0204300Y0115274D01*
X0204300Y0113676D02*
X0220151Y0113676D01*
X0220151Y0112077D02*
X0204300Y0112077D01*
X0204300Y0110479D02*
X0220151Y0110479D01*
X0220151Y0108880D02*
X0204300Y0108880D01*
X0204300Y0107282D02*
X0220151Y0107282D01*
X0220151Y0105683D02*
X0204300Y0105683D01*
X0204300Y0104085D02*
X0220151Y0104085D01*
X0220151Y0102486D02*
X0204300Y0102486D01*
X0203513Y0100888D02*
X0220151Y0100888D01*
X0220151Y0099289D02*
X0167645Y0099289D01*
X0166076Y0097691D02*
X0220151Y0097691D01*
X0220151Y0096092D02*
X0164757Y0096092D01*
X0164757Y0094494D02*
X0220151Y0094494D01*
X0220151Y0092895D02*
X0164757Y0092895D01*
X0164757Y0091297D02*
X0220151Y0091297D01*
X0220151Y0089698D02*
X0164757Y0089698D01*
X0164757Y0088100D02*
X0220151Y0088100D01*
X0220151Y0086501D02*
X0164757Y0086501D01*
X0164800Y0084903D02*
X0220151Y0084903D01*
X0220151Y0083304D02*
X0164430Y0083304D01*
X0167676Y0105683D02*
X0200200Y0105683D01*
X0204300Y0121669D02*
X0220151Y0121669D01*
X0220151Y0123267D02*
X0204300Y0123267D01*
X0204300Y0124866D02*
X0220151Y0124866D01*
X0220151Y0126464D02*
X0204300Y0126464D01*
X0204300Y0128063D02*
X0220151Y0128063D01*
X0220151Y0129661D02*
X0204300Y0129661D01*
X0204300Y0131260D02*
X0220151Y0131260D01*
X0220151Y0132858D02*
X0214359Y0132858D01*
X0215933Y0134457D02*
X0220151Y0134457D01*
X0220151Y0136055D02*
X0216595Y0136055D01*
X0216750Y0137654D02*
X0220151Y0137654D01*
X0220151Y0139252D02*
X0216487Y0139252D01*
X0215701Y0140851D02*
X0220151Y0140851D01*
X0220151Y0142449D02*
X0213731Y0142449D01*
X0215552Y0144048D02*
X0220151Y0144048D01*
X0220151Y0145646D02*
X0216425Y0145646D01*
X0216750Y0147245D02*
X0220151Y0147245D01*
X0220151Y0148843D02*
X0216657Y0148843D01*
X0215994Y0150442D02*
X0220151Y0150442D01*
X0220151Y0152040D02*
X0214512Y0152040D01*
X0215143Y0153639D02*
X0220151Y0153639D01*
X0220151Y0155237D02*
X0216256Y0155237D01*
X0216750Y0156836D02*
X0220151Y0156836D01*
X0220151Y0158434D02*
X0216750Y0158434D01*
X0216164Y0160033D02*
X0220151Y0160033D01*
X0220151Y0161631D02*
X0214920Y0161631D01*
X0214734Y0163230D02*
X0220151Y0163230D01*
X0220151Y0164828D02*
X0216087Y0164828D01*
X0216749Y0166427D02*
X0220151Y0166427D01*
X0220151Y0168025D02*
X0216750Y0168025D01*
X0216333Y0169624D02*
X0220151Y0169624D01*
X0220151Y0171222D02*
X0215329Y0171222D01*
X0214269Y0172821D02*
X0220151Y0172821D01*
X0220151Y0174419D02*
X0215917Y0174419D01*
X0216579Y0176018D02*
X0220151Y0176018D01*
X0220151Y0177616D02*
X0216750Y0177616D01*
X0216503Y0179215D02*
X0220151Y0179215D01*
X0220151Y0180813D02*
X0215738Y0180813D01*
X0213821Y0182412D02*
X0220151Y0182412D01*
X0220151Y0184010D02*
X0215515Y0184010D01*
X0216410Y0185609D02*
X0220151Y0185609D01*
X0220151Y0187208D02*
X0216750Y0187208D01*
X0216672Y0188806D02*
X0220151Y0188806D01*
X0220151Y0190405D02*
X0216010Y0190405D01*
X0214549Y0192003D02*
X0220151Y0192003D01*
X0220151Y0193602D02*
X0215106Y0193602D01*
X0216241Y0195200D02*
X0220151Y0195200D01*
X0220151Y0196799D02*
X0216750Y0196799D01*
X0216750Y0198397D02*
X0220151Y0198397D01*
X0220151Y0199996D02*
X0216179Y0199996D01*
X0214958Y0201594D02*
X0220151Y0201594D01*
X0220151Y0203193D02*
X0214697Y0203193D01*
X0216071Y0204791D02*
X0220151Y0204791D01*
X0220151Y0206390D02*
X0216733Y0206390D01*
X0216750Y0207988D02*
X0220151Y0207988D01*
X0220151Y0209587D02*
X0216349Y0209587D01*
X0215367Y0211185D02*
X0220151Y0211185D01*
X0220151Y0212784D02*
X0212923Y0212784D01*
X0209577Y0212784D02*
X0166562Y0212784D01*
X0168266Y0214382D02*
X0220151Y0214382D01*
X0220151Y0222375D02*
X0213192Y0222375D01*
X0215478Y0223973D02*
X0220151Y0223973D01*
X0220151Y0225572D02*
X0216395Y0225572D01*
X0216750Y0227170D02*
X0220151Y0227170D01*
X0220151Y0228769D02*
X0216687Y0228769D01*
X0216025Y0230367D02*
X0220151Y0230367D01*
X0220151Y0231966D02*
X0214586Y0231966D01*
X0215069Y0233564D02*
X0220151Y0233564D01*
X0220151Y0235163D02*
X0216225Y0235163D01*
X0216750Y0236761D02*
X0220151Y0236761D01*
X0220151Y0238360D02*
X0216750Y0238360D01*
X0216195Y0239958D02*
X0220151Y0239958D01*
X0220151Y0241557D02*
X0214995Y0241557D01*
X0214660Y0243155D02*
X0220151Y0243155D01*
X0220151Y0244754D02*
X0216056Y0244754D01*
X0216718Y0246352D02*
X0220151Y0246352D01*
X0220151Y0247951D02*
X0216750Y0247951D01*
X0216364Y0249549D02*
X0220151Y0249549D01*
X0220151Y0251148D02*
X0215404Y0251148D01*
X0214089Y0252746D02*
X0220151Y0252746D01*
X0220151Y0254345D02*
X0215850Y0254345D01*
X0216549Y0255943D02*
X0220151Y0255943D01*
X0220151Y0257542D02*
X0216750Y0257542D01*
X0216533Y0259141D02*
X0220151Y0259141D01*
X0220151Y0260739D02*
X0215813Y0260739D01*
X0214000Y0262338D02*
X0220151Y0262338D01*
X0220151Y0263936D02*
X0215441Y0263936D01*
X0216379Y0265535D02*
X0220151Y0265535D01*
X0220151Y0267133D02*
X0216750Y0267133D01*
X0216703Y0268732D02*
X0220151Y0268732D01*
X0220151Y0270330D02*
X0216041Y0270330D01*
X0214623Y0271929D02*
X0220151Y0271929D01*
X0220151Y0273527D02*
X0215032Y0273527D01*
X0216210Y0275126D02*
X0220151Y0275126D01*
X0220151Y0276724D02*
X0216750Y0276724D01*
X0216750Y0278323D02*
X0220151Y0278323D01*
X0220151Y0279921D02*
X0216210Y0279921D01*
X0215032Y0281520D02*
X0220151Y0281520D01*
X0220151Y0283118D02*
X0011050Y0283118D01*
X0011050Y0281520D02*
X0017468Y0281520D01*
X0016290Y0279921D02*
X0011050Y0279921D01*
X0011050Y0278323D02*
X0015750Y0278323D01*
X0015750Y0276724D02*
X0011050Y0276724D01*
X0011050Y0275126D02*
X0016290Y0275126D01*
X0017468Y0273527D02*
X0011050Y0273527D01*
X0011050Y0271929D02*
X0017877Y0271929D01*
X0016459Y0270330D02*
X0011050Y0270330D01*
X0011050Y0268732D02*
X0015797Y0268732D01*
X0015750Y0267133D02*
X0011050Y0267133D01*
X0011050Y0265535D02*
X0016121Y0265535D01*
X0017059Y0263936D02*
X0011050Y0263936D01*
X0011050Y0262338D02*
X0018500Y0262338D01*
X0016687Y0260739D02*
X0011050Y0260739D01*
X0011050Y0259141D02*
X0015967Y0259141D01*
X0015750Y0257542D02*
X0011050Y0257542D01*
X0011050Y0255943D02*
X0015951Y0255943D01*
X0016650Y0254345D02*
X0011050Y0254345D01*
X0011050Y0252746D02*
X0018411Y0252746D01*
X0017096Y0251148D02*
X0011050Y0251148D01*
X0011050Y0249549D02*
X0016136Y0249549D01*
X0015750Y0247951D02*
X0011050Y0247951D01*
X0011050Y0246352D02*
X0015782Y0246352D01*
X0016444Y0244754D02*
X0011050Y0244754D01*
X0011050Y0243155D02*
X0017840Y0243155D01*
X0017505Y0241557D02*
X0011050Y0241557D01*
X0011050Y0239958D02*
X0016305Y0239958D01*
X0015750Y0238360D02*
X0011050Y0238360D01*
X0011050Y0236761D02*
X0015750Y0236761D01*
X0016275Y0235163D02*
X0011050Y0235163D01*
X0011050Y0233564D02*
X0017431Y0233564D01*
X0017914Y0231966D02*
X0011050Y0231966D01*
X0011050Y0230367D02*
X0016475Y0230367D01*
X0015813Y0228769D02*
X0011050Y0228769D01*
X0011050Y0227170D02*
X0015750Y0227170D01*
X0016105Y0225572D02*
X0011050Y0225572D01*
X0011050Y0223973D02*
X0017022Y0223973D01*
X0018590Y0222375D02*
X0011050Y0222375D01*
X0011050Y0220776D02*
X0016724Y0220776D01*
X0015982Y0219178D02*
X0011050Y0219178D01*
X0011050Y0217579D02*
X0015750Y0217579D01*
X0015936Y0215981D02*
X0011050Y0215981D01*
X0011050Y0214382D02*
X0016613Y0214382D01*
X0018321Y0212784D02*
X0011050Y0212784D01*
X0011050Y0211185D02*
X0017133Y0211185D01*
X0016151Y0209587D02*
X0011050Y0209587D01*
X0011050Y0207988D02*
X0015750Y0207988D01*
X0015767Y0206390D02*
X0011050Y0206390D01*
X0011050Y0204791D02*
X0016429Y0204791D01*
X0017803Y0203193D02*
X0011050Y0203193D01*
X0011050Y0201594D02*
X0031700Y0201594D01*
X0031700Y0199996D02*
X0011050Y0199996D01*
X0011050Y0198397D02*
X0031700Y0198397D01*
X0031700Y0196799D02*
X0024753Y0196799D01*
X0026095Y0195200D02*
X0032174Y0195200D01*
X0037969Y0190405D02*
X0026325Y0190405D01*
X0025311Y0188806D02*
X0038460Y0188806D01*
X0045040Y0188806D02*
X0100184Y0188806D01*
X0100184Y0187208D02*
X0024314Y0187208D01*
X0025925Y0185609D02*
X0100184Y0185609D01*
X0100184Y0184010D02*
X0050162Y0184010D01*
X0050800Y0182412D02*
X0100184Y0182412D01*
X0100184Y0180813D02*
X0050800Y0180813D01*
X0050800Y0179215D02*
X0100184Y0179215D01*
X0100184Y0177616D02*
X0050800Y0177616D01*
X0050800Y0176018D02*
X0097795Y0176018D01*
X0097190Y0174419D02*
X0050800Y0174419D01*
X0050800Y0172821D02*
X0097190Y0172821D01*
X0097190Y0171222D02*
X0050800Y0171222D01*
X0050800Y0169624D02*
X0097190Y0169624D01*
X0097587Y0168025D02*
X0050800Y0168025D01*
X0050800Y0166427D02*
X0158200Y0166427D01*
X0158200Y0168025D02*
X0129913Y0168025D01*
X0130310Y0169624D02*
X0158200Y0169624D01*
X0159050Y0171222D02*
X0130310Y0171222D01*
X0130310Y0172821D02*
X0176200Y0172821D01*
X0174846Y0174419D02*
X0130310Y0174419D01*
X0129800Y0176018D02*
X0174469Y0176018D01*
X0174469Y0177616D02*
X0129800Y0177616D01*
X0129800Y0179215D02*
X0174469Y0179215D01*
X0175032Y0180813D02*
X0131048Y0180813D01*
X0125700Y0179215D02*
X0114800Y0179215D01*
X0114800Y0180813D02*
X0124452Y0180813D01*
X0123969Y0182412D02*
X0114800Y0182412D01*
X0114800Y0184010D02*
X0123969Y0184010D01*
X0123969Y0185609D02*
X0114800Y0185609D01*
X0114800Y0187208D02*
X0124426Y0187208D01*
X0125700Y0177616D02*
X0114800Y0177616D01*
X0100184Y0190405D02*
X0045531Y0190405D01*
X0045531Y0192003D02*
X0100184Y0192003D01*
X0100184Y0193602D02*
X0045531Y0193602D01*
X0038300Y0201594D02*
X0103666Y0201594D01*
X0103666Y0203193D02*
X0038300Y0203193D01*
X0038300Y0204791D02*
X0052475Y0204791D01*
X0052469Y0206390D02*
X0038300Y0206390D01*
X0038300Y0207988D02*
X0052469Y0207988D01*
X0052469Y0209587D02*
X0038300Y0209587D01*
X0038300Y0211185D02*
X0053404Y0211185D01*
X0054113Y0214382D02*
X0038300Y0214382D01*
X0038300Y0212784D02*
X0055821Y0212784D01*
X0060031Y0207988D02*
X0072469Y0207988D01*
X0072469Y0206390D02*
X0060031Y0206390D01*
X0060025Y0204791D02*
X0072475Y0204791D01*
X0072469Y0209587D02*
X0061050Y0209587D01*
X0061050Y0211185D02*
X0073404Y0211185D01*
X0073950Y0212784D02*
X0071562Y0212784D01*
X0073266Y0214382D02*
X0073750Y0214382D01*
X0068934Y0214382D02*
X0068566Y0214382D01*
X0068566Y0212784D02*
X0068934Y0212784D01*
X0065938Y0212784D02*
X0061679Y0212784D01*
X0063387Y0214382D02*
X0064234Y0214382D01*
X0068566Y0215981D02*
X0068934Y0215981D01*
X0068934Y0219178D02*
X0068566Y0219178D01*
X0068566Y0220776D02*
X0068934Y0220776D01*
X0068934Y0222375D02*
X0068566Y0222375D01*
X0067978Y0223973D02*
X0069522Y0223973D01*
X0071344Y0222375D02*
X0071808Y0222375D01*
X0073185Y0220776D02*
X0074224Y0220776D01*
X0075692Y0222375D02*
X0076090Y0222375D01*
X0077978Y0223973D02*
X0079522Y0223973D01*
X0081410Y0222375D02*
X0081808Y0222375D01*
X0078975Y0230367D02*
X0078525Y0230367D01*
X0077086Y0231966D02*
X0080414Y0231966D01*
X0087086Y0231966D02*
X0088250Y0231966D01*
X0092778Y0243155D02*
X0059722Y0243155D01*
X0060565Y0243642D02*
X0062632Y0245709D01*
X0064093Y0248239D01*
X0064849Y0251062D01*
X0064849Y0253985D01*
X0064093Y0256808D01*
X0062632Y0259339D01*
X0060565Y0261405D01*
X0058034Y0262866D01*
X0055211Y0263623D01*
X0052289Y0263623D01*
X0049466Y0262866D01*
X0046935Y0261405D01*
X0044868Y0259339D01*
X0043407Y0256808D01*
X0042651Y0253985D01*
X0042651Y0251062D01*
X0043407Y0248239D01*
X0044868Y0245709D01*
X0046935Y0243642D01*
X0049466Y0242181D01*
X0052289Y0241424D01*
X0055211Y0241424D01*
X0058034Y0242181D01*
X0060565Y0243642D01*
X0061677Y0244754D02*
X0090823Y0244754D01*
X0089497Y0246352D02*
X0063003Y0246352D01*
X0063926Y0247951D02*
X0088574Y0247951D01*
X0088056Y0249549D02*
X0064444Y0249549D01*
X0064849Y0251148D02*
X0087651Y0251148D01*
X0087651Y0252746D02*
X0064849Y0252746D01*
X0064753Y0254345D02*
X0087747Y0254345D01*
X0088176Y0255943D02*
X0064324Y0255943D01*
X0063669Y0257542D02*
X0088831Y0257542D01*
X0089754Y0259141D02*
X0062746Y0259141D01*
X0061231Y0260739D02*
X0091269Y0260739D01*
X0093550Y0262338D02*
X0058950Y0262338D01*
X0048550Y0262338D02*
X0024000Y0262338D01*
X0025441Y0263936D02*
X0207059Y0263936D01*
X0206121Y0265535D02*
X0026379Y0265535D01*
X0026750Y0267133D02*
X0205750Y0267133D01*
X0205797Y0268732D02*
X0026703Y0268732D01*
X0026041Y0270330D02*
X0206459Y0270330D01*
X0207877Y0271929D02*
X0024623Y0271929D01*
X0025032Y0273527D02*
X0207468Y0273527D01*
X0206290Y0275126D02*
X0026210Y0275126D01*
X0026750Y0276724D02*
X0205750Y0276724D01*
X0205750Y0278323D02*
X0026750Y0278323D01*
X0026210Y0279921D02*
X0206290Y0279921D01*
X0207468Y0281520D02*
X0025032Y0281520D01*
X0011050Y0284717D02*
X0220151Y0284717D01*
X0220151Y0286315D02*
X0011050Y0286315D01*
X0011050Y0287914D02*
X0220151Y0287914D01*
X0220151Y0289512D02*
X0011050Y0289512D01*
X0011050Y0291111D02*
X0220151Y0291111D01*
X0220151Y0292709D02*
X0011050Y0292709D01*
X0011050Y0294308D02*
X0220151Y0294308D01*
X0220151Y0295906D02*
X0011050Y0295906D01*
X0011050Y0297505D02*
X0220151Y0297505D01*
X0220151Y0297684D02*
X0011050Y0297684D01*
X0011050Y0067324D01*
X0220151Y0067324D01*
X0220151Y0297684D01*
X0206444Y0244754D02*
X0199988Y0244754D01*
X0195031Y0239958D02*
X0206305Y0239958D01*
X0206275Y0235163D02*
X0195031Y0235163D01*
X0189914Y0230367D02*
X0206475Y0230367D01*
X0207914Y0231966D02*
X0174250Y0231966D01*
X0174250Y0230367D02*
X0182586Y0230367D01*
X0182469Y0228769D02*
X0174250Y0228769D01*
X0174250Y0227170D02*
X0182469Y0227170D01*
X0182469Y0225572D02*
X0174250Y0225572D01*
X0174250Y0223973D02*
X0183293Y0223973D01*
X0189207Y0223973D02*
X0207022Y0223973D01*
X0209308Y0222375D02*
X0173547Y0222375D01*
X0163250Y0231966D02*
X0162086Y0231966D01*
X0155414Y0231966D02*
X0152086Y0231966D01*
X0150800Y0233564D02*
X0207431Y0233564D01*
X0187469Y0235163D02*
X0150800Y0235163D01*
X0149911Y0236761D02*
X0187469Y0236761D01*
X0159234Y0214382D02*
X0158387Y0214382D01*
X0150821Y0212784D02*
X0146679Y0212784D01*
X0148387Y0214382D02*
X0149113Y0214382D01*
X0148404Y0211185D02*
X0118300Y0211185D01*
X0118300Y0209587D02*
X0147469Y0209587D01*
X0147469Y0207988D02*
X0118300Y0207988D01*
X0118953Y0206390D02*
X0147469Y0206390D01*
X0147475Y0204791D02*
X0120551Y0204791D01*
X0118300Y0212784D02*
X0130821Y0212784D01*
X0129113Y0214382D02*
X0118300Y0214382D01*
X0118300Y0215981D02*
X0128436Y0215981D01*
X0128250Y0217579D02*
X0118300Y0217579D01*
X0118300Y0219178D02*
X0128482Y0219178D01*
X0129224Y0220776D02*
X0118300Y0220776D01*
X0118300Y0222375D02*
X0131090Y0222375D01*
X0138387Y0214382D02*
X0139113Y0214382D01*
X0140821Y0212784D02*
X0136679Y0212784D01*
X0143525Y0230367D02*
X0143975Y0230367D01*
X0145414Y0231966D02*
X0142086Y0231966D01*
X0153525Y0230367D02*
X0153975Y0230367D01*
X0123550Y0262338D02*
X0103950Y0262338D01*
X0106231Y0260739D02*
X0121269Y0260739D01*
X0119754Y0259141D02*
X0107746Y0259141D01*
X0108669Y0257542D02*
X0118831Y0257542D01*
X0118176Y0255943D02*
X0109324Y0255943D01*
X0109753Y0254345D02*
X0117747Y0254345D01*
X0117651Y0252746D02*
X0109849Y0252746D01*
X0109849Y0251148D02*
X0117651Y0251148D01*
X0118056Y0249549D02*
X0109444Y0249549D01*
X0108926Y0247951D02*
X0118574Y0247951D01*
X0119497Y0246352D02*
X0108003Y0246352D01*
X0106677Y0244754D02*
X0120823Y0244754D01*
X0122778Y0243155D02*
X0104722Y0243155D01*
X0066156Y0222375D02*
X0065692Y0222375D01*
X0064315Y0220776D02*
X0063276Y0220776D01*
X0061808Y0222375D02*
X0061410Y0222375D01*
X0059522Y0223973D02*
X0025478Y0223973D01*
X0026395Y0225572D02*
X0058605Y0225572D01*
X0058250Y0227170D02*
X0026750Y0227170D01*
X0026687Y0228769D02*
X0058313Y0228769D01*
X0058975Y0230367D02*
X0026025Y0230367D01*
X0024586Y0231966D02*
X0060414Y0231966D01*
X0061700Y0233564D02*
X0025069Y0233564D01*
X0026225Y0235163D02*
X0061700Y0235163D01*
X0061700Y0236761D02*
X0026750Y0236761D01*
X0026750Y0238360D02*
X0061700Y0238360D01*
X0061700Y0239958D02*
X0026195Y0239958D01*
X0024995Y0241557D02*
X0051794Y0241557D01*
X0055706Y0241557D02*
X0062884Y0241557D01*
X0056090Y0222375D02*
X0023910Y0222375D01*
X0025776Y0220776D02*
X0054224Y0220776D01*
X0053482Y0219178D02*
X0035995Y0219178D01*
X0037594Y0217579D02*
X0053250Y0217579D01*
X0053436Y0215981D02*
X0038300Y0215981D01*
X0031700Y0204791D02*
X0026071Y0204791D01*
X0024697Y0203193D02*
X0031700Y0203193D01*
X0017747Y0196799D02*
X0011050Y0196799D01*
X0011050Y0195200D02*
X0016405Y0195200D01*
X0015750Y0193602D02*
X0011050Y0193602D01*
X0011050Y0192003D02*
X0015750Y0192003D01*
X0016175Y0190405D02*
X0011050Y0190405D01*
X0011050Y0188806D02*
X0017189Y0188806D01*
X0018186Y0187208D02*
X0011050Y0187208D01*
X0011050Y0185609D02*
X0016575Y0185609D01*
X0015913Y0184010D02*
X0011050Y0184010D01*
X0011050Y0182412D02*
X0015750Y0182412D01*
X0016005Y0180813D02*
X0011050Y0180813D01*
X0011050Y0179215D02*
X0016780Y0179215D01*
X0018725Y0177616D02*
X0011050Y0177616D01*
X0011050Y0176018D02*
X0016966Y0176018D01*
X0016082Y0174419D02*
X0011050Y0174419D01*
X0011050Y0172821D02*
X0015750Y0172821D01*
X0015836Y0171222D02*
X0011050Y0171222D01*
X0011050Y0169624D02*
X0016498Y0169624D01*
X0017970Y0168025D02*
X0011050Y0168025D01*
X0011050Y0166427D02*
X0017375Y0166427D01*
X0016252Y0164828D02*
X0011050Y0164828D01*
X0011050Y0163230D02*
X0015750Y0163230D01*
X0015750Y0161631D02*
X0011050Y0161631D01*
X0011050Y0160033D02*
X0016329Y0160033D01*
X0017561Y0158434D02*
X0011050Y0158434D01*
X0011050Y0156836D02*
X0017784Y0156836D01*
X0016421Y0155237D02*
X0011050Y0155237D01*
X0011050Y0153639D02*
X0015759Y0153639D01*
X0015750Y0152040D02*
X0011050Y0152040D01*
X0011050Y0150442D02*
X0016159Y0150442D01*
X0017152Y0148843D02*
X0011050Y0148843D01*
X0011050Y0147245D02*
X0018276Y0147245D01*
X0016594Y0145646D02*
X0011050Y0145646D01*
X0011050Y0144048D02*
X0015928Y0144048D01*
X0015750Y0142449D02*
X0011050Y0142449D01*
X0011050Y0140851D02*
X0015990Y0140851D01*
X0016743Y0139252D02*
X0011050Y0139252D01*
X0011050Y0137654D02*
X0018635Y0137654D01*
X0017003Y0136055D02*
X0011050Y0136055D01*
X0011050Y0134457D02*
X0016098Y0134457D01*
X0015750Y0132858D02*
X0011050Y0132858D01*
X0011050Y0131260D02*
X0015820Y0131260D01*
X0016483Y0129661D02*
X0011050Y0129661D01*
X0011050Y0128063D02*
X0017933Y0128063D01*
X0017412Y0126464D02*
X0011050Y0126464D01*
X0011050Y0124866D02*
X0016267Y0124866D01*
X0015750Y0123267D02*
X0011050Y0123267D01*
X0011050Y0121669D02*
X0015750Y0121669D01*
X0016313Y0120070D02*
X0011050Y0120070D01*
X0011050Y0118472D02*
X0017524Y0118472D01*
X0017821Y0116873D02*
X0011050Y0116873D01*
X0011050Y0115274D02*
X0016436Y0115274D01*
X0015774Y0113676D02*
X0011050Y0113676D01*
X0011050Y0112077D02*
X0015750Y0112077D01*
X0016144Y0110479D02*
X0011050Y0110479D01*
X0011050Y0108880D02*
X0017115Y0108880D01*
X0018365Y0107282D02*
X0011050Y0107282D01*
X0011050Y0105683D02*
X0016632Y0105683D01*
X0015944Y0104085D02*
X0011050Y0104085D01*
X0011050Y0102486D02*
X0015750Y0102486D01*
X0015974Y0100888D02*
X0011050Y0100888D01*
X0011050Y0099289D02*
X0016706Y0099289D01*
X0018545Y0097691D02*
X0011050Y0097691D01*
X0011050Y0096092D02*
X0024187Y0096092D01*
X0025706Y0094494D02*
X0011050Y0094494D01*
X0011050Y0092895D02*
X0026969Y0092895D01*
X0026969Y0091297D02*
X0011050Y0091297D01*
X0011050Y0089698D02*
X0027068Y0089698D01*
X0029014Y0097691D02*
X0060537Y0097691D01*
X0060450Y0099289D02*
X0027495Y0099289D01*
X0026526Y0100888D02*
X0060450Y0100888D01*
X0060450Y0102486D02*
X0026750Y0102486D01*
X0026556Y0104085D02*
X0060450Y0104085D01*
X0060450Y0105683D02*
X0025868Y0105683D01*
X0024135Y0107282D02*
X0060463Y0107282D01*
X0057115Y0108880D02*
X0063950Y0108880D01*
X0063950Y0110479D02*
X0057531Y0110479D01*
X0057531Y0112077D02*
X0063950Y0112077D01*
X0063950Y0113676D02*
X0057531Y0113676D01*
X0057007Y0115274D02*
X0063950Y0115274D01*
X0063950Y0116873D02*
X0024679Y0116873D01*
X0024976Y0118472D02*
X0063950Y0118472D01*
X0063950Y0120070D02*
X0026187Y0120070D01*
X0026750Y0121669D02*
X0063950Y0121669D01*
X0063950Y0123267D02*
X0026750Y0123267D01*
X0026233Y0124866D02*
X0062469Y0124866D01*
X0062469Y0126464D02*
X0025088Y0126464D01*
X0024567Y0128063D02*
X0039203Y0128063D01*
X0038469Y0129661D02*
X0026017Y0129661D01*
X0026680Y0131260D02*
X0038469Y0131260D01*
X0038469Y0132858D02*
X0026750Y0132858D01*
X0026402Y0134457D02*
X0038675Y0134457D01*
X0045825Y0134457D02*
X0046918Y0134457D01*
X0046700Y0136055D02*
X0025497Y0136055D01*
X0023865Y0137654D02*
X0046700Y0137654D01*
X0046700Y0139252D02*
X0025757Y0139252D01*
X0026510Y0140851D02*
X0046700Y0140851D01*
X0046700Y0142449D02*
X0026750Y0142449D01*
X0026572Y0144048D02*
X0046700Y0144048D01*
X0046700Y0145646D02*
X0025906Y0145646D01*
X0024224Y0147245D02*
X0046700Y0147245D01*
X0046700Y0148843D02*
X0025348Y0148843D01*
X0026341Y0150442D02*
X0046700Y0150442D01*
X0046700Y0152040D02*
X0026750Y0152040D01*
X0026741Y0153639D02*
X0046700Y0153639D01*
X0046700Y0155237D02*
X0026079Y0155237D01*
X0024716Y0156836D02*
X0046700Y0156836D01*
X0046700Y0158434D02*
X0024939Y0158434D01*
X0026171Y0160033D02*
X0046700Y0160033D01*
X0046700Y0161631D02*
X0026750Y0161631D01*
X0026750Y0163230D02*
X0046700Y0163230D01*
X0046700Y0164828D02*
X0026248Y0164828D01*
X0025125Y0166427D02*
X0046700Y0166427D01*
X0046700Y0168025D02*
X0024530Y0168025D01*
X0026002Y0169624D02*
X0046700Y0169624D01*
X0046700Y0171222D02*
X0026664Y0171222D01*
X0026750Y0172821D02*
X0046700Y0172821D01*
X0046700Y0174419D02*
X0026418Y0174419D01*
X0025534Y0176018D02*
X0046700Y0176018D01*
X0046700Y0177616D02*
X0023775Y0177616D01*
X0025719Y0179215D02*
X0046700Y0179215D01*
X0050800Y0164828D02*
X0141446Y0164828D01*
X0141391Y0163230D02*
X0050800Y0163230D01*
X0050800Y0161631D02*
X0141391Y0161631D01*
X0141391Y0160033D02*
X0050800Y0160033D01*
X0050800Y0158434D02*
X0141872Y0158434D01*
X0141391Y0156836D02*
X0050800Y0156836D01*
X0050800Y0155237D02*
X0141391Y0155237D01*
X0141391Y0153639D02*
X0050800Y0153639D01*
X0050800Y0152040D02*
X0141391Y0152040D01*
X0141865Y0150442D02*
X0050800Y0150442D01*
X0045297Y0128063D02*
X0062469Y0128063D01*
X0068550Y0123267D02*
X0102469Y0123267D01*
X0102469Y0121669D02*
X0068550Y0121669D01*
X0068550Y0120070D02*
X0102469Y0120070D01*
X0105289Y0118472D02*
X0068550Y0118472D01*
X0068550Y0116873D02*
X0105289Y0116873D01*
X0105289Y0115274D02*
X0068550Y0115274D01*
X0068550Y0113676D02*
X0105289Y0113676D01*
X0105289Y0112077D02*
X0068550Y0112077D01*
X0068550Y0110479D02*
X0105289Y0110479D01*
X0105289Y0108880D02*
X0068550Y0108880D01*
X0072037Y0107282D02*
X0076585Y0107282D01*
X0075060Y0105683D02*
X0072050Y0105683D01*
X0072050Y0104085D02*
X0074398Y0104085D01*
X0074230Y0102486D02*
X0072050Y0102486D01*
X0072050Y0100888D02*
X0074429Y0100888D01*
X0075091Y0099289D02*
X0072050Y0099289D01*
X0071963Y0097691D02*
X0076660Y0097691D01*
X0078200Y0096092D02*
X0033689Y0096092D01*
X0034531Y0094494D02*
X0078200Y0094494D01*
X0078200Y0092895D02*
X0034531Y0092895D01*
X0034531Y0091297D02*
X0078200Y0091297D01*
X0078200Y0089698D02*
X0034432Y0089698D01*
X0025385Y0108880D02*
X0050385Y0108880D01*
X0050493Y0115274D02*
X0026064Y0115274D01*
X0011050Y0088100D02*
X0078200Y0088100D01*
X0078200Y0086501D02*
X0011050Y0086501D01*
X0011050Y0084903D02*
X0078200Y0084903D01*
X0078570Y0083304D02*
X0011050Y0083304D01*
X0011050Y0081706D02*
X0220151Y0081706D01*
X0220151Y0080107D02*
X0011050Y0080107D01*
X0011050Y0078509D02*
X0220151Y0078509D01*
X0220151Y0076910D02*
X0011050Y0076910D01*
X0011050Y0075312D02*
X0220151Y0075312D01*
X0220151Y0073713D02*
X0011050Y0073713D01*
X0011050Y0072115D02*
X0220151Y0072115D01*
X0220151Y0070516D02*
X0011050Y0070516D01*
X0011050Y0068918D02*
X0220151Y0068918D01*
X0200200Y0128063D02*
X0070031Y0128063D01*
X0083474Y0107282D02*
X0090491Y0107282D01*
X0090769Y0107484D02*
X0090031Y0106948D01*
X0089385Y0106302D01*
X0088848Y0105563D01*
X0088434Y0104750D01*
X0088152Y0103882D01*
X0088009Y0102980D01*
X0088009Y0102905D01*
X0093428Y0102905D01*
X0093428Y0108324D01*
X0093353Y0108324D01*
X0092451Y0108181D01*
X0091583Y0107899D01*
X0090769Y0107484D01*
X0088936Y0105683D02*
X0084999Y0105683D01*
X0085661Y0104085D02*
X0088218Y0104085D01*
X0088009Y0102142D02*
X0088009Y0102067D01*
X0088152Y0101165D01*
X0088434Y0100297D01*
X0088848Y0099484D01*
X0089385Y0098745D01*
X0090031Y0098100D01*
X0090769Y0097563D01*
X0091583Y0097149D01*
X0092451Y0096866D01*
X0093353Y0096724D01*
X0093428Y0096724D01*
X0093428Y0102142D01*
X0094190Y0102142D01*
X0094190Y0096724D01*
X0094266Y0096724D01*
X0095167Y0096866D01*
X0096035Y0097149D01*
X0096849Y0097563D01*
X0097587Y0098100D01*
X0098233Y0098745D01*
X0098770Y0099484D01*
X0099184Y0100297D01*
X0099466Y0101165D01*
X0099609Y0102067D01*
X0099609Y0102142D01*
X0094190Y0102142D01*
X0094190Y0102905D01*
X0093428Y0102905D01*
X0093428Y0102142D01*
X0088009Y0102142D01*
X0088242Y0100888D02*
X0085630Y0100888D01*
X0085830Y0102486D02*
X0093428Y0102486D01*
X0094190Y0102486D02*
X0101789Y0102486D01*
X0101957Y0104085D02*
X0099400Y0104085D01*
X0099466Y0103882D02*
X0099184Y0104750D01*
X0098770Y0105563D01*
X0098233Y0106302D01*
X0097587Y0106948D01*
X0096849Y0107484D01*
X0096035Y0107899D01*
X0095167Y0108181D01*
X0094266Y0108324D01*
X0094190Y0108324D01*
X0094190Y0102905D01*
X0099609Y0102905D01*
X0099609Y0102980D01*
X0099466Y0103882D01*
X0098683Y0105683D02*
X0102620Y0105683D01*
X0104144Y0107282D02*
X0097127Y0107282D01*
X0094190Y0107282D02*
X0093428Y0107282D01*
X0093428Y0105683D02*
X0094190Y0105683D01*
X0094190Y0104085D02*
X0093428Y0104085D01*
X0093428Y0100888D02*
X0094190Y0100888D01*
X0094190Y0099289D02*
X0093428Y0099289D01*
X0093428Y0097691D02*
X0094190Y0097691D01*
X0097025Y0097691D02*
X0104219Y0097691D01*
X0102650Y0099289D02*
X0098628Y0099289D01*
X0099376Y0100888D02*
X0101988Y0100888D01*
X0090593Y0097691D02*
X0083399Y0097691D01*
X0084968Y0099289D02*
X0088990Y0099289D01*
X0124812Y0107282D02*
X0131829Y0107282D01*
X0130274Y0105683D02*
X0126337Y0105683D01*
X0126999Y0104085D02*
X0129556Y0104085D01*
X0129875Y0137654D02*
X0158200Y0137654D01*
X0158200Y0139252D02*
X0129928Y0139252D01*
X0130310Y0140851D02*
X0158200Y0140851D01*
X0165300Y0140851D02*
X0200200Y0140851D01*
X0200200Y0142449D02*
X0165300Y0142449D01*
X0165300Y0144048D02*
X0200200Y0144048D01*
X0200200Y0145646D02*
X0165300Y0145646D01*
X0165300Y0147245D02*
X0200200Y0147245D01*
X0200200Y0148843D02*
X0165300Y0148843D01*
X0165300Y0150442D02*
X0200200Y0150442D01*
X0200200Y0152040D02*
X0172262Y0152040D01*
X0172300Y0153639D02*
X0200200Y0153639D01*
X0200200Y0155237D02*
X0172300Y0155237D01*
X0172300Y0156836D02*
X0200200Y0156836D01*
X0200200Y0158434D02*
X0171435Y0158434D01*
X0172300Y0160033D02*
X0200200Y0160033D01*
X0200200Y0161631D02*
X0172300Y0161631D01*
X0172300Y0163230D02*
X0200200Y0163230D01*
X0200200Y0164828D02*
X0172300Y0164828D01*
X0165300Y0139252D02*
X0200200Y0139252D01*
X0200200Y0137654D02*
X0165300Y0137654D01*
X0165300Y0136055D02*
X0200200Y0136055D01*
X0200200Y0134457D02*
X0165300Y0134457D01*
X0165300Y0132858D02*
X0200200Y0132858D01*
X0200200Y0131260D02*
X0165300Y0131260D01*
X0165287Y0129661D02*
X0200200Y0129661D01*
X0204300Y0132858D02*
X0208141Y0132858D01*
X0206567Y0134457D02*
X0204300Y0134457D01*
X0204300Y0136055D02*
X0205905Y0136055D01*
X0205750Y0137654D02*
X0204300Y0137654D01*
X0204300Y0139252D02*
X0206013Y0139252D01*
X0206799Y0140851D02*
X0204300Y0140851D01*
X0204300Y0142449D02*
X0208769Y0142449D01*
X0206948Y0144048D02*
X0204300Y0144048D01*
X0204300Y0145646D02*
X0206074Y0145646D01*
X0205750Y0147245D02*
X0204300Y0147245D01*
X0204300Y0148843D02*
X0205843Y0148843D01*
X0206506Y0150442D02*
X0204300Y0150442D01*
X0204300Y0152040D02*
X0207988Y0152040D01*
X0207357Y0153639D02*
X0204300Y0153639D01*
X0204300Y0155237D02*
X0206244Y0155237D01*
X0205750Y0156836D02*
X0204300Y0156836D01*
X0204300Y0158434D02*
X0205750Y0158434D01*
X0206336Y0160033D02*
X0204300Y0160033D01*
X0204300Y0161631D02*
X0207580Y0161631D01*
X0207766Y0163230D02*
X0204300Y0163230D01*
X0204300Y0164828D02*
X0206413Y0164828D01*
X0205751Y0166427D02*
X0204300Y0166427D01*
X0204300Y0168025D02*
X0205750Y0168025D01*
X0206167Y0169624D02*
X0204300Y0169624D01*
X0204300Y0171222D02*
X0207171Y0171222D01*
X0208231Y0172821D02*
X0204300Y0172821D01*
X0204300Y0174419D02*
X0206583Y0174419D01*
X0205921Y0176018D02*
X0204300Y0176018D01*
X0203556Y0177616D02*
X0205750Y0177616D01*
X0205997Y0179215D02*
X0201958Y0179215D01*
X0146131Y0164828D02*
X0145369Y0164828D01*
X0145369Y0163230D02*
X0146131Y0163230D01*
X0099675Y0168025D02*
X0099675Y0168025D01*
X0099675Y0169624D02*
X0099675Y0169624D01*
X0099675Y0171222D02*
X0099675Y0171222D01*
X0099675Y0171917D02*
X0099675Y0176467D01*
X0099675Y0171917D01*
X0099675Y0171917D01*
X0099675Y0172821D02*
X0099675Y0172821D01*
X0099675Y0174419D02*
X0099675Y0174419D01*
X0099675Y0176018D02*
X0099675Y0176018D01*
X0047778Y0243155D02*
X0024660Y0243155D01*
X0026056Y0244754D02*
X0045823Y0244754D01*
X0044497Y0246352D02*
X0026718Y0246352D01*
X0026750Y0247951D02*
X0043574Y0247951D01*
X0043056Y0249549D02*
X0026364Y0249549D01*
X0025404Y0251148D02*
X0042651Y0251148D01*
X0042651Y0252746D02*
X0024089Y0252746D01*
X0025850Y0254345D02*
X0042747Y0254345D01*
X0043176Y0255943D02*
X0026549Y0255943D01*
X0026750Y0257542D02*
X0043831Y0257542D01*
X0044754Y0259141D02*
X0026533Y0259141D01*
X0025813Y0260739D02*
X0046269Y0260739D01*
D25*
X0020750Y0292524D03*
X0077750Y0157024D03*
X0018750Y0072524D03*
X0178250Y0145024D03*
X0185250Y0113524D03*
X0213750Y0072524D03*
X0215750Y0293524D03*
M02*
