G75*
%MOIN*%
%OFA0B0*%
%FSLAX25Y25*%
%IPPOS*%
%LPD*%
%AMOC8*
5,1,8,0,0,1.08239X$1,22.5*
%
%ADD10C,0.00600*%
%ADD11C,0.00400*%
%ADD12C,0.00300*%
%ADD13C,0.00800*%
%ADD14C,0.00200*%
%ADD15C,0.00100*%
D10*
X0062545Y0085269D02*
X0065747Y0089539D01*
X0068950Y0085269D01*
X0065747Y0083094D02*
X0065747Y0078824D01*
X0036185Y0100824D02*
X0033916Y0100824D01*
X0033916Y0104227D01*
X0032502Y0103659D02*
X0031935Y0104227D01*
X0030800Y0104227D01*
X0030233Y0103659D01*
X0030233Y0101391D01*
X0030800Y0100824D01*
X0031935Y0100824D01*
X0032502Y0101391D01*
X0028819Y0101391D02*
X0028819Y0101958D01*
X0028251Y0102525D01*
X0027117Y0102525D01*
X0026550Y0103092D01*
X0026550Y0103659D01*
X0027117Y0104227D01*
X0028251Y0104227D01*
X0028819Y0103659D01*
X0028819Y0101391D02*
X0028251Y0100824D01*
X0027117Y0100824D01*
X0026550Y0101391D01*
X0027117Y0110824D02*
X0026550Y0111391D01*
X0027117Y0110824D02*
X0028251Y0110824D01*
X0028819Y0111391D01*
X0028819Y0111958D01*
X0028251Y0112525D01*
X0027117Y0112525D01*
X0026550Y0113092D01*
X0026550Y0113659D01*
X0027117Y0114227D01*
X0028251Y0114227D01*
X0028819Y0113659D01*
X0030233Y0114227D02*
X0030233Y0110824D01*
X0031935Y0110824D01*
X0032502Y0111391D01*
X0032502Y0113659D01*
X0031935Y0114227D01*
X0030233Y0114227D01*
X0033916Y0113092D02*
X0033916Y0110824D01*
X0033916Y0112525D02*
X0036185Y0112525D01*
X0036185Y0113092D02*
X0036185Y0110824D01*
X0036185Y0113092D02*
X0035051Y0114227D01*
X0033916Y0113092D01*
X0033916Y0120824D02*
X0036185Y0120824D01*
X0037599Y0120824D02*
X0037599Y0124227D01*
X0039868Y0124227D01*
X0038734Y0122525D02*
X0037599Y0122525D01*
X0036185Y0124227D02*
X0033916Y0124227D01*
X0033916Y0120824D01*
X0032502Y0120824D02*
X0031367Y0121958D01*
X0031935Y0121958D02*
X0030233Y0121958D01*
X0030233Y0120824D02*
X0030233Y0124227D01*
X0031935Y0124227D01*
X0032502Y0123659D01*
X0032502Y0122525D01*
X0031935Y0121958D01*
X0033916Y0122525D02*
X0035051Y0122525D01*
X0028819Y0122525D02*
X0026550Y0122525D01*
X0026550Y0123092D02*
X0027684Y0124227D01*
X0028819Y0123092D01*
X0028819Y0120824D01*
X0026550Y0120824D02*
X0026550Y0123092D01*
X0027117Y0130824D02*
X0028251Y0130824D01*
X0028819Y0131391D01*
X0028819Y0132525D01*
X0027684Y0132525D01*
X0026550Y0131391D02*
X0027117Y0130824D01*
X0026550Y0131391D02*
X0026550Y0133659D01*
X0027117Y0134227D01*
X0028251Y0134227D01*
X0028819Y0133659D01*
X0030233Y0134227D02*
X0032502Y0130824D01*
X0032502Y0134227D01*
X0033916Y0134227D02*
X0033916Y0130824D01*
X0035618Y0130824D01*
X0036185Y0131391D01*
X0036185Y0133659D01*
X0035618Y0134227D01*
X0033916Y0134227D01*
X0030233Y0134227D02*
X0030233Y0130824D01*
X0030800Y0140824D02*
X0030233Y0141391D01*
X0030800Y0140824D02*
X0031935Y0140824D01*
X0032502Y0141391D01*
X0032502Y0141958D01*
X0031935Y0142525D01*
X0031367Y0142525D01*
X0031935Y0142525D02*
X0032502Y0143092D01*
X0032502Y0143659D01*
X0031935Y0144227D01*
X0030800Y0144227D01*
X0030233Y0143659D01*
X0028819Y0140824D02*
X0026550Y0140824D01*
X0027684Y0140824D02*
X0027684Y0144227D01*
X0026550Y0143092D01*
X0026550Y0150824D02*
X0028819Y0150824D01*
X0027684Y0150824D02*
X0027684Y0154227D01*
X0026550Y0153092D01*
X0030233Y0153659D02*
X0030800Y0154227D01*
X0031935Y0154227D01*
X0032502Y0153659D01*
X0032502Y0153092D01*
X0030233Y0150824D01*
X0032502Y0150824D01*
X0032502Y0160824D02*
X0030233Y0160824D01*
X0031367Y0160824D02*
X0031367Y0164227D01*
X0030233Y0163092D01*
X0028819Y0160824D02*
X0026550Y0160824D01*
X0027684Y0160824D02*
X0027684Y0164227D01*
X0026550Y0163092D01*
X0026550Y0170824D02*
X0028819Y0170824D01*
X0027684Y0170824D02*
X0027684Y0174227D01*
X0026550Y0173092D01*
X0030233Y0173659D02*
X0030233Y0171391D01*
X0032502Y0173659D01*
X0032502Y0171391D01*
X0031935Y0170824D01*
X0030800Y0170824D01*
X0030233Y0171391D01*
X0030233Y0173659D02*
X0030800Y0174227D01*
X0031935Y0174227D01*
X0032502Y0173659D01*
X0028251Y0180824D02*
X0027117Y0180824D01*
X0026550Y0181391D01*
X0027117Y0182525D02*
X0028819Y0182525D01*
X0028819Y0181391D02*
X0028819Y0183659D01*
X0028251Y0184227D01*
X0027117Y0184227D01*
X0026550Y0183659D01*
X0026550Y0183092D01*
X0027117Y0182525D01*
X0028251Y0180824D02*
X0028819Y0181391D01*
X0028251Y0190824D02*
X0027117Y0190824D01*
X0026550Y0191391D01*
X0026550Y0191958D01*
X0027117Y0192525D01*
X0028251Y0192525D01*
X0028819Y0191958D01*
X0028819Y0191391D01*
X0028251Y0190824D01*
X0028251Y0192525D02*
X0028819Y0193092D01*
X0028819Y0193659D01*
X0028251Y0194227D01*
X0027117Y0194227D01*
X0026550Y0193659D01*
X0026550Y0193092D01*
X0027117Y0192525D01*
X0026550Y0205824D02*
X0026550Y0206391D01*
X0028819Y0208659D01*
X0028819Y0209227D01*
X0026550Y0209227D01*
X0027117Y0215824D02*
X0028251Y0215824D01*
X0028819Y0216391D01*
X0028819Y0216958D01*
X0028251Y0217525D01*
X0026550Y0217525D01*
X0026550Y0216391D01*
X0027117Y0215824D01*
X0026550Y0217525D02*
X0027684Y0218659D01*
X0028819Y0219227D01*
X0028251Y0225824D02*
X0027117Y0225824D01*
X0026550Y0226391D01*
X0026550Y0227525D02*
X0027684Y0228092D01*
X0028251Y0228092D01*
X0028819Y0227525D01*
X0028819Y0226391D01*
X0028251Y0225824D01*
X0026550Y0227525D02*
X0026550Y0229227D01*
X0028819Y0229227D01*
X0028251Y0235824D02*
X0028251Y0239227D01*
X0026550Y0237525D01*
X0028819Y0237525D01*
X0028251Y0245824D02*
X0027117Y0245824D01*
X0026550Y0246391D01*
X0027684Y0247525D02*
X0028251Y0247525D01*
X0028819Y0246958D01*
X0028819Y0246391D01*
X0028251Y0245824D01*
X0028251Y0247525D02*
X0028819Y0248092D01*
X0028819Y0248659D01*
X0028251Y0249227D01*
X0027117Y0249227D01*
X0026550Y0248659D01*
X0026550Y0255824D02*
X0028819Y0258092D01*
X0028819Y0258659D01*
X0028251Y0259227D01*
X0027117Y0259227D01*
X0026550Y0258659D01*
X0026550Y0255824D02*
X0028819Y0255824D01*
X0027684Y0265824D02*
X0027684Y0269227D01*
X0026550Y0269227D02*
X0028819Y0269227D01*
X0030233Y0269227D02*
X0032502Y0265824D01*
X0030233Y0265824D02*
X0032502Y0269227D01*
X0032502Y0275824D02*
X0030233Y0279227D01*
X0028819Y0278659D02*
X0028819Y0277525D01*
X0028251Y0276958D01*
X0026550Y0276958D01*
X0027684Y0276958D02*
X0028819Y0275824D01*
X0030233Y0275824D02*
X0032502Y0279227D01*
X0028819Y0278659D02*
X0028251Y0279227D01*
X0026550Y0279227D01*
X0026550Y0275824D01*
X0053431Y0200229D02*
X0057702Y0200229D01*
X0055567Y0200229D02*
X0055567Y0193824D01*
X0059877Y0194891D02*
X0059877Y0195959D01*
X0062012Y0198094D01*
X0062012Y0199162D01*
X0060945Y0200229D01*
X0059877Y0199162D01*
X0059877Y0198094D01*
X0064147Y0193824D01*
X0064147Y0195959D02*
X0062012Y0193824D01*
X0060945Y0193824D01*
X0059877Y0194891D01*
X0066322Y0193824D02*
X0066322Y0200229D01*
X0066322Y0197026D02*
X0070593Y0197026D01*
X0070593Y0193824D02*
X0070593Y0200229D01*
X0077038Y0200229D02*
X0072768Y0193824D01*
X0079213Y0194891D02*
X0080281Y0193824D01*
X0082416Y0193824D01*
X0083484Y0194891D01*
X0085659Y0194891D02*
X0085659Y0199162D01*
X0086727Y0200229D01*
X0088862Y0200229D01*
X0089929Y0199162D01*
X0089929Y0194891D01*
X0088862Y0193824D01*
X0086727Y0193824D01*
X0085659Y0194891D01*
X0083484Y0199162D02*
X0082416Y0200229D01*
X0080281Y0200229D01*
X0079213Y0199162D01*
X0079213Y0194891D01*
X0092104Y0193824D02*
X0096375Y0198094D01*
X0096375Y0199162D01*
X0095307Y0200229D01*
X0093172Y0200229D01*
X0092104Y0199162D01*
X0092104Y0193824D02*
X0096375Y0193824D01*
X0142050Y0201229D02*
X0146320Y0201229D01*
X0144185Y0201229D02*
X0144185Y0194824D01*
X0148495Y0195891D02*
X0148495Y0196959D01*
X0150631Y0199094D01*
X0150631Y0200162D01*
X0149563Y0201229D01*
X0148495Y0200162D01*
X0148495Y0199094D01*
X0152766Y0194824D01*
X0152766Y0196959D02*
X0150631Y0194824D01*
X0149563Y0194824D01*
X0148495Y0195891D01*
X0154941Y0194824D02*
X0154941Y0201229D01*
X0154941Y0198026D02*
X0159211Y0198026D01*
X0159211Y0194824D02*
X0159211Y0201229D01*
X0189526Y0167525D02*
X0191794Y0167525D01*
X0190660Y0168659D02*
X0190660Y0166391D01*
X0193209Y0166391D02*
X0193776Y0165824D01*
X0194910Y0165824D01*
X0195478Y0166391D01*
X0195478Y0166958D01*
X0194910Y0167525D01*
X0194343Y0167525D01*
X0194910Y0167525D02*
X0195478Y0168092D01*
X0195478Y0168659D01*
X0194910Y0169227D01*
X0193776Y0169227D01*
X0193209Y0168659D01*
X0196892Y0166391D02*
X0197459Y0166391D01*
X0197459Y0165824D01*
X0196892Y0165824D01*
X0196892Y0166391D01*
X0198734Y0166391D02*
X0199301Y0165824D01*
X0200435Y0165824D01*
X0201002Y0166391D01*
X0201002Y0166958D01*
X0200435Y0167525D01*
X0199868Y0167525D01*
X0200435Y0167525D02*
X0201002Y0168092D01*
X0201002Y0168659D01*
X0200435Y0169227D01*
X0199301Y0169227D01*
X0198734Y0168659D01*
X0202417Y0169227D02*
X0202417Y0166958D01*
X0203551Y0165824D01*
X0204685Y0166958D01*
X0204685Y0169227D01*
X0203551Y0175824D02*
X0204685Y0176958D01*
X0204685Y0179227D01*
X0202417Y0179227D02*
X0202417Y0176958D01*
X0203551Y0175824D01*
X0201002Y0176391D02*
X0200435Y0175824D01*
X0199301Y0175824D01*
X0198734Y0176391D01*
X0198734Y0177525D02*
X0199868Y0178092D01*
X0200435Y0178092D01*
X0201002Y0177525D01*
X0201002Y0176391D01*
X0198734Y0177525D02*
X0198734Y0179227D01*
X0201002Y0179227D01*
X0197319Y0177525D02*
X0195051Y0177525D01*
X0196185Y0178659D02*
X0196185Y0176391D01*
X0196752Y0185824D02*
X0197319Y0186391D01*
X0197319Y0187525D01*
X0196185Y0187525D01*
X0197319Y0188659D02*
X0196752Y0189227D01*
X0195618Y0189227D01*
X0195051Y0188659D01*
X0195051Y0186391D01*
X0195618Y0185824D01*
X0196752Y0185824D01*
X0198734Y0185824D02*
X0198734Y0189227D01*
X0201002Y0185824D01*
X0201002Y0189227D01*
X0202417Y0189227D02*
X0202417Y0185824D01*
X0204118Y0185824D01*
X0204685Y0186391D01*
X0204685Y0188659D01*
X0204118Y0189227D01*
X0202417Y0189227D01*
X0202417Y0195824D02*
X0204118Y0195824D01*
X0204685Y0196391D01*
X0204685Y0198659D01*
X0204118Y0199227D01*
X0202417Y0199227D01*
X0202417Y0195824D01*
X0201002Y0195824D02*
X0201002Y0199227D01*
X0198734Y0199227D02*
X0198734Y0195824D01*
X0197319Y0196391D02*
X0197319Y0197525D01*
X0196185Y0197525D01*
X0197319Y0196391D02*
X0196752Y0195824D01*
X0195618Y0195824D01*
X0195051Y0196391D01*
X0195051Y0198659D01*
X0195618Y0199227D01*
X0196752Y0199227D01*
X0197319Y0198659D01*
X0198734Y0199227D02*
X0201002Y0195824D01*
X0201096Y0205824D02*
X0199961Y0205824D01*
X0200529Y0205824D02*
X0200529Y0209227D01*
X0201096Y0209227D02*
X0199961Y0209227D01*
X0198547Y0209227D02*
X0198547Y0206958D01*
X0197413Y0205824D01*
X0196278Y0206958D01*
X0196278Y0209227D01*
X0202417Y0209227D02*
X0202417Y0205824D01*
X0204685Y0205824D02*
X0202417Y0209227D01*
X0204685Y0209227D02*
X0204685Y0205824D01*
X0204118Y0225824D02*
X0202984Y0225824D01*
X0202417Y0226391D01*
X0204685Y0228659D01*
X0204685Y0226391D01*
X0204118Y0225824D01*
X0202417Y0226391D02*
X0202417Y0228659D01*
X0202984Y0229227D01*
X0204118Y0229227D01*
X0204685Y0228659D01*
X0204685Y0235824D02*
X0202417Y0235824D01*
X0203551Y0235824D02*
X0203551Y0239227D01*
X0202417Y0238092D01*
X0199500Y0237631D02*
X0197231Y0237631D01*
X0196097Y0238765D01*
X0197231Y0239899D01*
X0199500Y0239899D01*
X0199500Y0241314D02*
X0197231Y0241314D01*
X0197231Y0243015D01*
X0197799Y0243582D01*
X0199500Y0243582D01*
X0198933Y0244997D02*
X0198366Y0245564D01*
X0198366Y0247266D01*
X0197799Y0247266D02*
X0199500Y0247266D01*
X0199500Y0245564D01*
X0198933Y0244997D01*
X0197231Y0245564D02*
X0197231Y0246698D01*
X0197799Y0247266D01*
X0199500Y0248680D02*
X0199500Y0249814D01*
X0199500Y0249247D02*
X0196097Y0249247D01*
X0196097Y0248680D01*
X0197799Y0251136D02*
X0197231Y0251703D01*
X0197231Y0252837D01*
X0197799Y0253404D01*
X0198933Y0253404D01*
X0199500Y0252837D01*
X0199500Y0251703D01*
X0198933Y0251136D01*
X0197799Y0251136D01*
X0197799Y0254819D02*
X0197231Y0255386D01*
X0197231Y0257087D01*
X0200067Y0257087D01*
X0200634Y0256520D01*
X0200634Y0255953D01*
X0199500Y0255386D02*
X0199500Y0257087D01*
X0199500Y0255386D02*
X0198933Y0254819D01*
X0197799Y0254819D01*
X0202417Y0256391D02*
X0202984Y0255824D01*
X0204118Y0255824D01*
X0204685Y0256391D01*
X0204685Y0256958D01*
X0204118Y0257525D01*
X0203551Y0257525D01*
X0204118Y0257525D02*
X0204685Y0258092D01*
X0204685Y0258659D01*
X0204118Y0259227D01*
X0202984Y0259227D01*
X0202417Y0258659D01*
X0199500Y0262185D02*
X0199500Y0263319D01*
X0199500Y0262752D02*
X0196097Y0262752D01*
X0196097Y0262185D02*
X0196097Y0263319D01*
X0197231Y0264640D02*
X0197231Y0266342D01*
X0197799Y0266909D01*
X0199500Y0266909D01*
X0199500Y0264640D02*
X0197231Y0264640D01*
X0202417Y0267525D02*
X0204685Y0267525D01*
X0204118Y0265824D02*
X0204118Y0269227D01*
X0202417Y0267525D01*
X0202984Y0275824D02*
X0202417Y0276391D01*
X0202984Y0275824D02*
X0204118Y0275824D01*
X0204685Y0276391D01*
X0204685Y0277525D01*
X0204118Y0278092D01*
X0203551Y0278092D01*
X0202417Y0277525D01*
X0202417Y0279227D01*
X0204685Y0279227D01*
X0204118Y0249227D02*
X0202984Y0249227D01*
X0202417Y0248659D01*
X0204118Y0249227D02*
X0204685Y0248659D01*
X0204685Y0248092D01*
X0202417Y0245824D01*
X0204685Y0245824D01*
X0197799Y0239899D02*
X0197799Y0237631D01*
X0196752Y0159227D02*
X0195051Y0159227D01*
X0195051Y0155824D01*
X0195051Y0156958D02*
X0196752Y0156958D01*
X0197319Y0157525D01*
X0197319Y0158659D01*
X0196752Y0159227D01*
X0198734Y0158659D02*
X0198734Y0158092D01*
X0199301Y0157525D01*
X0200435Y0157525D01*
X0201002Y0156958D01*
X0201002Y0156391D01*
X0200435Y0155824D01*
X0199301Y0155824D01*
X0198734Y0156391D01*
X0197319Y0155824D02*
X0196185Y0156958D01*
X0198734Y0158659D02*
X0199301Y0159227D01*
X0200435Y0159227D01*
X0201002Y0158659D01*
X0202417Y0159227D02*
X0204685Y0159227D01*
X0203551Y0159227D02*
X0203551Y0155824D01*
X0202417Y0149227D02*
X0204685Y0149227D01*
X0203551Y0147525D02*
X0202417Y0147525D01*
X0202417Y0145824D02*
X0202417Y0149227D01*
X0201002Y0149227D02*
X0198734Y0149227D01*
X0198734Y0145824D01*
X0201002Y0145824D01*
X0199868Y0147525D02*
X0198734Y0147525D01*
X0197319Y0147525D02*
X0197319Y0148659D01*
X0196752Y0149227D01*
X0195051Y0149227D01*
X0195051Y0145824D01*
X0195051Y0146958D02*
X0196752Y0146958D01*
X0197319Y0147525D01*
X0196185Y0146958D02*
X0197319Y0145824D01*
X0193636Y0146391D02*
X0193636Y0148659D01*
X0193069Y0149227D01*
X0191935Y0149227D01*
X0191367Y0148659D01*
X0191367Y0146391D01*
X0191935Y0145824D01*
X0193069Y0145824D01*
X0193636Y0146391D01*
X0190046Y0145824D02*
X0188912Y0145824D01*
X0189479Y0145824D02*
X0189479Y0149227D01*
X0188912Y0149227D02*
X0190046Y0149227D01*
X0170550Y0158124D02*
X0170550Y0158924D01*
X0164950Y0158924D02*
X0164950Y0158124D01*
X0148747Y0089039D02*
X0151950Y0084769D01*
X0148747Y0082594D02*
X0148747Y0078324D01*
X0145545Y0084769D02*
X0148747Y0089039D01*
X0109950Y0084769D02*
X0106747Y0089039D01*
X0103545Y0084769D01*
X0106747Y0082594D02*
X0106747Y0078324D01*
D11*
X0058950Y0077328D02*
X0058950Y0072724D01*
X0058950Y0074258D02*
X0061252Y0074258D01*
X0062019Y0075026D01*
X0062019Y0076560D01*
X0061252Y0077328D01*
X0058950Y0077328D01*
X0063554Y0075793D02*
X0063554Y0072724D01*
X0063554Y0075026D02*
X0066623Y0075026D01*
X0066623Y0075793D02*
X0066623Y0072724D01*
X0068158Y0072724D02*
X0068158Y0077328D01*
X0070460Y0077328D01*
X0071227Y0076560D01*
X0071227Y0075026D01*
X0070460Y0074258D01*
X0068158Y0074258D01*
X0069692Y0074258D02*
X0071227Y0072724D01*
X0072762Y0072724D02*
X0075831Y0072724D01*
X0074296Y0072724D02*
X0074296Y0077328D01*
X0072762Y0075793D01*
X0066623Y0075793D02*
X0065089Y0077328D01*
X0063554Y0075793D01*
X0099950Y0076828D02*
X0099950Y0072224D01*
X0099950Y0073758D02*
X0102252Y0073758D01*
X0103019Y0074526D01*
X0103019Y0076060D01*
X0102252Y0076828D01*
X0099950Y0076828D01*
X0104554Y0075293D02*
X0104554Y0072224D01*
X0104554Y0074526D02*
X0107623Y0074526D01*
X0107623Y0075293D02*
X0107623Y0072224D01*
X0109158Y0072224D02*
X0109158Y0076828D01*
X0111460Y0076828D01*
X0112227Y0076060D01*
X0112227Y0074526D01*
X0111460Y0073758D01*
X0109158Y0073758D01*
X0110692Y0073758D02*
X0112227Y0072224D01*
X0113762Y0072224D02*
X0116831Y0075293D01*
X0116831Y0076060D01*
X0116064Y0076828D01*
X0114529Y0076828D01*
X0113762Y0076060D01*
X0113762Y0072224D02*
X0116831Y0072224D01*
X0107623Y0075293D02*
X0106089Y0076828D01*
X0104554Y0075293D01*
X0141950Y0076328D02*
X0141950Y0071724D01*
X0141950Y0073258D02*
X0144252Y0073258D01*
X0145019Y0074026D01*
X0145019Y0075560D01*
X0144252Y0076328D01*
X0141950Y0076328D01*
X0146554Y0074793D02*
X0146554Y0071724D01*
X0146554Y0074026D02*
X0149623Y0074026D01*
X0149623Y0074793D02*
X0149623Y0071724D01*
X0151158Y0071724D02*
X0151158Y0076328D01*
X0153460Y0076328D01*
X0154227Y0075560D01*
X0154227Y0074026D01*
X0153460Y0073258D01*
X0151158Y0073258D01*
X0152692Y0073258D02*
X0154227Y0071724D01*
X0155762Y0072491D02*
X0156529Y0071724D01*
X0158064Y0071724D01*
X0158831Y0072491D01*
X0158831Y0073258D01*
X0158064Y0074026D01*
X0157296Y0074026D01*
X0158064Y0074026D02*
X0158831Y0074793D01*
X0158831Y0075560D01*
X0158064Y0076328D01*
X0156529Y0076328D01*
X0155762Y0075560D01*
X0149623Y0074793D02*
X0148089Y0076328D01*
X0146554Y0074793D01*
X0151382Y0156974D02*
X0151048Y0157307D01*
X0151048Y0157974D01*
X0151382Y0158308D01*
X0151716Y0159184D02*
X0151048Y0159851D01*
X0153050Y0159851D01*
X0153050Y0159184D02*
X0153050Y0160518D01*
X0152716Y0158308D02*
X0153050Y0157974D01*
X0153050Y0157307D01*
X0152716Y0156974D01*
X0151382Y0156974D01*
D12*
X0159900Y0086377D02*
X0159900Y0084525D01*
X0161134Y0085142D01*
X0161752Y0085142D01*
X0162369Y0084525D01*
X0162369Y0083291D01*
X0161752Y0082674D01*
X0160517Y0082674D01*
X0159900Y0083291D01*
X0159900Y0086377D02*
X0162369Y0086377D01*
X0163583Y0086377D02*
X0163583Y0083908D01*
X0164818Y0082674D01*
X0166052Y0083908D01*
X0166052Y0086377D01*
X0139235Y0085760D02*
X0139235Y0083291D01*
X0138618Y0082674D01*
X0136766Y0082674D01*
X0136766Y0086377D01*
X0138618Y0086377D01*
X0139235Y0085760D01*
X0135552Y0086377D02*
X0135552Y0082674D01*
X0133083Y0086377D01*
X0133083Y0082674D01*
X0131869Y0083291D02*
X0131869Y0084525D01*
X0130634Y0084525D01*
X0129400Y0083291D02*
X0130017Y0082674D01*
X0131252Y0082674D01*
X0131869Y0083291D01*
X0131869Y0085760D02*
X0131252Y0086377D01*
X0130017Y0086377D01*
X0129400Y0085760D01*
X0129400Y0083291D01*
X0124552Y0083408D02*
X0123318Y0082174D01*
X0122083Y0083408D01*
X0122083Y0085877D01*
X0120869Y0085877D02*
X0118400Y0085877D01*
X0118400Y0084025D01*
X0119634Y0084642D01*
X0120252Y0084642D01*
X0120869Y0084025D01*
X0120869Y0082791D01*
X0120252Y0082174D01*
X0119017Y0082174D01*
X0118400Y0082791D01*
X0124552Y0083408D02*
X0124552Y0085877D01*
X0098235Y0085260D02*
X0098235Y0082791D01*
X0097618Y0082174D01*
X0095766Y0082174D01*
X0095766Y0085877D01*
X0097618Y0085877D01*
X0098235Y0085260D01*
X0094552Y0085877D02*
X0094552Y0082174D01*
X0092083Y0085877D01*
X0092083Y0082174D01*
X0090869Y0082791D02*
X0090869Y0084025D01*
X0089634Y0084025D01*
X0088400Y0085260D02*
X0088400Y0082791D01*
X0089017Y0082174D01*
X0090252Y0082174D01*
X0090869Y0082791D01*
X0090869Y0085260D02*
X0090252Y0085877D01*
X0089017Y0085877D01*
X0088400Y0085260D01*
X0083552Y0085877D02*
X0083552Y0083408D01*
X0082318Y0082174D01*
X0081083Y0083408D01*
X0081083Y0085877D01*
X0079869Y0085877D02*
X0077400Y0085877D01*
X0077400Y0084025D01*
X0078634Y0084642D01*
X0079252Y0084642D01*
X0079869Y0084025D01*
X0079869Y0082791D01*
X0079252Y0082174D01*
X0078017Y0082174D01*
X0077400Y0082791D01*
D13*
X0059360Y0088350D02*
X0059360Y0091500D01*
X0169596Y0091500D01*
X0169596Y0088350D01*
X0059360Y0088350D01*
X0059360Y0091500D02*
X0059360Y0115909D01*
X0169596Y0115909D01*
X0169596Y0091500D01*
X0130482Y0147681D02*
X0130482Y0167366D01*
X0097018Y0167366D01*
X0097018Y0147681D01*
X0130482Y0147681D01*
X0142250Y0150524D02*
X0149250Y0150524D01*
X0149250Y0165524D01*
X0142250Y0165524D01*
X0142250Y0150524D01*
X0131872Y0164524D02*
X0131874Y0164583D01*
X0131880Y0164641D01*
X0131890Y0164699D01*
X0131903Y0164756D01*
X0131921Y0164812D01*
X0131942Y0164867D01*
X0131966Y0164920D01*
X0131995Y0164971D01*
X0132026Y0165021D01*
X0132061Y0165068D01*
X0132099Y0165113D01*
X0132140Y0165155D01*
X0132183Y0165194D01*
X0132229Y0165231D01*
X0132278Y0165264D01*
X0132328Y0165294D01*
X0132380Y0165320D01*
X0132434Y0165343D01*
X0132490Y0165363D01*
X0132546Y0165378D01*
X0132604Y0165390D01*
X0132662Y0165398D01*
X0132721Y0165402D01*
X0132779Y0165402D01*
X0132838Y0165398D01*
X0132896Y0165390D01*
X0132954Y0165378D01*
X0133010Y0165363D01*
X0133066Y0165343D01*
X0133120Y0165320D01*
X0133172Y0165294D01*
X0133222Y0165264D01*
X0133271Y0165231D01*
X0133317Y0165194D01*
X0133360Y0165155D01*
X0133401Y0165113D01*
X0133439Y0165068D01*
X0133474Y0165021D01*
X0133505Y0164971D01*
X0133534Y0164920D01*
X0133558Y0164867D01*
X0133579Y0164812D01*
X0133597Y0164756D01*
X0133610Y0164699D01*
X0133620Y0164641D01*
X0133626Y0164583D01*
X0133628Y0164524D01*
X0133626Y0164465D01*
X0133620Y0164407D01*
X0133610Y0164349D01*
X0133597Y0164292D01*
X0133579Y0164236D01*
X0133558Y0164181D01*
X0133534Y0164128D01*
X0133505Y0164077D01*
X0133474Y0164027D01*
X0133439Y0163980D01*
X0133401Y0163935D01*
X0133360Y0163893D01*
X0133317Y0163854D01*
X0133271Y0163817D01*
X0133222Y0163784D01*
X0133172Y0163754D01*
X0133120Y0163728D01*
X0133066Y0163705D01*
X0133010Y0163685D01*
X0132954Y0163670D01*
X0132896Y0163658D01*
X0132838Y0163650D01*
X0132779Y0163646D01*
X0132721Y0163646D01*
X0132662Y0163650D01*
X0132604Y0163658D01*
X0132546Y0163670D01*
X0132490Y0163685D01*
X0132434Y0163705D01*
X0132380Y0163728D01*
X0132328Y0163754D01*
X0132278Y0163784D01*
X0132229Y0163817D01*
X0132183Y0163854D01*
X0132140Y0163893D01*
X0132099Y0163935D01*
X0132061Y0163980D01*
X0132026Y0164027D01*
X0131995Y0164077D01*
X0131966Y0164128D01*
X0131942Y0164181D01*
X0131921Y0164236D01*
X0131903Y0164292D01*
X0131890Y0164349D01*
X0131880Y0164407D01*
X0131874Y0164465D01*
X0131872Y0164524D01*
X0126872Y0164524D02*
X0126874Y0164583D01*
X0126880Y0164641D01*
X0126890Y0164699D01*
X0126903Y0164756D01*
X0126921Y0164812D01*
X0126942Y0164867D01*
X0126966Y0164920D01*
X0126995Y0164971D01*
X0127026Y0165021D01*
X0127061Y0165068D01*
X0127099Y0165113D01*
X0127140Y0165155D01*
X0127183Y0165194D01*
X0127229Y0165231D01*
X0127278Y0165264D01*
X0127328Y0165294D01*
X0127380Y0165320D01*
X0127434Y0165343D01*
X0127490Y0165363D01*
X0127546Y0165378D01*
X0127604Y0165390D01*
X0127662Y0165398D01*
X0127721Y0165402D01*
X0127779Y0165402D01*
X0127838Y0165398D01*
X0127896Y0165390D01*
X0127954Y0165378D01*
X0128010Y0165363D01*
X0128066Y0165343D01*
X0128120Y0165320D01*
X0128172Y0165294D01*
X0128222Y0165264D01*
X0128271Y0165231D01*
X0128317Y0165194D01*
X0128360Y0165155D01*
X0128401Y0165113D01*
X0128439Y0165068D01*
X0128474Y0165021D01*
X0128505Y0164971D01*
X0128534Y0164920D01*
X0128558Y0164867D01*
X0128579Y0164812D01*
X0128597Y0164756D01*
X0128610Y0164699D01*
X0128620Y0164641D01*
X0128626Y0164583D01*
X0128628Y0164524D01*
X0128626Y0164465D01*
X0128620Y0164407D01*
X0128610Y0164349D01*
X0128597Y0164292D01*
X0128579Y0164236D01*
X0128558Y0164181D01*
X0128534Y0164128D01*
X0128505Y0164077D01*
X0128474Y0164027D01*
X0128439Y0163980D01*
X0128401Y0163935D01*
X0128360Y0163893D01*
X0128317Y0163854D01*
X0128271Y0163817D01*
X0128222Y0163784D01*
X0128172Y0163754D01*
X0128120Y0163728D01*
X0128066Y0163705D01*
X0128010Y0163685D01*
X0127954Y0163670D01*
X0127896Y0163658D01*
X0127838Y0163650D01*
X0127779Y0163646D01*
X0127721Y0163646D01*
X0127662Y0163650D01*
X0127604Y0163658D01*
X0127546Y0163670D01*
X0127490Y0163685D01*
X0127434Y0163705D01*
X0127380Y0163728D01*
X0127328Y0163754D01*
X0127278Y0163784D01*
X0127229Y0163817D01*
X0127183Y0163854D01*
X0127140Y0163893D01*
X0127099Y0163935D01*
X0127061Y0163980D01*
X0127026Y0164027D01*
X0126995Y0164077D01*
X0126966Y0164128D01*
X0126942Y0164181D01*
X0126921Y0164236D01*
X0126903Y0164292D01*
X0126890Y0164349D01*
X0126880Y0164407D01*
X0126874Y0164465D01*
X0126872Y0164524D01*
X0121250Y0213154D02*
X0121250Y0264335D01*
X0181250Y0264335D01*
X0181250Y0213154D01*
X0121250Y0213154D01*
X0106250Y0213154D02*
X0106250Y0264335D01*
X0046250Y0264335D01*
X0046250Y0213154D01*
X0106250Y0213154D01*
D14*
X0138249Y0165465D02*
X0138249Y0164530D01*
X0139650Y0164530D01*
X0139650Y0163991D02*
X0138716Y0163991D01*
X0138949Y0164530D02*
X0138949Y0164997D01*
X0139650Y0163991D02*
X0139650Y0163291D01*
X0139416Y0163057D01*
X0138716Y0163057D01*
X0139650Y0162518D02*
X0139650Y0161584D01*
X0139650Y0162051D02*
X0138249Y0162051D01*
X0138716Y0161584D01*
X0139416Y0161081D02*
X0139650Y0161081D01*
X0139650Y0160847D01*
X0139416Y0160847D01*
X0139416Y0161081D01*
X0139416Y0160308D02*
X0139650Y0160075D01*
X0139650Y0159608D01*
X0139416Y0159374D01*
X0138482Y0160308D01*
X0139416Y0160308D01*
X0138482Y0160308D02*
X0138249Y0160075D01*
X0138249Y0159608D01*
X0138482Y0159374D01*
X0139416Y0159374D01*
X0160448Y0158934D02*
X0160448Y0158200D01*
X0160815Y0157834D01*
X0160815Y0157092D02*
X0161549Y0157092D01*
X0161916Y0156725D01*
X0161916Y0155624D01*
X0161916Y0156358D02*
X0162650Y0157092D01*
X0162650Y0157834D02*
X0161182Y0159301D01*
X0160815Y0159301D01*
X0160448Y0158934D01*
X0160815Y0157092D02*
X0160448Y0156725D01*
X0160448Y0155624D01*
X0162650Y0155624D01*
X0162650Y0157834D02*
X0162650Y0159301D01*
X0173749Y0159890D02*
X0175150Y0159890D01*
X0174916Y0159351D02*
X0174449Y0159351D01*
X0174216Y0159117D01*
X0174216Y0158650D01*
X0174449Y0158417D01*
X0174916Y0158417D01*
X0175150Y0158650D01*
X0175150Y0159117D01*
X0174916Y0159351D01*
X0174449Y0159890D02*
X0174216Y0160123D01*
X0174216Y0160590D01*
X0174449Y0160824D01*
X0175150Y0160824D01*
X0175150Y0161363D02*
X0174216Y0161363D01*
X0174216Y0161597D01*
X0174449Y0161830D01*
X0174216Y0162064D01*
X0174449Y0162297D01*
X0175150Y0162297D01*
X0175150Y0161830D02*
X0174449Y0161830D01*
X0174449Y0162836D02*
X0174216Y0163070D01*
X0174216Y0163771D01*
X0174683Y0163537D02*
X0174683Y0163070D01*
X0174449Y0162836D01*
X0175150Y0162836D02*
X0175150Y0163537D01*
X0174916Y0163771D01*
X0174683Y0163537D01*
X0175150Y0156404D02*
X0174449Y0155704D01*
X0174683Y0155470D02*
X0173749Y0156404D01*
X0173749Y0155470D02*
X0175150Y0155470D01*
X0174916Y0154931D02*
X0175150Y0154697D01*
X0175150Y0154230D01*
X0174916Y0153997D01*
X0173982Y0154931D01*
X0174916Y0154931D01*
X0173982Y0154931D02*
X0173749Y0154697D01*
X0173749Y0154230D01*
X0173982Y0153997D01*
X0174916Y0153997D01*
X0175150Y0153458D02*
X0175150Y0152524D01*
X0175150Y0152991D02*
X0173749Y0152991D01*
X0174216Y0152524D01*
D15*
X0133641Y0113825D02*
X0133391Y0114075D01*
X0132890Y0114075D01*
X0132640Y0113825D01*
X0132640Y0113574D01*
X0132890Y0113324D01*
X0133391Y0113324D01*
X0133641Y0113074D01*
X0133641Y0112824D01*
X0133391Y0112574D01*
X0132890Y0112574D01*
X0132640Y0112824D01*
X0132168Y0112574D02*
X0131167Y0112574D01*
X0131167Y0114075D01*
X0130695Y0113574D02*
X0130695Y0112574D01*
X0130695Y0113324D02*
X0129694Y0113324D01*
X0129694Y0113574D02*
X0130194Y0114075D01*
X0130695Y0113574D01*
X0129694Y0113574D02*
X0129694Y0112574D01*
X0129221Y0112574D02*
X0129221Y0114075D01*
X0128220Y0114075D02*
X0129221Y0112574D01*
X0128220Y0112574D02*
X0128220Y0114075D01*
X0127739Y0114075D02*
X0127238Y0114075D01*
X0127489Y0114075D02*
X0127489Y0112574D01*
X0127739Y0112574D02*
X0127238Y0112574D01*
X0126766Y0112574D02*
X0126766Y0114075D01*
X0126265Y0113574D01*
X0125765Y0114075D01*
X0125765Y0112574D01*
X0125293Y0112574D02*
X0124792Y0113074D01*
X0125042Y0113074D02*
X0124292Y0113074D01*
X0124292Y0112574D02*
X0124292Y0114075D01*
X0125042Y0114075D01*
X0125293Y0113825D01*
X0125293Y0113324D01*
X0125042Y0113074D01*
X0123819Y0112574D02*
X0122819Y0112574D01*
X0122819Y0114075D01*
X0123819Y0114075D01*
X0123319Y0113324D02*
X0122819Y0113324D01*
X0122346Y0114075D02*
X0121345Y0114075D01*
X0121846Y0114075D02*
X0121846Y0112574D01*
X0120873Y0112323D02*
X0119872Y0112323D01*
X0119400Y0112574D02*
X0119400Y0114075D01*
X0118399Y0114075D02*
X0118399Y0112574D01*
X0118899Y0113074D01*
X0119400Y0112574D01*
X0117926Y0112574D02*
X0116926Y0112574D01*
X0116926Y0114075D01*
X0117926Y0114075D01*
X0117426Y0113324D02*
X0116926Y0113324D01*
X0116453Y0113324D02*
X0116203Y0113074D01*
X0115452Y0113074D01*
X0115452Y0112574D02*
X0115452Y0114075D01*
X0116203Y0114075D01*
X0116453Y0113825D01*
X0116453Y0113324D01*
X0115953Y0113074D02*
X0116453Y0112574D01*
X0114980Y0112824D02*
X0114730Y0112574D01*
X0114229Y0112574D01*
X0113979Y0112824D01*
X0113979Y0113825D01*
X0114229Y0114075D01*
X0114730Y0114075D01*
X0114980Y0113825D01*
X0113507Y0113825D02*
X0113256Y0114075D01*
X0112756Y0114075D01*
X0112506Y0113825D01*
X0112506Y0113574D01*
X0112756Y0113324D01*
X0113256Y0113324D01*
X0113507Y0113074D01*
X0113507Y0112824D01*
X0113256Y0112574D01*
X0112756Y0112574D01*
X0112506Y0112824D01*
X0112033Y0112323D02*
X0111033Y0112323D01*
X0110560Y0112574D02*
X0110060Y0113074D01*
X0110310Y0113074D02*
X0109559Y0113074D01*
X0109559Y0112574D02*
X0109559Y0114075D01*
X0110310Y0114075D01*
X0110560Y0113825D01*
X0110560Y0113324D01*
X0110310Y0113074D01*
X0109087Y0112824D02*
X0109087Y0113825D01*
X0108837Y0114075D01*
X0108336Y0114075D01*
X0108086Y0113825D01*
X0108086Y0112824D01*
X0108336Y0112574D01*
X0108837Y0112574D01*
X0109087Y0112824D01*
X0107614Y0112824D02*
X0107363Y0112574D01*
X0106863Y0112574D01*
X0106613Y0112824D01*
X0106140Y0112574D02*
X0106140Y0114075D01*
X0106613Y0113825D02*
X0106613Y0113574D01*
X0106863Y0113324D01*
X0107363Y0113324D01*
X0107614Y0113074D01*
X0107614Y0112824D01*
X0107614Y0113825D02*
X0107363Y0114075D01*
X0106863Y0114075D01*
X0106613Y0113825D01*
X0106140Y0112574D02*
X0105140Y0114075D01*
X0105140Y0112574D01*
X0104667Y0112574D02*
X0103666Y0112574D01*
X0103666Y0114075D01*
X0104667Y0114075D01*
X0104167Y0113324D02*
X0103666Y0113324D01*
X0103194Y0113074D02*
X0103194Y0112824D01*
X0102944Y0112574D01*
X0102443Y0112574D01*
X0102193Y0112824D01*
X0102443Y0113324D02*
X0102193Y0113574D01*
X0102193Y0113825D01*
X0102443Y0114075D01*
X0102944Y0114075D01*
X0103194Y0113825D01*
X0102944Y0113324D02*
X0103194Y0113074D01*
X0102944Y0113324D02*
X0102443Y0113324D01*
X0101721Y0112323D02*
X0100720Y0112323D01*
X0100247Y0112574D02*
X0099747Y0113074D01*
X0099997Y0113074D02*
X0099247Y0113074D01*
X0099247Y0112574D02*
X0099247Y0114075D01*
X0099997Y0114075D01*
X0100247Y0113825D01*
X0100247Y0113324D01*
X0099997Y0113074D01*
X0098774Y0113324D02*
X0097773Y0113324D01*
X0097773Y0113574D02*
X0098274Y0114075D01*
X0098774Y0113574D01*
X0098774Y0112574D01*
X0097773Y0112574D02*
X0097773Y0113574D01*
X0097301Y0113324D02*
X0097051Y0113074D01*
X0096300Y0113074D01*
X0096300Y0112574D02*
X0096300Y0114075D01*
X0097051Y0114075D01*
X0097301Y0113825D01*
X0097301Y0113324D01*
X0105094Y0153474D02*
X0105094Y0154975D01*
X0106095Y0153474D01*
X0106095Y0154975D01*
X0106567Y0154474D02*
X0107068Y0154975D01*
X0107568Y0154474D01*
X0107568Y0153474D01*
X0107568Y0154224D02*
X0106567Y0154224D01*
X0106567Y0154474D02*
X0106567Y0153474D01*
X0108541Y0153474D02*
X0108541Y0154975D01*
X0108041Y0154975D02*
X0109042Y0154975D01*
X0109514Y0154975D02*
X0109514Y0153474D01*
X0110515Y0153474D01*
X0110987Y0153724D02*
X0111237Y0153474D01*
X0111738Y0153474D01*
X0111988Y0153724D01*
X0111988Y0153974D01*
X0111738Y0154224D01*
X0111237Y0154224D01*
X0110987Y0154474D01*
X0110987Y0154725D01*
X0111237Y0154975D01*
X0111738Y0154975D01*
X0111988Y0154725D01*
X0110515Y0154975D02*
X0109514Y0154975D01*
X0109514Y0154224D02*
X0110014Y0154224D01*
X0112460Y0153223D02*
X0113461Y0153223D01*
X0113934Y0153474D02*
X0113934Y0154975D01*
X0113934Y0154224D02*
X0114935Y0154224D01*
X0115407Y0153724D02*
X0115657Y0153474D01*
X0116158Y0153474D01*
X0116408Y0153724D01*
X0116408Y0154725D01*
X0116158Y0154975D01*
X0115657Y0154975D01*
X0115407Y0154725D01*
X0115407Y0153724D01*
X0114935Y0153474D02*
X0114935Y0154975D01*
X0116880Y0154975D02*
X0116880Y0153724D01*
X0117130Y0153474D01*
X0117631Y0153474D01*
X0117881Y0153724D01*
X0117881Y0154975D01*
X0118353Y0154725D02*
X0118353Y0154474D01*
X0118604Y0154224D01*
X0119104Y0154224D01*
X0119354Y0153974D01*
X0119354Y0153724D01*
X0119104Y0153474D01*
X0118604Y0153474D01*
X0118353Y0153724D01*
X0118353Y0154725D02*
X0118604Y0154975D01*
X0119104Y0154975D01*
X0119354Y0154725D01*
X0119827Y0154975D02*
X0119827Y0153474D01*
X0120828Y0153474D01*
X0120327Y0154224D02*
X0119827Y0154224D01*
X0119827Y0154975D02*
X0120828Y0154975D01*
X0120853Y0160974D02*
X0120853Y0162475D01*
X0121354Y0161974D01*
X0121854Y0162475D01*
X0121854Y0160974D01*
X0122327Y0160974D02*
X0123077Y0160974D01*
X0123328Y0161224D01*
X0123328Y0162225D01*
X0123077Y0162475D01*
X0122327Y0162475D01*
X0122327Y0160974D01*
X0120381Y0161224D02*
X0120131Y0160974D01*
X0119630Y0160974D01*
X0119380Y0161224D01*
X0119630Y0161724D02*
X0120131Y0161724D01*
X0120381Y0161474D01*
X0120381Y0161224D01*
X0119630Y0161724D02*
X0119380Y0161974D01*
X0119380Y0162225D01*
X0119630Y0162475D01*
X0120131Y0162475D01*
X0120381Y0162225D01*
X0118908Y0162225D02*
X0117907Y0161224D01*
X0117907Y0160974D01*
X0117434Y0161224D02*
X0117434Y0161474D01*
X0117184Y0161724D01*
X0116434Y0161724D01*
X0116434Y0161224D01*
X0116684Y0160974D01*
X0117184Y0160974D01*
X0117434Y0161224D01*
X0116934Y0162225D02*
X0116434Y0161724D01*
X0115961Y0161224D02*
X0115711Y0160974D01*
X0115211Y0160974D01*
X0114960Y0161224D01*
X0115961Y0162225D01*
X0115961Y0161224D01*
X0114960Y0161224D02*
X0114960Y0162225D01*
X0115211Y0162475D01*
X0115711Y0162475D01*
X0115961Y0162225D01*
X0116934Y0162225D02*
X0117434Y0162475D01*
X0117907Y0162475D02*
X0118908Y0162475D01*
X0118908Y0162225D01*
X0114488Y0161724D02*
X0113487Y0161724D01*
X0114238Y0162475D01*
X0114238Y0160974D01*
X0113015Y0161224D02*
X0112765Y0160974D01*
X0112264Y0160974D01*
X0112014Y0161224D01*
X0112014Y0162225D01*
X0112264Y0162475D01*
X0112765Y0162475D01*
X0113015Y0162225D01*
X0111541Y0162475D02*
X0111541Y0160974D01*
X0111541Y0161724D02*
X0110541Y0161724D01*
X0110068Y0161724D02*
X0109067Y0161724D01*
X0109818Y0162475D01*
X0109818Y0160974D01*
X0110541Y0160974D02*
X0110541Y0162475D01*
X0108595Y0162475D02*
X0108595Y0162225D01*
X0107594Y0161224D01*
X0107594Y0160974D01*
X0107122Y0161724D02*
X0106121Y0161724D01*
X0105648Y0160974D02*
X0104648Y0162475D01*
X0104175Y0162475D02*
X0104175Y0161224D01*
X0103925Y0160974D01*
X0103425Y0160974D01*
X0103174Y0161224D01*
X0103174Y0162475D01*
X0102702Y0162475D02*
X0102702Y0160974D01*
X0101701Y0160974D02*
X0101701Y0162475D01*
X0102202Y0161974D01*
X0102702Y0162475D01*
X0104648Y0160974D02*
X0105648Y0162475D01*
X0107594Y0162475D02*
X0108595Y0162475D01*
M02*
