<?xml version="1.0" encoding="UTF-8" standalone="no"?>
<!-- Created with Inkscape (http://www.inkscape.org/) -->
<svg id="svg2" xmlns:rdf="http://www.w3.org/1999/02/22-rdf-syntax-ns#" xmlns="http://www.w3.org/2000/svg" xml:space="preserve" height="262.78" viewBox="0 0 171.58987 262.78424" width="171.59" version="1.1" xmlns:cc="http://creativecommons.org/ns#" xmlns:dc="http://purl.org/dc/elements/1.1/"><metadata id="metadata8"><rdf:RDF><cc:Work rdf:about=""><dc:format>image/svg+xml</dc:format><dc:type rdf:resource="http://purl.org/dc/dcmitype/StillImage"/><dc:title/></cc:Work></rdf:RDF></metadata><defs id="defs6"><clipPath id="clipPath18" clipPathUnits="userSpaceOnUse"><path id="path20" d="m0 1597.8h1680v-1597.8h-1680v1597.8z"/></clipPath></defs><g id="g10" transform="matrix(1.25 0 0 -1.25 -964.2 1686.2)"><g id="g14"><g id="g16" clip-path="url(#clipPath18)"><g id="g60" transform="translate(857.26 1244)"><path id="path62" fill="#2bb673" d="m0 0c0 9.326-7.565 16.889-16.894 16.889-9.32 0-16.886-7.563-16.886-16.889 0-9.329 7.566-16.889 16.886-16.889 9.329 0 16.894 7.56 16.894 16.889"/></g><g id="g64" transform="translate(873.07 1282.1)"><path id="path66" fill="#2bb673" d="m0 0c-5.388 0-9.944-3.491-11.575-8.328h-15.854c-1.2 0-2.186-0.978-2.186-2.175 0-1.211 0.986-2.182 2.186-2.182h15.227c0.25-6.532 5.614-11.751 12.202-11.751 6.751 0 12.22 5.471 12.22 12.219s-5.469 12.217-12.22 12.217"/></g><g id="g68" transform="translate(901.09 1297.9)"><path id="path70" fill="#2bb673" d="m0 0c0 5.754-4.656 10.419-10.42 10.419-4.87 0-8.943-3.341-10.089-7.852h-41.711c-1.209 0-2.177-0.974-2.177-2.177 0-1.204 0.968-2.183 2.177-2.183h41.548c0.85-4.901 5.114-8.627 10.252-8.627 5.764 0 10.42 4.664 10.42 10.42"/></g><g id="g72" transform="translate(900.73 1330.6)"><path id="path74" fill="#2bb673" d="m0 0c-3.256 0-6.042-2.077-7.079-4.976h-28.578c-1.218 0-2.186-0.977-2.186-2.182 0-1.204 0.968-2.178 2.186-2.178h28.345c0.796-3.302 3.769-5.755 7.312-5.755 4.173 0 7.547 3.38 7.547 7.547 0 4.161-3.374 7.544-7.547 7.544"/></g><g id="g76" transform="translate(789.33 1179.4)"><path id="path78" fill="#2bb673" d="m0 0c5.013 0 9.195 3.532 10.188 8.24h23.859c1.2 0 2.184 0.974 2.184 2.185 0 1.198-0.984 2.175-2.184 2.175h-23.859c-0.993 4.713-5.175 8.244-10.188 8.244-5.757 0-10.412-4.665-10.412-10.419 0-5.756 4.655-10.425 10.412-10.425"/></g><g id="g80" transform="translate(779.27 1157.1)"><path id="path82" fill="#2bb673" d="m0 0c3.411 0 6.284 2.273 7.224 5.371h60.081c1.191 0 2.177 0.976 2.177 2.185 0 1.2-0.986 2.171-2.177 2.171h-60.081c-0.94 3.102-3.813 5.371-7.224 5.371-4.163 0-7.548-3.38-7.548-7.542 0-4.172 3.385-7.556 7.548-7.556"/></g><g id="g84" transform="translate(806.94 1282.1)"><path id="path86" fill="#2bb673" d="m0 0c-6.75 0-12.211-5.469-12.211-12.217s5.461-12.219 12.211-12.219c6.59 0 11.943 5.219 12.194 11.751h11.45c1.2 0 2.177 0.971 2.177 2.182 0 1.197-0.977 2.175-2.177 2.175h-12.068c-1.621 4.837-6.186 8.328-11.576 8.328"/></g><g id="g88" transform="translate(776.76 1338.2)"><path id="path90" fill="#2bb673" d="m0 0c2.194 0 4.082 1.322 4.924 3.216h38.371c1.2 0 2.176 0.972 2.176 2.175 0 1.205-0.976 2.178-2.176 2.178h-38.371c-0.842 1.891-2.73 3.215-4.924 3.215-2.981 0-5.399-2.415-5.399-5.393 0-2.976 2.418-5.391 5.399-5.391"/></g><g id="g92" transform="translate(890.67 1179.4)"><path id="path94" fill="#2bb673" d="m0 0c5.765 0 10.42 4.669 10.42 10.425 0 5.754-4.655 10.419-10.42 10.419-5.005 0-9.184-3.531-10.188-8.244h-41.612c-1.209 0-2.177-0.977-2.177-2.175 0-1.211 0.968-2.185 2.177-2.185h41.612c1.004-4.708 5.183-8.24 10.188-8.24"/></g><g id="g96" transform="translate(903.26 1149.5)"><path id="path98" fill="#2bb673" d="m0 0c-2.05 0-3.832-1.147-4.746-2.83h-58.91c-1.218 0-2.183-0.975-2.183-2.18 0-1.204 0.965-2.18 2.183-2.18h58.569c0.736-2.095 2.732-3.598 5.087-3.598 2.973 0 5.379 2.417 5.379 5.394 0 2.976-2.406 5.394-5.379 5.394"/></g><g id="g100" transform="translate(845.64 1214.3)"><path id="path102" fill="#2bb673" d="m0 0h15.73c1.502-5.05 6.157-8.72 11.699-8.72 6.751 0 12.22 5.47 12.22 12.218 0 6.747-5.469 12.218-12.22 12.218-6.453 0-11.735-5.014-12.175-11.365h-15.254c-1.2 0-2.186-0.971-2.186-2.176 0-1.204 0.986-2.175 2.186-2.175"/></g><g id="g104" transform="translate(832.76 1216.5)"><path id="path106" fill="#2bb673" d="m0 0c0 1.205-0.977 2.175-2.177 2.175h-11.468c-0.448 6.352-5.712 11.366-12.176 11.366-6.75 0-12.211-5.471-12.211-12.219s5.461-12.217 12.211-12.217c5.533 0 10.197 3.669 11.701 8.72h11.943c1.2 0 2.177 0.971 2.177 2.175"/></g><g id="g108" transform="translate(823.38 1300.9)"><path id="path110" fill="#2bb673" d="m0 0h-24.047c-1.262 4.333-5.264 7.496-10 7.496-5.757 0-10.412-4.665-10.412-10.419 0-5.756 4.655-10.42 10.412-10.42 5.274 0 9.615 3.909 10.314 8.983h23.733c1.2 0 2.184 0.98 2.184 2.184 0 1.205-0.984 2.176-2.184 2.176"/></g><g id="g112" transform="translate(865.07 1162.4)"><path id="path114" fill="#2bb673" d="m0 0h28.442c0.931-3.098 3.805-5.371 7.215-5.371 4.173 0 7.547 3.384 7.547 7.556 0 4.162-3.374 7.542-7.547 7.542-3.41 0-6.284-2.269-7.215-5.372h-28.442c-1.218 0-2.186-0.97-2.186-2.17 0-1.21 0.968-2.185 2.186-2.185"/></g><g id="g116" transform="translate(820.06 1146.7)"><path id="path118" fill="#2bb673" d="m0 0h-38.559c-0.914 1.682-2.686 2.83-4.736 2.83-2.981 0-5.399-2.419-5.399-5.394 0-2.978 2.418-5.394 5.399-5.394 2.337 0 4.333 1.503 5.067 3.598h38.228c1.2 0 2.175 0.975 2.175 2.18s-0.975 2.18-2.175 2.18"/></g><g id="g120" transform="translate(846.58 1325.7)"><path id="path122" fill="#2bb673" d="m0 0h-60.215c-1.048 2.899-3.823 4.976-7.09 4.976-4.163 0-7.548-3.382-7.548-7.543 0-4.167 3.385-7.547 7.548-7.547 3.554 0 6.517 2.453 7.323 5.754h59.982c1.191 0 2.177 0.974 2.177 2.179 0 1.204-0.986 2.181-2.177 2.181"/></g><g id="g124" transform="translate(839.6 1341.4)"><path id="path126" fill="#2bb673" d="m0 0h58.714c0.841-1.894 2.737-3.216 4.942-3.216 2.972 0 5.378 2.415 5.378 5.391 0 2.978-2.406 5.393-5.378 5.393-2.205 0-4.101-1.324-4.942-3.214h-58.714c-1.218 0-2.183-0.974-2.183-2.179 0-1.203 0.965-2.175 2.183-2.175"/></g></g></g></g></svg>
