G75*
%MOIN*%
%OFA0B0*%
%FSLAX25Y25*%
%IPPOS*%
%LPD*%
%AMOC8*
5,1,8,0,0,1.08239X$1,22.5*
%
%ADD10C,0.00000*%
%ADD11C,0.00039*%
%ADD12C,0.05543*%
%ADD13C,0.11220*%
%ADD14R,0.02400X0.08700*%
%ADD15R,0.05118X0.05906*%
%ADD16C,0.01200*%
%ADD17C,0.03962*%
%ADD18C,0.01000*%
D10*
X0006800Y0006800D02*
X0006800Y0136761D01*
X0105501Y0136761D01*
X0105501Y0006800D01*
X0006800Y0006800D01*
X0028097Y0042430D02*
X0028099Y0042590D01*
X0028105Y0042749D01*
X0028115Y0042908D01*
X0028129Y0043067D01*
X0028147Y0043226D01*
X0028168Y0043384D01*
X0028194Y0043541D01*
X0028224Y0043698D01*
X0028257Y0043854D01*
X0028295Y0044009D01*
X0028336Y0044163D01*
X0028381Y0044316D01*
X0028430Y0044468D01*
X0028483Y0044619D01*
X0028539Y0044768D01*
X0028600Y0044916D01*
X0028663Y0045062D01*
X0028731Y0045207D01*
X0028802Y0045350D01*
X0028876Y0045491D01*
X0028954Y0045630D01*
X0029036Y0045767D01*
X0029121Y0045902D01*
X0029209Y0046035D01*
X0029301Y0046166D01*
X0029395Y0046294D01*
X0029493Y0046420D01*
X0029594Y0046544D01*
X0029698Y0046665D01*
X0029805Y0046783D01*
X0029915Y0046899D01*
X0030028Y0047012D01*
X0030144Y0047122D01*
X0030262Y0047229D01*
X0030383Y0047333D01*
X0030507Y0047434D01*
X0030633Y0047532D01*
X0030761Y0047626D01*
X0030892Y0047718D01*
X0031025Y0047806D01*
X0031160Y0047891D01*
X0031297Y0047973D01*
X0031436Y0048051D01*
X0031577Y0048125D01*
X0031720Y0048196D01*
X0031865Y0048264D01*
X0032011Y0048327D01*
X0032159Y0048388D01*
X0032308Y0048444D01*
X0032459Y0048497D01*
X0032611Y0048546D01*
X0032764Y0048591D01*
X0032918Y0048632D01*
X0033073Y0048670D01*
X0033229Y0048703D01*
X0033386Y0048733D01*
X0033543Y0048759D01*
X0033701Y0048780D01*
X0033860Y0048798D01*
X0034019Y0048812D01*
X0034178Y0048822D01*
X0034337Y0048828D01*
X0034497Y0048830D01*
X0034657Y0048828D01*
X0034816Y0048822D01*
X0034975Y0048812D01*
X0035134Y0048798D01*
X0035293Y0048780D01*
X0035451Y0048759D01*
X0035608Y0048733D01*
X0035765Y0048703D01*
X0035921Y0048670D01*
X0036076Y0048632D01*
X0036230Y0048591D01*
X0036383Y0048546D01*
X0036535Y0048497D01*
X0036686Y0048444D01*
X0036835Y0048388D01*
X0036983Y0048327D01*
X0037129Y0048264D01*
X0037274Y0048196D01*
X0037417Y0048125D01*
X0037558Y0048051D01*
X0037697Y0047973D01*
X0037834Y0047891D01*
X0037969Y0047806D01*
X0038102Y0047718D01*
X0038233Y0047626D01*
X0038361Y0047532D01*
X0038487Y0047434D01*
X0038611Y0047333D01*
X0038732Y0047229D01*
X0038850Y0047122D01*
X0038966Y0047012D01*
X0039079Y0046899D01*
X0039189Y0046783D01*
X0039296Y0046665D01*
X0039400Y0046544D01*
X0039501Y0046420D01*
X0039599Y0046294D01*
X0039693Y0046166D01*
X0039785Y0046035D01*
X0039873Y0045902D01*
X0039958Y0045767D01*
X0040040Y0045630D01*
X0040118Y0045491D01*
X0040192Y0045350D01*
X0040263Y0045207D01*
X0040331Y0045062D01*
X0040394Y0044916D01*
X0040455Y0044768D01*
X0040511Y0044619D01*
X0040564Y0044468D01*
X0040613Y0044316D01*
X0040658Y0044163D01*
X0040699Y0044009D01*
X0040737Y0043854D01*
X0040770Y0043698D01*
X0040800Y0043541D01*
X0040826Y0043384D01*
X0040847Y0043226D01*
X0040865Y0043067D01*
X0040879Y0042908D01*
X0040889Y0042749D01*
X0040895Y0042590D01*
X0040897Y0042430D01*
X0040895Y0042270D01*
X0040889Y0042111D01*
X0040879Y0041952D01*
X0040865Y0041793D01*
X0040847Y0041634D01*
X0040826Y0041476D01*
X0040800Y0041319D01*
X0040770Y0041162D01*
X0040737Y0041006D01*
X0040699Y0040851D01*
X0040658Y0040697D01*
X0040613Y0040544D01*
X0040564Y0040392D01*
X0040511Y0040241D01*
X0040455Y0040092D01*
X0040394Y0039944D01*
X0040331Y0039798D01*
X0040263Y0039653D01*
X0040192Y0039510D01*
X0040118Y0039369D01*
X0040040Y0039230D01*
X0039958Y0039093D01*
X0039873Y0038958D01*
X0039785Y0038825D01*
X0039693Y0038694D01*
X0039599Y0038566D01*
X0039501Y0038440D01*
X0039400Y0038316D01*
X0039296Y0038195D01*
X0039189Y0038077D01*
X0039079Y0037961D01*
X0038966Y0037848D01*
X0038850Y0037738D01*
X0038732Y0037631D01*
X0038611Y0037527D01*
X0038487Y0037426D01*
X0038361Y0037328D01*
X0038233Y0037234D01*
X0038102Y0037142D01*
X0037969Y0037054D01*
X0037834Y0036969D01*
X0037697Y0036887D01*
X0037558Y0036809D01*
X0037417Y0036735D01*
X0037274Y0036664D01*
X0037129Y0036596D01*
X0036983Y0036533D01*
X0036835Y0036472D01*
X0036686Y0036416D01*
X0036535Y0036363D01*
X0036383Y0036314D01*
X0036230Y0036269D01*
X0036076Y0036228D01*
X0035921Y0036190D01*
X0035765Y0036157D01*
X0035608Y0036127D01*
X0035451Y0036101D01*
X0035293Y0036080D01*
X0035134Y0036062D01*
X0034975Y0036048D01*
X0034816Y0036038D01*
X0034657Y0036032D01*
X0034497Y0036030D01*
X0034337Y0036032D01*
X0034178Y0036038D01*
X0034019Y0036048D01*
X0033860Y0036062D01*
X0033701Y0036080D01*
X0033543Y0036101D01*
X0033386Y0036127D01*
X0033229Y0036157D01*
X0033073Y0036190D01*
X0032918Y0036228D01*
X0032764Y0036269D01*
X0032611Y0036314D01*
X0032459Y0036363D01*
X0032308Y0036416D01*
X0032159Y0036472D01*
X0032011Y0036533D01*
X0031865Y0036596D01*
X0031720Y0036664D01*
X0031577Y0036735D01*
X0031436Y0036809D01*
X0031297Y0036887D01*
X0031160Y0036969D01*
X0031025Y0037054D01*
X0030892Y0037142D01*
X0030761Y0037234D01*
X0030633Y0037328D01*
X0030507Y0037426D01*
X0030383Y0037527D01*
X0030262Y0037631D01*
X0030144Y0037738D01*
X0030028Y0037848D01*
X0029915Y0037961D01*
X0029805Y0038077D01*
X0029698Y0038195D01*
X0029594Y0038316D01*
X0029493Y0038440D01*
X0029395Y0038566D01*
X0029301Y0038694D01*
X0029209Y0038825D01*
X0029121Y0038958D01*
X0029036Y0039093D01*
X0028954Y0039230D01*
X0028876Y0039369D01*
X0028802Y0039510D01*
X0028731Y0039653D01*
X0028663Y0039798D01*
X0028600Y0039944D01*
X0028539Y0040092D01*
X0028483Y0040241D01*
X0028430Y0040392D01*
X0028381Y0040544D01*
X0028336Y0040697D01*
X0028295Y0040851D01*
X0028257Y0041006D01*
X0028224Y0041162D01*
X0028194Y0041319D01*
X0028168Y0041476D01*
X0028147Y0041634D01*
X0028129Y0041793D01*
X0028115Y0041952D01*
X0028105Y0042111D01*
X0028099Y0042270D01*
X0028097Y0042430D01*
X0073097Y0042430D02*
X0073099Y0042590D01*
X0073105Y0042749D01*
X0073115Y0042908D01*
X0073129Y0043067D01*
X0073147Y0043226D01*
X0073168Y0043384D01*
X0073194Y0043541D01*
X0073224Y0043698D01*
X0073257Y0043854D01*
X0073295Y0044009D01*
X0073336Y0044163D01*
X0073381Y0044316D01*
X0073430Y0044468D01*
X0073483Y0044619D01*
X0073539Y0044768D01*
X0073600Y0044916D01*
X0073663Y0045062D01*
X0073731Y0045207D01*
X0073802Y0045350D01*
X0073876Y0045491D01*
X0073954Y0045630D01*
X0074036Y0045767D01*
X0074121Y0045902D01*
X0074209Y0046035D01*
X0074301Y0046166D01*
X0074395Y0046294D01*
X0074493Y0046420D01*
X0074594Y0046544D01*
X0074698Y0046665D01*
X0074805Y0046783D01*
X0074915Y0046899D01*
X0075028Y0047012D01*
X0075144Y0047122D01*
X0075262Y0047229D01*
X0075383Y0047333D01*
X0075507Y0047434D01*
X0075633Y0047532D01*
X0075761Y0047626D01*
X0075892Y0047718D01*
X0076025Y0047806D01*
X0076160Y0047891D01*
X0076297Y0047973D01*
X0076436Y0048051D01*
X0076577Y0048125D01*
X0076720Y0048196D01*
X0076865Y0048264D01*
X0077011Y0048327D01*
X0077159Y0048388D01*
X0077308Y0048444D01*
X0077459Y0048497D01*
X0077611Y0048546D01*
X0077764Y0048591D01*
X0077918Y0048632D01*
X0078073Y0048670D01*
X0078229Y0048703D01*
X0078386Y0048733D01*
X0078543Y0048759D01*
X0078701Y0048780D01*
X0078860Y0048798D01*
X0079019Y0048812D01*
X0079178Y0048822D01*
X0079337Y0048828D01*
X0079497Y0048830D01*
X0079657Y0048828D01*
X0079816Y0048822D01*
X0079975Y0048812D01*
X0080134Y0048798D01*
X0080293Y0048780D01*
X0080451Y0048759D01*
X0080608Y0048733D01*
X0080765Y0048703D01*
X0080921Y0048670D01*
X0081076Y0048632D01*
X0081230Y0048591D01*
X0081383Y0048546D01*
X0081535Y0048497D01*
X0081686Y0048444D01*
X0081835Y0048388D01*
X0081983Y0048327D01*
X0082129Y0048264D01*
X0082274Y0048196D01*
X0082417Y0048125D01*
X0082558Y0048051D01*
X0082697Y0047973D01*
X0082834Y0047891D01*
X0082969Y0047806D01*
X0083102Y0047718D01*
X0083233Y0047626D01*
X0083361Y0047532D01*
X0083487Y0047434D01*
X0083611Y0047333D01*
X0083732Y0047229D01*
X0083850Y0047122D01*
X0083966Y0047012D01*
X0084079Y0046899D01*
X0084189Y0046783D01*
X0084296Y0046665D01*
X0084400Y0046544D01*
X0084501Y0046420D01*
X0084599Y0046294D01*
X0084693Y0046166D01*
X0084785Y0046035D01*
X0084873Y0045902D01*
X0084958Y0045767D01*
X0085040Y0045630D01*
X0085118Y0045491D01*
X0085192Y0045350D01*
X0085263Y0045207D01*
X0085331Y0045062D01*
X0085394Y0044916D01*
X0085455Y0044768D01*
X0085511Y0044619D01*
X0085564Y0044468D01*
X0085613Y0044316D01*
X0085658Y0044163D01*
X0085699Y0044009D01*
X0085737Y0043854D01*
X0085770Y0043698D01*
X0085800Y0043541D01*
X0085826Y0043384D01*
X0085847Y0043226D01*
X0085865Y0043067D01*
X0085879Y0042908D01*
X0085889Y0042749D01*
X0085895Y0042590D01*
X0085897Y0042430D01*
X0085895Y0042270D01*
X0085889Y0042111D01*
X0085879Y0041952D01*
X0085865Y0041793D01*
X0085847Y0041634D01*
X0085826Y0041476D01*
X0085800Y0041319D01*
X0085770Y0041162D01*
X0085737Y0041006D01*
X0085699Y0040851D01*
X0085658Y0040697D01*
X0085613Y0040544D01*
X0085564Y0040392D01*
X0085511Y0040241D01*
X0085455Y0040092D01*
X0085394Y0039944D01*
X0085331Y0039798D01*
X0085263Y0039653D01*
X0085192Y0039510D01*
X0085118Y0039369D01*
X0085040Y0039230D01*
X0084958Y0039093D01*
X0084873Y0038958D01*
X0084785Y0038825D01*
X0084693Y0038694D01*
X0084599Y0038566D01*
X0084501Y0038440D01*
X0084400Y0038316D01*
X0084296Y0038195D01*
X0084189Y0038077D01*
X0084079Y0037961D01*
X0083966Y0037848D01*
X0083850Y0037738D01*
X0083732Y0037631D01*
X0083611Y0037527D01*
X0083487Y0037426D01*
X0083361Y0037328D01*
X0083233Y0037234D01*
X0083102Y0037142D01*
X0082969Y0037054D01*
X0082834Y0036969D01*
X0082697Y0036887D01*
X0082558Y0036809D01*
X0082417Y0036735D01*
X0082274Y0036664D01*
X0082129Y0036596D01*
X0081983Y0036533D01*
X0081835Y0036472D01*
X0081686Y0036416D01*
X0081535Y0036363D01*
X0081383Y0036314D01*
X0081230Y0036269D01*
X0081076Y0036228D01*
X0080921Y0036190D01*
X0080765Y0036157D01*
X0080608Y0036127D01*
X0080451Y0036101D01*
X0080293Y0036080D01*
X0080134Y0036062D01*
X0079975Y0036048D01*
X0079816Y0036038D01*
X0079657Y0036032D01*
X0079497Y0036030D01*
X0079337Y0036032D01*
X0079178Y0036038D01*
X0079019Y0036048D01*
X0078860Y0036062D01*
X0078701Y0036080D01*
X0078543Y0036101D01*
X0078386Y0036127D01*
X0078229Y0036157D01*
X0078073Y0036190D01*
X0077918Y0036228D01*
X0077764Y0036269D01*
X0077611Y0036314D01*
X0077459Y0036363D01*
X0077308Y0036416D01*
X0077159Y0036472D01*
X0077011Y0036533D01*
X0076865Y0036596D01*
X0076720Y0036664D01*
X0076577Y0036735D01*
X0076436Y0036809D01*
X0076297Y0036887D01*
X0076160Y0036969D01*
X0076025Y0037054D01*
X0075892Y0037142D01*
X0075761Y0037234D01*
X0075633Y0037328D01*
X0075507Y0037426D01*
X0075383Y0037527D01*
X0075262Y0037631D01*
X0075144Y0037738D01*
X0075028Y0037848D01*
X0074915Y0037961D01*
X0074805Y0038077D01*
X0074698Y0038195D01*
X0074594Y0038316D01*
X0074493Y0038440D01*
X0074395Y0038566D01*
X0074301Y0038694D01*
X0074209Y0038825D01*
X0074121Y0038958D01*
X0074036Y0039093D01*
X0073954Y0039230D01*
X0073876Y0039369D01*
X0073802Y0039510D01*
X0073731Y0039653D01*
X0073663Y0039798D01*
X0073600Y0039944D01*
X0073539Y0040092D01*
X0073483Y0040241D01*
X0073430Y0040392D01*
X0073381Y0040544D01*
X0073336Y0040697D01*
X0073295Y0040851D01*
X0073257Y0041006D01*
X0073224Y0041162D01*
X0073194Y0041319D01*
X0073168Y0041476D01*
X0073147Y0041634D01*
X0073129Y0041793D01*
X0073115Y0041952D01*
X0073105Y0042111D01*
X0073099Y0042270D01*
X0073097Y0042430D01*
D11*
X0090247Y0020730D02*
X0023747Y0020730D01*
D12*
X0039497Y0067430D03*
X0044497Y0077430D03*
X0049497Y0067430D03*
X0054497Y0077430D03*
X0059497Y0067430D03*
X0064497Y0077430D03*
X0069497Y0067430D03*
X0074497Y0077430D03*
D13*
X0088997Y0076918D03*
X0088997Y0030430D03*
X0024997Y0030430D03*
X0024997Y0076918D03*
D14*
X0049300Y0096500D03*
X0054300Y0096500D03*
X0059300Y0096500D03*
X0064300Y0096500D03*
X0064300Y0117100D03*
X0059300Y0117100D03*
X0054300Y0117100D03*
X0049300Y0117100D03*
D15*
X0035540Y0121800D03*
X0028060Y0121800D03*
X0028060Y0096800D03*
X0035540Y0096800D03*
X0078060Y0096800D03*
X0085540Y0096800D03*
X0085540Y0121800D03*
X0078060Y0121800D03*
D16*
X0072100Y0121100D01*
X0067700Y0121100D01*
X0064400Y0117800D01*
X0064300Y0117100D01*
X0060000Y0116700D02*
X0060000Y0113400D01*
X0063300Y0110100D01*
X0090900Y0105100D01*
X0090900Y0096900D01*
X0085540Y0096800D01*
X0090900Y0105100D02*
X0085900Y0121100D01*
X0085540Y0121800D01*
X0078060Y0096800D02*
X0072100Y0096900D01*
X0068800Y0096900D01*
X0068800Y0072700D01*
X0064400Y0068300D01*
X0064400Y0065000D01*
X0061100Y0061700D01*
X0044600Y0061700D01*
X0040200Y0066100D01*
X0039497Y0067430D01*
X0042400Y0071761D02*
X0028100Y0085900D01*
X0028100Y0095800D01*
X0028060Y0096800D01*
X0027000Y0096900D01*
X0021500Y0102400D01*
X0021500Y0126600D01*
X0023700Y0128800D01*
X0038000Y0128800D01*
X0049000Y0117800D01*
X0049300Y0117100D01*
X0053400Y0116700D02*
X0053400Y0112300D01*
X0051200Y0110100D01*
X0045700Y0110100D01*
X0045700Y0091400D01*
X0053400Y0083700D01*
X0053400Y0077100D01*
X0054497Y0077430D01*
X0054500Y0071761D02*
X0059497Y0067430D01*
X0064300Y0096500D02*
X0064400Y0096900D01*
X0068800Y0096900D01*
X0060000Y0116700D02*
X0059300Y0117100D01*
X0054300Y0117100D02*
X0053400Y0116700D01*
X0045700Y0110100D02*
X0039100Y0110100D01*
X0028100Y0121100D01*
X0028060Y0121800D01*
X0023700Y0125500D02*
X0024800Y0126600D01*
X0031400Y0126600D01*
X0035800Y0122200D01*
X0035540Y0121800D01*
X0023700Y0117800D02*
X0034700Y0106800D01*
X0034700Y0096900D01*
X0035540Y0096800D01*
X0035800Y0095800D01*
X0035800Y0083700D01*
X0023700Y0117800D02*
X0023700Y0125500D01*
D17*
X0035800Y0083700D03*
X0090900Y0105100D03*
D18*
X0054500Y0071761D02*
X0042400Y0071761D01*
M02*
